<?xml version="1.0" ?><svg data-name="Layer 1" id="Layer_1" viewBox="0 0 185 185" xmlns="http://www.w3.org/2000/svg"><defs><style>.cls-1{fill:#d9e2e9;}.cls-2{fill:#e8c79c;}.cls-3{fill:#d0aa79;}.cls-4{fill:#00063c;}.cls-5{fill:#2f3a5a;}.cls-6{fill:#8fb6f8;}.cls-7{fill:#39476b;}.cls-8{fill:#e51b3a;}.cls-9{fill:#6c95f8;}.cls-10{fill:#566ef5;}.cls-11{fill:#fc3133;}.cls-12{fill:#da2a47;}.cls-13{fill:none;}</style></defs><title/><circle class="cls-1" cx="92.5" cy="92.5" r="90"/><path class="cls-2" d="M108.77,98.42l-19.69,1.3S86,112.18,86.3,113.33l5.84,32.45,7.33-.49s4.43-17.63-.74-30.25A137,137,0,0,0,108.77,98.42Z"/><path class="cls-3" d="M98.73,115.05c5.17,12.61.74,30.23.74,30.23l-7.34.5-.06-.35,2.27-.15s4.43-17.62-.74-30.23a136.43,136.43,0,0,0,9.86-16.28l5.31-.35A135.2,135.2,0,0,1,98.73,115.05Z"/><path class="cls-4" d="M92.14,146.53a.75.75,0,0,1-.74-.62l-5.83-32.45c-.31-1.14,1.84-10.11,2.78-13.92A.75.75,0,0,1,89,99l19.69-1.31a.75.75,0,0,1,.72,1.08,138.88,138.88,0,0,1-9.86,16.39c5,12.66.8,29.61.62,30.33a.75.75,0,0,1-.68.57l-7.33.48Zm-2.46-46.09c-1.41,5.71-2.75,11.9-2.64,12.72L92.76,145l6.11-.4c.67-3,3.69-18.22-.84-29.25a.79.79,0,0,1,.09-.73,137.34,137.34,0,0,0,9.38-15.35Z"/><path class="cls-5" d="M77.68,153.89,77.56,151c0,.13.45,1.1,10.27.44l7.82-.87a.6.6,0,0,0,.47-.33l.73-1.52h0l5-.44,0,.23a14,14,0,0,1-.34,4.63c-.06.16-7.87,1.56-18.42,1.8,0,0-4.86.31-5.42-1.08Z"/><path class="cls-4" d="M81.79,155.76c-1.81,0-4.27-.26-4.81-1.59a.7.7,0,0,1,0-.25l-.12-2.86a.75.75,0,0,1,1.37-.46c.34.15,2.06.62,9.6.12l7.7-.85.7-1.45a.76.76,0,0,1,.61-.42l5-.44a.77.77,0,0,1,.82.67l0,.23a14.67,14.67,0,0,1-.37,4.95c-.15.44-.23.68-5.89,1.37-2.92.36-7.58.81-13.22.94C82.77,155.74,82.3,155.76,81.79,155.76Zm-3.37-2.09c.37.38,2.4.69,4.63.55a113.54,113.54,0,0,0,17.85-1.65,14.26,14.26,0,0,0,.25-3.45l-3.81.34-.54,1.14a1.39,1.39,0,0,1-1.07.75l-7.82.86c-5.38.37-8.13.27-9.55,0Z"/><path class="cls-6" d="M77.55,151s-.11-.65.81-1.21a3.24,3.24,0,0,1,.75-.38c.19-.06.41-.14.65-.24l.3-.11,0,0,.21-.08.23-.09.14-.06.2-.08.27-.11.53-.22.22-.09.6-.25.13,0,.11-.05.12-.05.07,0,.1,0,.24-.11,0,0s6.73-4.64,7.4-4.8a4.26,4.26,0,0,1,1.9.7l.26.12c.56.28,3.22,2,5.59,0a3,3,0,0,0,.81-1.07.66.66,0,0,1,.7-.47c.36.05.82,1.36,1.2,2.85l0,.12c0,.14.07.28.1.43a1.16,1.16,0,0,1,0,.18c0,.19.09.38.13.57s0,.15,0,.22l0,.14c0,.26.1.51.14.75s.09.55.12.79l-4.54.41a.73.73,0,0,0-.62.43l-.51,1a.75.75,0,0,1-.61.43l-7.72.85c-9.82.66-10.25-.31-10.27-.44Z"/><path class="cls-4" d="M82,152.44c-5.08,0-5.17-.81-5.23-1.34V151A2.05,2.05,0,0,1,78,149.16a4.53,4.53,0,0,1,.91-.45l.62-.23.78-.3.42.64-.29-.69,1.94-.8.14-.06.39.65-.23-.72.35.67-.25-.71.22-.1c3.07-2.11,6.93-4.71,7.59-4.87s1.24.16,2.34.71l.52.27c1.2.64,3,1.34,4.6,0a2.37,2.37,0,0,0,.6-.8,1.4,1.4,0,0,1,1.49-.91c.52.08,1.05.4,1.81,3.41l.17.71c.06.24.1.44.14.63s0,.16,0,.24l0,.13c0,.26.1.52.14.76s.09.58.12.83a.71.71,0,0,1-.16.56.75.75,0,0,1-.52.28l-4.53.4-.52,1.06a1.52,1.52,0,0,1-1.2.84l-7.72.86C85.44,152.37,83.53,152.44,82,152.44Zm-3.59-1.76c.75.19,3,.46,9.32,0l7.69-.85.52-1.05a1.54,1.54,0,0,1,1.24-.85l3.74-.33c0-.24-.09-.48-.13-.72l0-.15,0-.19c-.05-.2-.09-.39-.13-.58l-.14-.59,0-.12a14.18,14.18,0,0,0-.62-2,3.78,3.78,0,0,1-.89,1.08c-1.71,1.37-3.81,1.41-6.25.11l-.4-.2a7.68,7.68,0,0,0-1.41-.62c-.68.31-4.1,2.58-7.13,4.67l-.13.07-.3.13-.39-.65.29.69-.4-.64.3.69-.11,0-2,.84-.16.06-.36.15-.09,0-.35.14-.67.24a2.19,2.19,0,0,0-.55.28A2,2,0,0,0,78.45,150.68Z"/><path class="cls-4" d="M77.55,151.77a.75.75,0,0,1-.74-.66.7.7,0,0,1,0-.25.76.76,0,0,1,.88-.59.74.74,0,0,1,.6.75.73.73,0,0,1-.65.74Z"/><path class="cls-2" d="M115.2,114.62s-4.68-14.81-12.86-23.92l-10,9.75,13,20.08c2.64,3,15.8,8.86,26.49,13.56l6.13-4A69.94,69.94,0,0,0,115.2,114.62Z"/><path class="cls-3" d="M138,130.07l-3.37,2.21a71.48,71.48,0,0,0-22.16-14.76s-4.67-14.81-12.86-23.92l-7.14,7-.1-.15,10-9.75c8.19,9.12,12.87,23.92,12.87,23.92A69.94,69.94,0,0,1,138,130.07Z"/><path class="cls-4" d="M131.88,134.84a.81.81,0,0,1-.31-.06C119,129.22,107.42,124,104.83,121l-.07-.09-13-20.08a.74.74,0,0,1,.11-.94l9.95-9.75a.67.67,0,0,1,.54-.22.78.78,0,0,1,.54.25c7.61,8.48,12.15,21.56,12.91,23.86a71.56,71.56,0,0,1,22.76,15.5.81.81,0,0,1,.19.6.74.74,0,0,1-.34.53l-6.13,4A.78.78,0,0,1,131.88,134.84ZM106,120.08c2.64,2.94,16.44,9,25.82,13.16l5-3.31a71.07,71.07,0,0,0-21.93-14.62.71.71,0,0,1-.42-.46c0-.14-4.53-14.13-12.19-23.06l-8.94,8.77Z"/><path class="cls-5" d="M122.88,148.53l-1.51-2.44c.08.1.93.74,9.16-4.67l6.38-4.59a.62.62,0,0,0,.25-.53l-.11-1.68h0l4.12-2.83.13.19a13.62,13.62,0,0,1,2,4.2c0,.16-6.08,5.22-15.15,10.62,0,0-4.07,2.66-5.25,1.73Z"/><path class="cls-4" d="M123.58,149.47a1.85,1.85,0,0,1-1.17-.36.77.77,0,0,1-.17-.19l-1.51-2.44a.75.75,0,0,1,1-1.07c.37,0,2.11-.47,8.42-4.61l6.28-4.54-.1-1.59a.75.75,0,0,1,.33-.67l4.11-2.83a.75.75,0,0,1,1,.18l.14.19A14.51,14.51,0,0,1,144,136c.09.46.14.71-4.45,4.1-2.37,1.74-6.21,4.43-11,7.31C127.47,148.13,125.21,149.47,123.58,149.47Zm-.16-1.5c.51.14,2.43-.58,4.3-1.8A113.44,113.44,0,0,0,142.45,136a14.58,14.58,0,0,0-1.47-3.13L137.83,135l.08,1.25a1.33,1.33,0,0,1-.56,1.18L131,142c-4.51,3-7,4.23-8.33,4.69Z"/><path class="cls-6" d="M121.36,146.07s-.42-.5.1-1.44a3.29,3.29,0,0,1,.47-.7l.45-.53.2-.24,0,0,.14-.17.15-.19.1-.12a2.09,2.09,0,0,1,.14-.17l.18-.23.35-.45.15-.18.4-.52.08-.11.08-.1.07-.1.05-.06.07-.09.16-.21,0,0s3.58-7.35,4.08-7.82a4.47,4.47,0,0,1,2-.33h.29c.62,0,3.76.12,4.89-2.71a3,3,0,0,0,.18-1.33.65.65,0,0,1,.37-.75c.35-.14,1.39.78,2.45,1.89l.08.09a3,3,0,0,1,.3.32l.13.14.39.44.15.17.09.1.49.59c.18.22.35.43.49.63l-3.75,2.58a.76.76,0,0,0-.33.68l.07,1.16a.76.76,0,0,1-.32.67l-6.3,4.54c-8.23,5.4-9.08,4.77-9.16,4.67Z"/><path class="cls-4" d="M121.55,146.94a.86.86,0,0,1-.8-.41l0-.06a2,2,0,0,1,.09-2.2,3.6,3.6,0,0,1,.56-.84l.43-.51.2-.24.07-.09,1.57-2,.08-.12a.39.39,0,0,0,.08-.1l.66.37-.54-.52.66.37-.59-.46.15-.2c1.32-2.71,3.68-7.46,4.2-8s1.2-.47,2.4-.53l.57,0c1.36,0,3.25-.3,4-2.22a2.16,2.16,0,0,0,.13-1,1.38,1.38,0,0,1,.85-1.52c.5-.18,1.12-.16,3.26,2.08l.08.09.32.34.13.13c.13.15.27.3.4.46l.15.17-.48.59.57-.49.5.6c.19.23.36.46.52.66a.73.73,0,0,1,.13.57.75.75,0,0,1-.31.5L137.83,135l.06,1.17a1.5,1.5,0,0,1-.63,1.33L131,142C124.88,146,122.55,146.94,121.55,146.94Zm1-3.78.58.47-.17.21-.5.59a2,2,0,0,0-.34.51,1.37,1.37,0,0,0-.17.41c.74-.21,2.81-1.06,8.13-4.56l6.27-4.52-.06-1.17a1.54,1.54,0,0,1,.66-1.35l3.09-2.13c-.15-.18-.3-.37-.47-.56l-.1-.11-.12-.15-.4-.44-.41-.44-.09-.1A14.21,14.21,0,0,0,137,128.4a3.68,3.68,0,0,1-.25,1.38c-.81,2-2.62,3.1-5.38,3.17l-.45,0a8.54,8.54,0,0,0-1.54.16c-.43.61-2.29,4.26-3.9,7.57l-.08.13-.2.25-.07.1-.66-.37.6.45-.07.09-.07.09-.67-.36.59.46-1.08,1.38-.07.08-.44.55Z"/><path class="cls-4" d="M121.36,146.84a.75.75,0,0,1-.61-.32.61.61,0,0,1-.11-.23.75.75,0,0,1,1.38-.56.76.76,0,0,1-.22,1A.79.79,0,0,1,121.36,146.84Z"/><path class="cls-2" d="M104.4,58.65l-7.28.81L89.17,71s-7.66-5-16.1-2.46c0,0-.5-.23-1.24-.6v5.8l1.45-.33s12,6.8,18.46,6.53,12.7-19,12.7-19A11.8,11.8,0,0,0,104.4,58.65Z"/><path class="cls-3" d="M104.44,60.89s-6.24,18.73-12.7,19-18.47-6.53-18.47-6.53-.55.14-1.43.33V69.54c.88-.19,1.43-.33,1.43-.33s12,6.81,18.47,6.54c5.16-.22,10.18-12.21,12-17l.66-.07A12.67,12.67,0,0,1,104.44,60.89Z"/><path class="cls-4" d="M91.37,80.65c-6.16,0-16.41-5.5-18.2-6.5L72,74.42a.76.76,0,0,1-.63-.15.74.74,0,0,1-.28-.58v-5.8a.71.71,0,0,1,.36-.63.76.76,0,0,1,.73,0l1,.47c7.26-2,13.8,1.13,15.82,2.26L96.51,59a.73.73,0,0,1,.53-.32l7.27-.82a.74.74,0,0,1,.83.66,13.44,13.44,0,0,1,0,2.38.58.58,0,0,1,0,.19c-.65,2-6.59,19.23-13.38,19.51Zm-18.09-8a.78.78,0,0,1,.37.09c4.1,2.32,13.14,6.66,18.06,6.44s10.27-13.25,12-18.39a10.8,10.8,0,0,0,0-1.27l-6.16.69L89.78,71.38a.75.75,0,0,1-1,.2c-.07,0-7.48-4.73-15.47-2.37a.78.78,0,0,1-.52,0l-.19-.08v3.66l.51-.12Z"/><path class="cls-2" d="M94.85,35.2l-1.3,4.25.6,1.31a29.57,29.57,0,0,0-1.58,2.9c-.56,1.26.29,1.48,1.44,1.7,0,0,0,1.38.8,1.63,0,0-1.51,1,.16,1.74,0,0,.5.5-.09,1.45s.77,2.14,2.69,2.12a20.86,20.86,0,0,0,3-.21l-.39,6.31L113.49,56s-3.08-7.92-3.34-9.33a7.61,7.61,0,0,1,0-3.71c.77-2.11,1.44-4.59.85-6.51s-.14-3.94-3-5.7-10.78.36-12.38,0S94.85,35.2,94.85,35.2Z"/><path class="cls-4" d="M100.19,59.15a.75.75,0,0,1-.75-.8l.34-5.41c-.53.05-1.27.1-2.2.11a3.84,3.84,0,0,1-3.36-1.55,1.64,1.64,0,0,1,0-1.72.91.91,0,0,0,.18-.49,1.62,1.62,0,0,1-1-1.31A1.47,1.47,0,0,1,93.7,47,2.65,2.65,0,0,1,93.31,46a2.15,2.15,0,0,1-1.5-.95,1.84,1.84,0,0,1,.07-1.67,29.62,29.62,0,0,1,1.42-2.65l-.43-1a.7.7,0,0,1,0-.53l1.24-4.08c-.21-1.25-.5-3.86.45-4.79A1.3,1.3,0,0,1,95.75,30a17,17,0,0,0,3-.27c3.14-.41,7.45-1,9.61.32a6,6,0,0,1,3.08,4.84,12,12,0,0,0,.28,1.28c.69,2.25-.17,5.07-.87,7a6.88,6.88,0,0,0,0,3.32c.19,1,2.08,6,3.31,9.19a.76.76,0,0,1-.57,1l-13.3,2.44Zm.39-7.81a.74.74,0,0,1,.51.2.71.71,0,0,1,.24.6L101,57.48l11.46-2.1c-.83-2.15-2.83-7.42-3-8.62a8.16,8.16,0,0,1,0-4.11c.63-1.72,1.4-4.21.85-6a12.12,12.12,0,0,1-.33-1.46,4.56,4.56,0,0,0-2.38-3.81c-1.71-1-5.88-.48-8.63-.12a15.11,15.11,0,0,1-3.42.26,8.47,8.47,0,0,0,0,3.58.82.82,0,0,1,0,.35l-1.22,4,.48,1.05a.75.75,0,0,1,0,.71A28.19,28.19,0,0,0,93.26,44a1,1,0,0,0-.12.4,4.9,4.9,0,0,0,1,.26.76.76,0,0,1,.61.75c0,.4.13.86.27.9a.76.76,0,0,1,.52.62.74.74,0,0,1-.34.73,1.14,1.14,0,0,0-.25.24,1.5,1.5,0,0,0,.33.19.8.8,0,0,1,.21.15,1.88,1.88,0,0,1,0,2.38s-.05.07,0,.19a2.49,2.49,0,0,0,2,.78,19.28,19.28,0,0,0,2.9-.2Z"/><path class="cls-7" d="M94.85,35.2s1.14-1,3.68-.18,3.5,2.29,3.36,4.13a17.65,17.65,0,0,0-.06,2.67l1.33.13s.47-2.78,2-2.82,2.27,1.48,2.36,3.67,0,3.47,1.82,3.78a3.29,3.29,0,0,0,.77,0,7.61,7.61,0,0,1,0-3.71c.77-2.11,1.44-4.59.85-6.51s-.14-3.94-3-5.7-10.78.36-12.38,0S94.85,35.2,94.85,35.2Z"/><path class="cls-5" d="M110.16,42.91a7.61,7.61,0,0,0,0,3.71,3.94,3.94,0,0,1-.77,0,1.84,1.84,0,0,1-1.7-1.87c.74-2.07,1.38-4.48.8-6.35s-.14-4-3-5.7c-2.34-1.41-7.9-.32-10.82,0,0-1.08.22-2.06,1-1.91,1.6.32,9.49-1.78,12.38,0s2.45,3.79,3,5.71S110.93,40.8,110.16,42.91Z"/><path class="cls-4" d="M110,47.38a4,4,0,0,1-.71-.06c-2.29-.4-2.35-2.14-2.43-4.15v-.34c0-1.37-.34-3-1.59-2.95-.68,0-1.2,1.43-1.32,2.19a.75.75,0,0,1-.81.62l-1.33-.12a.75.75,0,0,1-.68-.68,19.52,19.52,0,0,1,.06-2.79c.12-1.65-.8-2.75-2.83-3.37s-3,0-3,.06a.78.78,0,0,1-.74.1.75.75,0,0,1-.47-.56c-.21-1.17-.58-4,.42-5A1.3,1.3,0,0,1,95.75,30a17,17,0,0,0,3-.27c3.14-.41,7.45-1,9.61.32a6,6,0,0,1,3.08,4.84,12,12,0,0,0,.28,1.28c.69,2.25-.17,5.07-.87,7a6.88,6.88,0,0,0,0,3.32.73.73,0,0,1-.7.88Zm-4.71-9c.92,0,2.9.46,3.06,4.39v.35c.07,2,.16,2.46.94,2.67a7,7,0,0,1,.19-3.14c.63-1.72,1.4-4.21.85-6a12.12,12.12,0,0,1-.33-1.46,4.56,4.56,0,0,0-2.38-3.81c-1.71-1-5.88-.48-8.63-.12a15.11,15.11,0,0,1-3.42.26,6.47,6.47,0,0,0-.09,2.62,6,6,0,0,1,3.3.19c3.62,1.1,4,3.55,3.89,4.91-.07.87-.09,1.51-.08,1.93h0c.28-1,1-2.72,2.6-2.76Z"/><path class="cls-8" d="M115.74,111c1-4.26,1.93-13.46-.85-21.87L96.58,91.75l2,19.8Z"/><path class="cls-4" d="M98.57,112.3a.75.75,0,0,1-.74-.68l-2-19.8a.74.74,0,0,1,.64-.81l18.31-2.66a.75.75,0,0,1,.82.51c2.59,7.83,2.09,16.88.87,22.26a.78.78,0,0,1-.71.59l-17.16.59ZM115.74,111h0ZM97.4,92.39l1.85,18.38,15.88-.54a43.83,43.83,0,0,0-.76-20.3Z"/><path class="cls-9" d="M115.67,67.72l-1.07-9.85a2.65,2.65,0,0,0-2.75-2.37L101,55.94c-2.65,1.57-5.41,4.42-7.14,10.32a22.86,22.86,0,0,0-.92,7,69,69,0,0,0,2.5,16.2l-1.18,1.74h20.27c0-.3.08-.6.1-.9C115.3,88.07,116,76.85,115.67,67.72Z"/><path class="cls-10" d="M114.66,90.31c0,.3-.06.6-.11.9h-4.8c0-.3.08-.6.11-.9.63-2.25,1.29-13.46,1-22.58l-4.31-7.41c-.12-1-1-4-1.9-4.32l7.2-.5a2.65,2.65,0,0,1,2.75,2.37l1.07,9.86C116,76.85,115.3,88.06,114.66,90.31Z"/><path class="cls-4" d="M114.56,92H94.29a.75.75,0,0,1-.67-.4.74.74,0,0,1,0-.77l1-1.45a70.49,70.49,0,0,1-2.43-16,23.59,23.59,0,0,1,1-7.24c1.51-5.15,4-8.66,7.47-10.76a.75.75,0,0,1,.36-.1l10.82-.44a3.43,3.43,0,0,1,3.53,3l1.07,9.85v.06c.28,8.78-.33,20.14-1,22.74,0,.3-.07.59-.11.89A.75.75,0,0,1,114.56,92ZM95.7,90.46h18.2c0-.07,0-.13,0-.2a.77.77,0,0,1,0-.15c.59-2.08,1.27-13.13,1-22.34L113.86,58a1.94,1.94,0,0,0-2-1.7l-10.63.43c-3.09,1.9-5.27,5.11-6.64,9.79a21.87,21.87,0,0,0-.89,6.78,68,68,0,0,0,2.47,16,.8.8,0,0,1-.1.64Z"/><path class="cls-11" d="M101.67,113.32s13.41-8,13-23a8.06,8.06,0,0,0,.21-1.07H95.39c-.94-1.64-10,14.35-9.11,16C86.19,105.33,101.67,113.32,101.67,113.32Z"/><path class="cls-8" d="M114.87,89.24a10.11,10.11,0,0,1-.21,1.07c.42,15-13,23-13,23s-15.39-7.95-15.39-8.12a.57.57,0,0,1-.06-.29C90.75,107.3,97,110.52,97,110.52s12.38-7.37,13-21.28Z"/><path class="cls-4" d="M101.67,114.07a.72.72,0,0,1-.35-.08c-13.55-7-15.37-8-15.69-8.43h0l0,0a.39.39,0,0,1,0-.14l0,0c-.6-2.74,7.25-15.76,9-16.78a1.08,1.08,0,0,1,1.08-.06h19.21a.73.73,0,0,1,.56.26.71.71,0,0,1,.18.59c-.06.44-.13.79-.19,1.06.35,15.22-13.23,23.49-13.37,23.57A.75.75,0,0,1,101.67,114.07ZM87,104.75c1.47.85,9.23,4.9,14.66,7.71,2.06-1.37,12.65-9.06,12.29-22.13a.55.55,0,0,1,0-.22,1,1,0,0,0,0-.12H95.4a.59.59,0,0,1-.23,0C93.29,91.34,87.07,102.54,87,104.75Z"/><path class="cls-2" d="M98,65.85l2.59,12.42s-8.77-2.51-16.11,2.32l-.67-.09v6c1.35-.73,2.28-1.28,2.28-1.28s13.46,3,19.56.88c4.31-1.5,5.83-11.73,6.36-17.65Z"/><path class="cls-3" d="M112,68.42c-.52,5.92-2,16.15-6.36,17.66-6.11,2.13-19.56-.88-19.56-.88s-.93.54-2.28,1.27V82.36c3.32.65,13.42,2.42,18.47.65,3.77-1.32,5.41-9.31,6.11-15.26Z"/><path class="cls-4" d="M99.64,87.59A72.2,72.2,0,0,1,86.18,86c-.37.21-1.11.63-2.05,1.14a.75.75,0,0,1-.74,0,.74.74,0,0,1-.37-.64v-6a.77.77,0,0,1,.26-.57.74.74,0,0,1,.6-.17l.38,0c6-3.79,12.65-3,15.32-2.53L97.23,66a.72.72,0,0,1,.2-.67.75.75,0,0,1,.67-.22l14,2.57a.75.75,0,0,1,.61.8c-.67,7.49-2.4,16.74-6.86,18.3A19.44,19.44,0,0,1,99.64,87.59ZM86.05,84.44l.17,0c.54.12,13.38,2.93,19.15.91,2.78-1,4.88-6.92,5.79-16.34L98.93,66.79l2.36,11.33a.76.76,0,0,1-.23.7.74.74,0,0,1-.71.17c-.09,0-8.54-2.35-15.5,2.23a.93.93,0,0,1-.33.12V85.2c.71-.39,1.14-.65,1.15-.65h0A.73.73,0,0,1,86.05,84.44Z"/><path class="cls-9" d="M97.68,64.49l.58,10,13.93.88c.43-2.73,1.1-11.72-3.13-16.23"/><path class="cls-10" d="M112.19,75.37l-13.93-.89-.11-1.8,9.49.6c.34-2.17.83-8.27-1.09-13l2.51-1.18C113.29,63.65,112.62,72.64,112.19,75.37Z"/><path class="cls-4" d="M112.19,76.12h0l-13.93-.89a.75.75,0,0,1-.7-.7l-.58-10a.76.76,0,0,1,.71-.8.75.75,0,0,1,.79.71L99,73.78l12.57.8c.29-2.44.92-10.73-3-14.92a.75.75,0,0,1,0-1.06.75.75,0,0,1,1.06,0C114.66,64,113,75,112.93,75.49A.74.74,0,0,1,112.19,76.12Z"/><path class="cls-8" d="M65.3,65.87,61,65.52l-.71,8.77,4.07.32.21,0a21.08,21.08,0,0,0,4-.11l2.11-.27.57-7Z"/><path class="cls-4" d="M66,75.43c-.58,0-1.16,0-1.73-.07L60.22,75a.75.75,0,0,1-.69-.81l.71-8.76A.79.79,0,0,1,60.5,65a.73.73,0,0,1,.55-.17l4.31.34a.75.75,0,0,1-.12,1.5l-3.56-.29-.59,7.27,3.32.27a20.92,20.92,0,0,0,4.11-.1l1.5-.19.52-6.41a.75.75,0,1,1,1.49.12l-.56,7a.77.77,0,0,1-.66.69l-2.11.26A21.92,21.92,0,0,1,66,75.43Z"/><path class="cls-8" d="M60.47,65.48l1.77.15a3.89,3.89,0,0,1,3.2,2.16,3.83,3.83,0,0,1,.37,1.43,8.52,8.52,0,0,1-.14,2,3.9,3.9,0,0,1-4.14,3.15l-1.76-.15a1.72,1.72,0,0,1-1.59-1.86l.43-5.31A1.73,1.73,0,0,1,60.47,65.48Z"/><path class="cls-4" d="M61.85,75.15l-.38,0L59.71,75A2.47,2.47,0,0,1,58,74.13a2.5,2.5,0,0,1-.59-1.81L57.86,67a2.49,2.49,0,0,1,2.67-2.28h0l1.77.15a4.66,4.66,0,0,1,3.82,2.58,4.46,4.46,0,0,1,.44,1.72,9.11,9.11,0,0,1-.16,2.21A4.63,4.63,0,0,1,61.85,75.15Zm-1.52-8.92a1,1,0,0,0-1,.9l-.43,5.31a1,1,0,0,0,.23.71,1,1,0,0,0,.67.35l1.76.14a3.14,3.14,0,0,0,3.34-2.54,7.61,7.61,0,0,0,.13-1.84,3,3,0,0,0-.29-1.14,3.16,3.16,0,0,0-2.59-1.75l-1.77-.14Z"/><path class="cls-12" d="M60.86,65.51l1.38.12a3.45,3.45,0,0,1,3.08,1.89L64.11,68a5.13,5.13,0,0,1-1.83.42,1.88,1.88,0,0,1-1.42-2.91Z"/><path class="cls-13" d="M58.61,67.07l-.43,5.31a1.72,1.72,0,0,0,1.59,1.86l1.76.15a3.9,3.9,0,0,0,4.14-3.15,8.52,8.52,0,0,0,.14-2,3.84,3.84,0,0,0-3.57-3.59l-1.77-.15A1.73,1.73,0,0,0,58.61,67.07Z"/><path class="cls-8" d="M71.59,67.45c-.6-.86-5.32-3.1-6.82-3.43a5.19,5.19,0,0,0-1.92-.13,2.39,2.39,0,0,0-1.61,1,1.86,1.86,0,0,0,1.41,2.9,4.74,4.74,0,0,0,1.83-.42c.19-.06.93-.45,1.12-.5"/><path class="cls-11" d="M64.77,64c1.5.33,6.22,2.57,6.82,3.43h-.22a27.91,27.91,0,0,0-6.11-2.83,5.12,5.12,0,0,0-1.91-.13,2.42,2.42,0,0,0-1.62,1,1.9,1.9,0,0,0-.12,1.86.08.08,0,0,0,0,0,1.79,1.79,0,0,1-.52-.64,1.88,1.88,0,0,1,.13-1.86,2.37,2.37,0,0,1,1.61-1A5.19,5.19,0,0,1,64.77,64Z"/><path class="cls-4" d="M62.73,68.5H62.6a2.62,2.62,0,0,1-2-4.07,3.17,3.17,0,0,1,2.12-1.27,6,6,0,0,1,2.2.13c1.52.34,6.49,2.63,7.27,3.74a.75.75,0,1,1-1.22.86c-.48-.63-4.89-2.8-6.38-3.13A4.19,4.19,0,0,0,63,64.63a1.65,1.65,0,0,0-1.11.63,1.13,1.13,0,0,0-.08,1.11,1.16,1.16,0,0,0,.93.63,9.26,9.26,0,0,0,2-.43l.24-.06A.75.75,0,1,1,65.28,68l-.17,0A10.6,10.6,0,0,1,62.73,68.5Z"/><rect class="cls-8" height="4.13" transform="translate(-4.06 136.9) rotate(-85.39)" width="7.8" x="68.26" y="68.59"/><polygon class="cls-11" points="70.42 66.6 74.53 66.93 73.9 74.7 73.08 74.63 73.65 67.57 70.36 67.3 70.42 66.6"/><path class="cls-4" d="M73.9,75.45h-.06l-4.11-.33a.76.76,0,0,1-.69-.81l.63-7.77a.77.77,0,0,1,.26-.51.74.74,0,0,1,.55-.18l4.11.33a.76.76,0,0,1,.69.81l-.63,7.77a.73.73,0,0,1-.26.51A.74.74,0,0,1,73.9,75.45Zm-3.3-1.77,2.62.21.5-6.27-2.61-.21Z"/><path class="cls-13" d="M60.28,74.28a4.32,4.32,0,0,1-.46-1.75"/><line class="cls-13" x1="60.73" x2="60.9" y1="74.32" y2="72.24"/><path class="cls-13" d="M61.39,74.37a6.3,6.3,0,0,0,.89-1.76"/><path class="cls-8" d="M80.38,79.23A27.43,27.43,0,0,0,74.5,77a5.16,5.16,0,0,0-1.92,0A2.42,2.42,0,0,0,71,78.1c-.21.37-.26.39-.19.82-1.12-.41-1.31-.16-2.2.84l-.06,6.62a2.06,2.06,0,0,0,2.15,1.21l4.08,0H75a21,21,0,0,0,4-.39L80.22,87h0l4.13,0,.09-7.79Z"/><path class="cls-4" d="M75.05,88.39h0l-4.29,0a2.76,2.76,0,0,1-2.79-1.58.86.86,0,0,1-.1-.38l.06-6.63a.73.73,0,0,1,.19-.49l.07-.08c.68-.76,1.15-1.27,2.08-1.19l.1-.16,0-.1a3.16,3.16,0,0,1,2-1.42,5.8,5.8,0,0,1,2.2,0,27.48,27.48,0,0,1,6,2.18l3.88,0a.75.75,0,0,1,.53.22.83.83,0,0,1,.21.54l-.09,7.79a.75.75,0,0,1-.75.74h0l-4,0-1.1.22A21.21,21.21,0,0,1,75.05,88.39Zm-4.41-1.54,4.37,0a20.14,20.14,0,0,0,3.9-.37l1.17-.23.15,0,3.37,0L83.68,80l-3.31,0a.66.66,0,0,1-.33-.09,26.92,26.92,0,0,0-5.66-2.11,4.23,4.23,0,0,0-1.63,0,1.69,1.69,0,0,0-1.07.71l-.06.11-.08.13s0,0,0,.08a.76.76,0,0,1-.27.7.74.74,0,0,1-.73.12c-.58-.21-.61-.22-1.2.43l0,6.13A1.26,1.26,0,0,0,70.64,86.85Z"/><path class="cls-4" d="M72.17,88.36H72l-1.76,0a2.48,2.48,0,0,1-1.75-.74,2.45,2.45,0,0,1-.71-1.77l.06-5.32a2.48,2.48,0,0,1,2.42-2.45,1.71,1.71,0,0,1,.17-.33,3.07,3.07,0,0,1,2-1.41,5.76,5.76,0,0,1,2.19,0,27.65,27.65,0,0,1,6.15,2.27.75.75,0,1,1-.69,1.33,27,27,0,0,0-5.68-2.12,4.69,4.69,0,0,0-1.63,0,1.64,1.64,0,0,0-1.06.71,1,1,0,0,0-.13.42.76.76,0,0,1-.75.65h-.5a1,1,0,0,0-1,1l-.06,5.33a1,1,0,0,0,.28.7,1,1,0,0,0,.69.29l1.77,0a49.73,49.73,0,0,0,8.09-.57.75.75,0,1,1,.28,1.48A52.93,52.93,0,0,1,72.17,88.36Z"/><path class="cls-4" d="M84.35,87.82h0l-4.13,0a.75.75,0,0,1-.53-.22.78.78,0,0,1-.21-.54l.09-7.79a.72.72,0,0,1,.76-.74l4.13,0a.75.75,0,0,1,.53.22.83.83,0,0,1,.21.54l-.09,7.79A.75.75,0,0,1,84.35,87.82ZM81,86.28l2.62,0L83.68,80l-2.62,0Z"/><path class="cls-4" d="M55.13,53.37a.74.74,0,0,1-.66-.41L47.78,39.84,41,53a.75.75,0,0,1-1.34-.69l7.42-14.41a.76.76,0,0,1,.67-.41h0a.76.76,0,0,1,.67.41L55.8,52.28a.74.74,0,0,1-.33,1A.67.67,0,0,1,55.13,53.37Z"/><path class="cls-7" d="M44.08,95.93a42.22,42.22,0,0,0,7.36.08,5.78,5.78,0,0,0,5.28-5.75V56.58a5.76,5.76,0,0,0-5.28-5.74,45.72,45.72,0,0,0-7.3-.06,5.73,5.73,0,0,0-5.28,5.74V90.18A5.78,5.78,0,0,0,44.08,95.93Z"/><path class="cls-5" d="M48.3,96.88q-2.1,0-4.29-.21h0a6.49,6.49,0,0,1-5.9-6.49V56.52a6.5,6.5,0,0,1,6-6.49,46.13,46.13,0,0,1,7.42.06,6.55,6.55,0,0,1,6,6.49V90.26a6.53,6.53,0,0,1-6,6.49C50.46,96.84,49.39,96.88,48.3,96.88Zm-4.15-1.7a40.82,40.82,0,0,0,7.23.08,5,5,0,0,0,4.59-5V56.58a5,5,0,0,0-4.59-5,48.15,48.15,0,0,0-7.19-.06,5,5,0,0,0-4.58,5V90.18a5,5,0,0,0,4.54,5Z"/><path class="cls-5" d="M38.86,56.52V90.18a5.77,5.77,0,0,0,5.22,5.74,41.27,41.27,0,0,0,7.36.09,5.6,5.6,0,0,0,1.43-.31,41.85,41.85,0,0,1-5.1-.19,5.78,5.78,0,0,1-5.22-5.75V56.1a5.79,5.79,0,0,1,3.78-5.43c-.74,0-1.47,0-2.19.1A5.75,5.75,0,0,0,38.86,56.52Z"/><path class="cls-4" d="M48.3,96.88q-2.1,0-4.29-.21h0a6.49,6.49,0,0,1-5.9-6.49V56.52a6.5,6.5,0,0,1,6-6.49,46.13,46.13,0,0,1,7.42.06,6.55,6.55,0,0,1,6,6.49V90.26a6.53,6.53,0,0,1-6,6.49C50.46,96.84,49.39,96.88,48.3,96.88Zm-4.15-1.7a40.82,40.82,0,0,0,7.23.08,5,5,0,0,0,4.59-5V56.58a5,5,0,0,0-4.59-5,48.15,48.15,0,0,0-7.19-.06,5,5,0,0,0-4.58,5V90.18a5,5,0,0,0,4.54,5Z"/><path class="cls-4" d="M47.79,51.42a.74.74,0,0,1-.75-.75V34.09a.75.75,0,0,1,1.5,0V50.67A.75.75,0,0,1,47.79,51.42Z"/><path class="cls-4" d="M146.14,156H138a1,1,0,1,1,0-2h8.12a1,1,0,0,1,0,2Z"/><path class="cls-4" d="M133.29,156H38.86a1,1,0,0,1,0-2h94.43a1,1,0,0,1,0,2Z"/></svg>