<?xml version="1.0" ?><svg data-name="Layer 1" id="Layer_1" viewBox="0 0 185 185" xmlns="http://www.w3.org/2000/svg"><defs><style>.cls-1{fill:#d9e2e9;}.cls-2{fill:#e8c79c;}.cls-3{fill:#00063c;}.cls-4{fill:#84879c;}.cls-5{fill:#8fb6f8;}.cls-6{fill:#e51b3a;}.cls-7{fill:#d0aa79;}.cls-8{fill:#2f3a5a;}.cls-9{fill:#39476b;}.cls-10{fill:#6c95f8;}.cls-11{fill:#566ef5;}.cls-12{fill:#fc3133;}</style></defs><title/><circle class="cls-1" cx="92.5" cy="92.5" r="90"/><path class="cls-2" d="M117.91,55.92l-22,4.41s-.53,30.08-.13,31.6L100,134.86l9.75-.62s9.32-23.2,2.5-40C112.25,94.26,111.92,81.46,117.91,55.92Z"/><path class="cls-3" d="M100,135.61a.76.76,0,0,1-.75-.68L95,92c-.38-2.24,0-26.77.12-31.73a.76.76,0,0,1,.61-.72l22-4.41a.74.74,0,0,1,.68.21.79.79,0,0,1,.2.7c-5.57,23.78-5.65,36.6-5.64,38,6.76,16.85-2.17,39.45-2.55,40.41a.75.75,0,0,1-.65.47l-9.75.62ZM96.61,60.94c-.21,11.94-.41,29.56-.14,30.81a.43.43,0,0,1,0,.11l4.18,42.21,8.55-.55c1.22-3.26,8.46-23.93,2.33-39a.75.75,0,0,1,0-.26c0-.13-.25-12.8,5.41-37.4Z"/><path class="cls-4" d="M80.75,145.59l-.14-3.81c0,.18.58,1.47,13.64.63l10.4-1.12a.81.81,0,0,0,.63-.44l1-2h0l6.61-.57,0,.31a18.44,18.44,0,0,1-.47,6.15c-.07.21-10.46,2.05-24.48,2.33,0,0-6.46.4-7.21-1.46Z"/><path class="cls-3" d="M86.34,147.85c-2.25,0-5.61-.3-6.29-2a.7.7,0,0,1,0-.25l-.14-3.81a.75.75,0,0,1,1.4-.4c.36.2,2.46.92,12.95.25l10.36-1.12,1-2a.79.79,0,0,1,.61-.42l6.62-.56a.74.74,0,0,1,.81.66l0,.31a19,19,0,0,1-.5,6.47c-.14.41-.25.76-7.63,1.64-3.88.47-10.07,1.05-17.55,1.2C87.6,147.82,87,147.85,86.34,147.85Zm-4.85-2.45c.52.73,3.73,1.07,6.42.9a148.74,148.74,0,0,0,23.91-2.17,18.87,18.87,0,0,0,.38-5.06l-5.45.47-.8,1.63a1.54,1.54,0,0,1-1.22.86l-10.39,1.13c-7.66.49-11.24.28-12.93-.12Z"/><path class="cls-5" d="M80.6,141.76s-.15-.86,1.07-1.6a4.85,4.85,0,0,1,1-.51c.25-.08.54-.19.86-.31a3.25,3.25,0,0,0,.4-.15l.07,0,.28-.11.3-.12.2-.08.26-.1.36-.14.71-.29.28-.12.81-.34.17-.07.15-.06.15-.07.1,0,.14,0,.32-.14.06,0s9-6.14,9.85-6.35a5.81,5.81,0,0,1,2.53.93l.34.17c.74.37,4.27,2.61,7.42.09a3.93,3.93,0,0,0,1.09-1.43.87.87,0,0,1,.93-.62c.48.07,1.09,1.81,1.58,3.79a.94.94,0,0,1,0,.16c.05.19.09.38.14.57s0,.16.05.24c.06.26.11.51.16.77a1.36,1.36,0,0,1,.06.29,1.29,1.29,0,0,1,0,.19q.11.51.18,1c.07.38.12.74.16,1.05l-6,.52a1,1,0,0,0-.83.57l-.68,1.39a1,1,0,0,1-.81.56L94.24,142.4c-13,.84-13.62-.45-13.64-.62Z"/><path class="cls-3" d="M86.74,143.44c-6.72,0-6.83-1-6.89-1.58v-.07a2.47,2.47,0,0,1,1.43-2.27,5.12,5.12,0,0,1,1.15-.58l.84-.3,3.64-1.46.17-.07.77-.32c2.75-1.86,9.19-6.24,10.12-6.46.69-.16,1.57.25,2.94.94l.67.34c1.66.89,4.12,1.87,6.39,0a3.24,3.24,0,0,0,.87-1.15,1.59,1.59,0,0,1,1.72-1c.56.08,1.23.5,2.2,4.35l0,.17c0,.19.09.38.14.58l0,.24c.06.26.12.52.17.78,0,.09,0,.2.06.31l0,.17q.1.52.18,1c.07.38.12.75.16,1.08a.73.73,0,0,1-.16.57.74.74,0,0,1-.52.27l-6,.52a.29.29,0,0,0-.22.15l-.67,1.39a1.78,1.78,0,0,1-1.41,1l-10.26,1.11C91.15,143.35,88.67,143.44,86.74,143.44Zm-5.34-2c.67.25,3.27.79,12.8.18l10.23-1.1a.29.29,0,0,0,.22-.15l.67-1.39a1.77,1.77,0,0,1,1.44-1l5.24-.45a1.87,1.87,0,0,0,0-.25c0-.32-.11-.65-.17-1l0-.1,0-.1-.06-.26c0-.26-.1-.51-.16-.76l0-.22c0-.2-.09-.39-.14-.57l0-.15a13.8,13.8,0,0,0-1.06-3.16l0,.1a4.49,4.49,0,0,1-1.3,1.7c-2.19,1.76-4.89,1.79-8,.11l-.63-.33a9.15,9.15,0,0,0-1.95-.82c-.65.24-6,3.79-9.58,6.24l-.14.08-.42-.64.29.69-.25.11-.42-.64.29.7-.39-.66.26.71-.28.12-.45-.63.29.69-2.16.89-.1,0-1.44.56-.88.31a3.78,3.78,0,0,0-.78.4A1.77,1.77,0,0,0,81.4,141.47Z"/><path class="cls-3" d="M80.6,142.53a.75.75,0,0,1-.75-.69,1,1,0,0,1,0-.24.75.75,0,1,1,.79.92Z"/><path class="cls-2" d="M90.08,138.15c-2.24-2.76-4-7.86-4-7.86,3.07-8.15-1.33-21.93-2.71-25.18-.82-28.44-.46-20.82-4.47-27.95H62.38c3.67,11.13,10.13,27.62,10.13,27.62,1.25,8.49,7.3,24.79,7.3,24.79s-4.61,14.11-2.1,16.37c1.57,1.4,4.38,1.22,6.27.88A1.34,1.34,0,0,0,85,145c-.92-2.56-.57-7.64-.57-7.64.63.71,2.1,2.1,3.17,3.08a1.71,1.71,0,0,0,2.5-2.32Z"/><path class="cls-3" d="M81.47,147.81a6.34,6.34,0,0,1-4.26-1.31c-2.58-2.32.62-13.23,1.8-16.91-.78-2.14-6-16.6-7.23-24.62-.49-1.26-6.61-17-10.11-27.58a.77.77,0,0,1,.11-.67.72.72,0,0,1,.6-.31H78.86a.76.76,0,0,1,.66.38,22.39,22.39,0,0,0,1.92,2.9c2,2.61,2,2.61,2.55,22.39l.08,2.86c1.44,3.47,5.74,17,2.77,25.35a31.23,31.23,0,0,0,3.82,7.39A2.46,2.46,0,0,1,87.07,141c-.62-.57-1.34-1.24-2-1.86a18.53,18.53,0,0,0,.59,5.61,2.16,2.16,0,0,1-.16,1.79,2,2,0,0,1-1.42,1A14.58,14.58,0,0,1,81.47,147.81Zm-18-69.9c3.67,11,9.73,26.43,9.79,26.59a.47.47,0,0,1,0,.17c1.23,8.31,7.2,24.48,7.26,24.64a.75.75,0,0,1,0,.26.85.85,0,0,1,0,.23c-2.18,6.72-3.63,14.39-2.31,15.58s4.13,1,5.64.7a.54.54,0,0,0,.38-.27.61.61,0,0,0,0-.53c-1-2.67-.62-7.73-.6-7.94a.75.75,0,0,1,1.31-.45c.46.53,1.57,1.61,3.11,3a.94.94,0,0,0,1.33,0,1,1,0,0,0,.08-1.28h0c-2.29-2.82-4.09-7.87-4.16-8.08a.74.74,0,0,1,0-.51c3-8-1.45-21.66-2.7-24.63a.66.66,0,0,1-.06-.27l-.09-3c-.55-19.3-.55-19.3-2.24-21.52a23.45,23.45,0,0,1-1.82-2.69Z"/><path class="cls-6" d="M84,45.36C88.85,52.61,93.41,62.17,94,73.29c0,.22,22.68-.89,22.68-.89s4.28-13.53,1.14-27Z"/><path class="cls-3" d="M95.48,74c-2.15,0-2.16-.21-2.19-.7-.53-9.29-3.88-18.56-10-27.56a.74.74,0,0,1,0-.77.75.75,0,0,1,.66-.4h33.9a.75.75,0,0,1,.73.58c3.15,13.55-1,26.88-1.15,27.44a.75.75,0,0,1-.68.52s-5.67.28-11.34.53C100.12,73.91,97.15,74,95.48,74ZM85.35,46.11c5.6,8.64,8.76,17.53,9.4,26.46,2.7,0,13.67-.52,21.4-.89.7-2.51,3.61-14.05,1.11-25.57Z"/><path class="cls-2" d="M120.79,60.82,100.32,62s-1.07,30.23-.7,31.76l4.9,42.77,9.57-.61s6.18-24.68,0-41.5C114.13,94.45,115.72,86.31,120.79,60.82Z"/><path class="cls-7" d="M114.13,94.45c6.14,16.82,0,41.5,0,41.5l-9.56.61,0-.42,3-.19s6.18-24.68,0-41.5c0,0,1.56-8,6.58-33.23l6.67-.4C115.72,86.32,114.13,94.45,114.13,94.45Z"/><path class="cls-3" d="M104.52,137.31a.75.75,0,0,1-.74-.67l-4.9-42.76c-.36-1.46.52-26.81.7-31.88a.74.74,0,0,1,.7-.72l20.47-1.21a.76.76,0,0,1,.78.9c-4.62,23.2-6.35,32-6.62,33.42,6,16.84.16,40.73-.1,41.74a.73.73,0,0,1-.67.57l-9.57.61Zm-3.47-74.57c-.42,12-.94,29.64-.7,30.88l4.84,42.15,8.29-.53c.84-3.67,5.44-25.47,0-40.54a.76.76,0,0,1,0-.4s1.55-7.93,6.48-32.67Z"/><path class="cls-8" d="M85.46,147.28l-.14-3.81c0,.18.59,1.47,13.65.63L109.36,143a.8.8,0,0,0,.63-.45l1-2h0l6.61-.57,0,.31a18.44,18.44,0,0,1-.47,6.15c-.07.21-10.46,2.05-24.48,2.32,0,0-6.46.4-7.21-1.45Z"/><path class="cls-3" d="M91.05,149.53c-2.25,0-5.61-.29-6.29-2a.74.74,0,0,1-.05-.25l-.14-3.81a.76.76,0,0,1,.7-.78.75.75,0,0,1,.7.38c.36.19,2.47.92,13,.25l10.36-1.12,1-2a.75.75,0,0,1,.61-.42l6.62-.57a.74.74,0,0,1,.81.67l0,.31a18.73,18.73,0,0,1-.5,6.47c-.14.41-.25.76-7.63,1.64-3.88.46-10.06,1-17.55,1.19C92.31,149.51,91.73,149.53,91.05,149.53Zm-4.85-2.44c.52.73,3.72,1.07,6.42.89a149.15,149.15,0,0,0,23.91-2.16,18.46,18.46,0,0,0,.38-5.06l-5.45.47-.8,1.63a1.54,1.54,0,0,1-1.22.86l-10.39,1.12c-7.66.5-11.24.29-12.93-.11Z"/><path class="cls-5" d="M85.31,143.45s-.14-.86,1.07-1.6a4.85,4.85,0,0,1,1-.51c.25-.08.54-.19.86-.31l.4-.15.07,0,.28-.1.31-.12.19-.08.26-.11.36-.14.71-.29.28-.12c.3-.11.57-.23.81-.33l.17-.07.15-.06.15-.07.1,0,.14-.06.32-.13.06,0s9-6.14,9.85-6.35a5.68,5.68,0,0,1,2.53.93l.34.17c.74.37,4.27,2.61,7.43.09a4,4,0,0,0,1.08-1.43.87.87,0,0,1,.93-.62c.48.07,1.09,1.81,1.58,3.79a.94.94,0,0,1,0,.16c0,.19.09.38.14.57a2,2,0,0,1,0,.24c.06.25.12.51.17.76,0,.1,0,.2,0,.3a1.16,1.16,0,0,1,0,.18c.07.34.13.68.18,1s.12.74.16,1.06l-6,.52a1,1,0,0,0-.83.57l-.68,1.38a1,1,0,0,1-.81.57L99,144.09c-13.06.84-13.63-.45-13.65-.63Z"/><path class="cls-3" d="M91.45,145.12c-6.71,0-6.83-1-6.89-1.57v-.07A2.46,2.46,0,0,1,86,141.21a5.12,5.12,0,0,1,1.15-.58l.84-.3,3.64-1.46.17-.07.38-.16.38.65-.28-.69.28-.12.1,0c2.66-1.83,9.11-6.2,10-6.42.69-.17,1.56.25,2.94.94l.67.34c1.66.89,4.12,1.86,6.39,0a3.24,3.24,0,0,0,.87-1.15,1.61,1.61,0,0,1,1.72-1.06c.56.09,1.24.51,2.2,4.35l0,.18c0,.18.09.38.14.57l0,.25c.06.26.12.52.17.78,0,.09,0,.2.06.31l0,.17c.07.35.13.69.18,1s.12.76.16,1.09a.74.74,0,0,1-.16.57.78.78,0,0,1-.52.27l-6,.52a.27.27,0,0,0-.22.15l-.67,1.38a1.78,1.78,0,0,1-1.41,1L99,144.84C95.86,145,93.38,145.12,91.45,145.12Zm-5.34-2c.67.25,3.27.79,12.8.18l10.23-1.11a.27.27,0,0,0,.22-.14l.67-1.39a1.8,1.8,0,0,1,1.44-1l5.24-.45c0-.08,0-.16,0-.25,0-.31-.11-.64-.17-1l0-.1,0-.1-.06-.26c-.05-.27-.1-.52-.16-.76l0-.23c0-.2-.09-.38-.13-.56l0-.15a13.8,13.8,0,0,0-1.06-3.16.93.93,0,0,1,0,.1,4.57,4.57,0,0,1-1.3,1.7c-2.19,1.75-4.89,1.79-8,.1l-.64-.32a8.4,8.4,0,0,0-1.93-.82h0c-.65.23-6,3.79-9.58,6.24l-.14.08-.38.16-.13,0-.39-.65.26.71-.28.11-.16.07-3.7,1.49c-.32.12-.62.23-.88.31a3.35,3.35,0,0,0-.78.4A1.77,1.77,0,0,0,86.11,143.16Z"/><path class="cls-3" d="M85.31,144.21a.74.74,0,0,1-.74-.65.7.7,0,0,1,0-.32.75.75,0,0,1,1.47.24.75.75,0,0,1-.66.73Z"/><path class="cls-2" d="M62.06,102.63l5.53-2.78L68.34,98a40.92,40.92,0,0,0,4.45-1.2c1.8-.65,1.21-1.71.33-3.08,0,0,1.42-1.29.87-2.38,0,0,2.43.59,1.6-1.84,0,0,0-1,1.55-1.29s1.42-2.85-.44-4.76a30.68,30.68,0,0,0-3.11-2.84l6.73-5.66L65.07,63.88s-5,10.72-6.2,12.33a10.72,10.72,0,0,1-3.75,3.57c-2.87,1.24-6,3-7.39,5.39s-3.85,3.94-2.83,8.54,10.72,10.53,11.94,12.44S62.06,102.63,62.06,102.63Z"/><path class="cls-3" d="M57.55,107.31h-.06a1.55,1.55,0,0,1-1.28-.75A22.62,22.62,0,0,0,53,103.7c-3.41-2.74-8.08-6.5-8.81-9.83-.85-3.84.59-5.8,1.86-7.52a16.9,16.9,0,0,0,1-1.55c1.56-2.78,5.16-4.59,7.74-5.71a9.86,9.86,0,0,0,3.44-3.32c.92-1.27,4.74-9.25,6.13-12.21a.75.75,0,0,1,1.12-.29L80.76,74.33a.75.75,0,0,1,0,1.18l-6,5.08c.56.48,1.42,1.25,2.47,2.33a5,5,0,0,1,1.6,4.58,2,2,0,0,1-1.54,1.43c-.65.14-.86.39-.92.53a2.11,2.11,0,0,1-.28,2.11,1.86,1.86,0,0,1-1.24.56,3.43,3.43,0,0,1-.79,1.67,2.87,2.87,0,0,1,.56,2.35A2.31,2.31,0,0,1,73,97.5a40.23,40.23,0,0,1-4.15,1.14l-.6,1.49a.76.76,0,0,1-.36.39l-5.37,2.7C61.71,104.35,59.32,107.31,57.55,107.31ZM65.36,65c-1.21,2.57-4.87,10.24-5.88,11.64a11,11,0,0,1-4.06,3.81c-2.38,1-5.69,2.69-7,5.08a14.87,14.87,0,0,1-1.15,1.7c-1.23,1.68-2.3,3.13-1.6,6.31.62,2.81,5.24,6.53,8.29,9a19.48,19.48,0,0,1,3.55,3.21c.51.23,2.36-1.36,4-3.57a.78.78,0,0,1,.26-.22L67,99.31l.64-1.6a.75.75,0,0,1,.55-.46,39.46,39.46,0,0,0,4.34-1.16c.45-.16.64-.33.67-.42.1-.29-.43-1.11-.72-1.55a.76.76,0,0,1,.13-1c.31-.29.93-1.07.71-1.49a.75.75,0,0,1,.08-.8.78.78,0,0,1,.77-.27,1.2,1.2,0,0,0,.81,0s.09-.27-.1-.82a.84.84,0,0,1,0-.27c0-.58.49-1.67,2.15-2a.5.5,0,0,0,.4-.4A3.58,3.58,0,0,0,76.16,84a31.57,31.57,0,0,0-3-2.77.72.72,0,0,1-.3-.58.76.76,0,0,1,.26-.6l6-5Z"/><path class="cls-9" d="M62.06,102.63s-2.06-.22-3.72-3.54-1.05-5.73.94-7.36A24.63,24.63,0,0,0,62,89.22l-1.15-1.46s-3.26,2.2-4.81.66-.7-3.72,1.43-5.91S61,79.13,59.56,77a4.48,4.48,0,0,0-.69-.82,10.72,10.72,0,0,1-3.75,3.57c-2.87,1.24-6,3-7.39,5.39s-3.85,3.94-2.83,8.54,10.72,10.53,11.94,12.44S62.06,102.63,62.06,102.63Z"/><path class="cls-8" d="M59.39,105.58c-1,.87-2,1.39-2.55.58-1.22-1.92-10.93-7.85-11.94-12.45s1.47-6.11,2.83-8.55,4.52-4.13,7.39-5.38a11,11,0,0,0,3.75-3.56,4.48,4.48,0,0,1,.69.81,2.4,2.4,0,0,1,.35,2.58,5,5,0,0,1-1.16.72c-2.87,1.24-6,3-7.39,5.39s-3.85,3.94-2.83,8.54C49.39,98.17,56.51,103,59.39,105.58Z"/><path class="cls-3" d="M57.55,107.31h-.06a1.55,1.55,0,0,1-1.28-.75A22.62,22.62,0,0,0,53,103.7c-3.41-2.74-8.08-6.5-8.81-9.83-.85-3.84.59-5.8,1.86-7.52a16.9,16.9,0,0,0,1-1.55c1.56-2.78,5.16-4.59,7.74-5.71a9.86,9.86,0,0,0,3.44-3.32.78.78,0,0,1,.54-.3.75.75,0,0,1,.59.2,6.24,6.24,0,0,1,.8.94c1.67,2.5.13,4.08-1.81,6.07L58,83c-1.42,1.46-2.82,3.48-1.44,4.86.9.89,3.14-.27,3.86-.75a.74.74,0,0,1,1,.16l1.16,1.46a.75.75,0,0,1,0,.95,27.19,27.19,0,0,1-2.85,2.6c-1.87,1.53-2.12,3.7-.74,6.45s3.07,3.11,3.14,3.12a.76.76,0,0,1,.59.46.71.71,0,0,1-.08.73C61.93,104.07,59.4,107.31,57.55,107.31ZM58.91,77.4a9.76,9.76,0,0,1-3.49,3.06c-2.38,1-5.69,2.69-7,5.08a14.87,14.87,0,0,1-1.15,1.7c-1.23,1.68-2.3,3.13-1.6,6.31.62,2.81,5.24,6.53,8.29,9a19.48,19.48,0,0,1,3.55,3.21c.44.21,1.92-1,3.37-2.77a7.67,7.67,0,0,1-3.17-3.55c-2.17-4.3-.58-6.88,1.13-8.28,1.11-.91,1.83-1.58,2.23-2l-.33-.42c-1.16.64-3.63,1.72-5.16.2-1-1-2.17-3.26,1.42-7l.34-.35c2.05-2.09,2.59-2.76,1.64-4.18Z"/><path class="cls-10" d="M78,76c4.06.54,9.27-.16,15.94-4.9a30.28,30.28,0,0,0,6.73-6.55,92.42,92.42,0,0,0,10.72-19l2.67-.85L92.9,28c-.3.28-.59.56-.86.85-2.5,1.83-14,11.67-21.21,21.43-4.34,5.2-9.17,12.66-8.29,17.93Z"/><path class="cls-11" d="M106,38.34l-1.57.5a91.6,91.6,0,0,1-10.71,19A30.1,30.1,0,0,1,87,64.36c-6.68,4.73-11.88,5.44-16,4.9l-1.62-.81a4.83,4.83,0,0,1-1.51,2.46L78,76c4.07.53,9.28-.16,16-4.89a30.72,30.72,0,0,0,6.72-6.56,91.86,91.86,0,0,0,10.72-19l2.66-.85Z"/><path class="cls-3" d="M80.28,76.85a19,19,0,0,1-2.38-.15.75.75,0,0,1-.24-.08L62.21,68.88a.76.76,0,0,1-.4-.55c-1-6.07,4.85-14.22,8.45-18.53,7.15-9.68,18.67-19.59,21.28-21.51.27-.29.56-.57.85-.84a.74.74,0,0,1,1,0l21.16,16.68a.74.74,0,0,1,.27.72.72.72,0,0,1-.51.58l-2.33.75A94.41,94.41,0,0,1,101.27,65a31.6,31.6,0,0,1-6.89,6.72C89.48,75.14,84.84,76.85,80.28,76.85Zm-2.06-1.62c4.9.6,9.9-1,15.29-4.79a29.68,29.68,0,0,0,6.56-6.39,91.93,91.93,0,0,0,10.62-18.8.72.72,0,0,1,.47-.43l1.32-.43L93,29a4,4,0,0,0-.35.36.58.58,0,0,1-.12.1c-2.44,1.78-13.91,11.61-21,21.26C68.71,54,62.6,62,63.23,67.71Z"/><path class="cls-12" d="M119.32,74.2s8.1-27.5,5.12-38.2c-2.11-7.59-8.45-13-20.67-12.06a23.19,23.19,0,0,0-14.62,6.43c-.35,0,8.15,17,9.61,42.45C98.77,73,119.32,74.2,119.32,74.2Z"/><path class="cls-6" d="M119.32,74.2l-6.64-.38c2-7.7,6.51-26.39,4.18-34.78-2.1-7.59-8.45-13-20.66-12.07a24.94,24.94,0,0,0-3.25.45,23.14,23.14,0,0,1,10.82-3.48C116,23,122.33,28.41,124.44,36,127.42,46.7,119.32,74.2,119.32,74.2Z"/><path class="cls-3" d="M119.32,75h0C98.06,73.74,98.06,73.74,98,72.86A130.84,130.84,0,0,0,89,32c-.64-1.62-.68-1.72-.43-2.09a.57.57,0,0,1,.15-.16,24,24,0,0,1,15-6.6c11.34-.85,19,3.63,21.46,12.61,3,10.79-4.8,37.48-5.13,38.61A.75.75,0,0,1,119.32,75ZM99.47,72.17c2.41.24,12.29.84,19.3,1.25,1.12-4,7.6-27.68,5-37.22-2.28-8.22-9.35-12.31-19.89-11.51A22.59,22.59,0,0,0,90,30.6c.09.24.21.56.34.89A132.09,132.09,0,0,1,99.47,72.17Z"/><path class="cls-2" d="M89.61,146.8a1.33,1.33,0,0,1-1,1.79,11.5,11.5,0,0,1-4.27.07,1.34,1.34,0,0,0,.36-1.48c-.92-2.55-.57-7.63-.57-7.63.63.7,2.11,2.09,3.17,3.08A1.69,1.69,0,0,0,89,143,13.9,13.9,0,0,0,89.61,146.8Z"/><path class="cls-7" d="M94.58,142.21a1.72,1.72,0,0,1-2.37,0c-1.06-1-2.54-2.38-3.17-3.08a.62.62,0,0,1,0,.09,37.49,37.49,0,0,1-3.27-6.82c3.07-8.14-1.33-21.93-2.72-25.18-.92-32.49-.31-17.91-6.46-32.05l-7.53-3.43a23,23,0,0,1,.17-2.54l12.28,5.6C87.64,89,87,74.39,88,106.88c1.38,3.25,5.79,17,2.72,25.19,0,0,1.81,5.1,4,7.85A1.72,1.72,0,0,1,94.58,142.21Z"/><path class="cls-2" d="M88.85,143.46c-.19.2.4-.54.16-.47a1.69,1.69,0,0,1-1.71-.36c-1.06-1-2.54-2.38-3.17-3.08,0,0-.35,5.08.57,7.63a1.34,1.34,0,0,1-.36,1.48,4.25,4.25,0,0,1-2-.95c-2.51-2.25,2.08-16.37,2.08-16.37s-6-16.3-7.29-24.79c0,0-8.42-21.15-8.09-34.77l7.53,3.43c6.15,14.14,5.54-.44,6.46,32.05,1.39,3.25,5.79,17,2.72,25.18A37.49,37.49,0,0,0,89,139.26c.25.37-.52.78-.26,1.09C89.32,141,89.47,142.85,88.85,143.46Z"/><path class="cls-3" d="M86.09,149.58a9.37,9.37,0,0,1-1.91-.18,5,5,0,0,1-2.33-1.13c-2.65-2.38.85-14,1.79-16.91-.79-2.14-6-16.59-7.23-24.61-.65-1.66-8.43-21.66-8.12-35,0-.89.09-1.77.19-2.61a.75.75,0,0,1,.38-.56.72.72,0,0,1,.67,0l12.28,5.59a.74.74,0,0,1,.37.39,29,29,0,0,0,3.89,6.92c2,2.61,2,2.61,2.55,22.36l.08,2.9c1.43,3.47,5.73,16.94,2.77,25.35a31,31,0,0,0,3.82,7.38,2.44,2.44,0,0,1-.18,3.29h0a2.46,2.46,0,0,1-3.41.06c-.43-.4-1.24-1.15-2-1.87,0,.71,0,1.38,0,2a12.91,12.91,0,0,0,.56,3.6,2.12,2.12,0,0,1-.16,1.79,2.06,2.06,0,0,1-1.43,1A14.2,14.2,0,0,1,86.09,149.58ZM69.87,70.36c0,.47-.06,1-.08,1.44-.31,13.31,8,34.27,8,34.48a.94.94,0,0,1,0,.16c1.23,8.32,7.19,24.48,7.25,24.64a.78.78,0,0,1,0,.5c-1.85,5.67-3.78,14.25-2.3,15.57a3.48,3.48,0,0,0,1.66.78,10.63,10.63,0,0,0,4-.08.51.51,0,0,0,.39-.27.56.56,0,0,0,0-.52,15.22,15.22,0,0,1-.63-4,36.37,36.37,0,0,1,0-3.76.49.49,0,0,0,0-.12.68.68,0,0,1,.45-.71.78.78,0,0,1,.86.24c.71.79,2.57,2.52,3.12,3a1,1,0,0,0,1.33,0h0a.94.94,0,0,0,.08-1.27c-2.29-2.83-4.09-7.87-4.17-8.08a.84.84,0,0,1,0-.52c3-7.94-1.45-21.66-2.71-24.63a1.18,1.18,0,0,1-.06-.27l-.08-3c-.55-19.27-.55-19.27-2.24-21.49a30,30,0,0,1-4-7Z"/><polyline class="cls-10" points="66.15 67.51 69.52 87.24 88.16 85.72 88.16 67.84"/><polygon class="cls-11" points="88.16 67.84 88.16 85.72 69.52 87.24 68.89 83.56 81.28 82.55 81.28 67.74 88.16 67.84"/><path class="cls-3" d="M69.52,88a.76.76,0,0,1-.74-.63L65.41,67.64a.75.75,0,1,1,1.48-.25l3.26,19L87.41,85V67.84a.75.75,0,0,1,1.5,0V85.72a.74.74,0,0,1-.69.75L69.58,88Z"/><path class="cls-3" d="M146.31,150.17H57.71a1,1,0,0,1,0-2h88.6a1,1,0,0,1,0,2Z"/><path class="cls-3" d="M54.48,150.17H52.87a1,1,0,0,1,0-2h1.61a1,1,0,0,1,0,2Z"/><path class="cls-3" d="M49.07,150.17H38.69a1,1,0,0,1,0-2H49.07a1,1,0,0,1,0,2Z"/></svg>