<?xml version="1.0" encoding="UTF-8"?>
<!-- Generated by Pixelmator Pro 3.5.3 -->
<svg width="85" height="85" viewBox="0 0 85 85" xmlns="http://www.w3.org/2000/svg">
    <g id="layer1">
        <g id="g508406">
            <g id="g398306">
                <path id="path1781" fill="#46a9e7" stroke="none" d="M 29.122807 3.431343 C 15.077825 3.431412 3.666609 14.84256 3.666664 28.887486 C 3.666609 42.932415 15.077825 54.343628 29.122807 54.343628 C 43.167755 54.343628 54.579021 42.932415 54.578953 28.887486 C 54.579021 14.842484 43.167755 3.431343 29.122807 3.431343 Z"/>
                <path id="path82989" fill="#2276bc" stroke="none" d="M 29.123241 3.431923 C 21.457418 3.431923 14.575653 6.829628 9.906248 12.201309 C 14.37886 8.305435 20.222231 5.944496 26.610701 5.944496 C 40.655666 5.944496 52.067406 17.356079 52.067333 31.401077 C 52.067352 37.785255 49.708931 43.624313 45.817879 48.095657 C 51.183586 43.426525 54.57991 36.549397 54.579876 28.8885 C 54.579929 14.843575 43.168205 3.431923 29.123241 3.431923 Z"/>
                <path id="path88309" fill="#2276bc" stroke="none" d="M 47.97456 36.269737 L 46.806625 35.099377 L 35.382515 46.514648 L 36.550449 47.685154 C 37.858994 48.987232 39.223377 50.393349 40.540016 51.636452 C 45.449596 49.164303 49.453419 45.150555 51.910244 40.231903 C 50.643394 38.87027 49.292397 37.583118 47.97456 36.269737 Z"/>
                <path id="path1925" fill="#ffffff" stroke="none" d="M 29.13208 10.989357 C 39.005356 10.989357 46.983875 18.96788 46.983841 28.841118 C 46.983875 38.714355 39.005356 46.692875 29.13208 46.692875 C 19.258823 46.692875 11.280287 38.714355 11.280323 28.841118 C 11.280287 18.96788 19.258823 10.989357 29.13208 10.989357 Z"/>
                <path id="path1793" fill="#ececec" stroke="none" d="M 48.959126 45.069988 L 45.351677 48.668159 C 45.11491 48.903915 44.981819 49.224289 44.981819 49.55843 C 44.981819 49.89257 45.11491 50.212948 45.351677 50.4487 L 64.269905 69.357651 C 64.759926 69.844666 65.551155 69.844666 66.041168 69.357651 L 69.648621 65.759483 C 69.885384 65.523727 70.018478 65.203354 70.018478 64.869209 C 70.018478 64.535072 69.885384 64.214691 69.648621 63.978943 L 50.730389 45.069988 C 50.240372 44.582977 49.449142 44.582977 48.959126 45.069988 Z"/>
                <path id="path1799" fill="#ececec" stroke="none" d="M 49.988136 41.620773 L 46.305199 37.937691 L 45.135777 36.767181 C 43.402023 40.267258 40.554108 43.11441 37.053455 44.84713 L 38.22139 46.01503 L 41.911682 49.707825 C 42.074062 49.872139 42.361565 50.005447 42.581394 50.052544 L 45.972343 50.78371 C 46.39085 50.877605 46.828415 50.750381 47.132923 50.44986 L 50.729973 46.842991 C 51.032238 46.542469 51.161579 46.10936 51.07346 45.692337 L 50.329849 42.245152 C 50.271343 41.983894 50.134468 41.776398 49.988136 41.620773 Z"/>
                <path id="path1805" fill="#46a9e7" stroke="none" d="M 67.86808 63.978943 L 64.269905 67.586388 C 63.29237 68.563889 63.292389 70.179237 64.269905 71.156738 L 73.274612 80.170715 C 74.749535 81.64566 77.178345 81.64566 78.65332 80.170715 L 80.452408 78.362358 C 81.927391 76.887413 81.927391 74.458588 80.452408 72.98365 L 71.447701 63.978943 C 70.470169 63.001442 68.845558 63.001442 67.86808 63.978943 Z"/>
                <path id="path1847" fill="#cccccc" stroke="none" d="M 56.025639 10.609138 C 53.265282 10.609138 50.999325 12.875023 50.999325 15.635452 C 50.999325 18.395882 53.265282 20.652496 56.025639 20.652496 L 59.800011 20.652496 C 60.490425 20.650032 61.049507 20.090927 61.051952 19.400551 L 61.051952 11.861084 C 61.049507 11.170631 60.490425 10.611603 59.800011 10.609138 Z"/>
                <path id="path1853" fill="#ececec" stroke="none" d="M 59.299232 20.652496 L 75.82486 27.635544 C 76.934799 28.111542 78.235649 27.858692 79.08918 27.004936 L 80.786263 25.317135 C 81.960152 24.143223 81.960098 22.19735 80.786263 21.023438 L 79.163376 19.400551 L 80.786263 17.777664 C 81.960136 16.603752 81.960136 14.657883 80.786263 13.483971 L 79.163376 11.861084 L 80.786263 10.238197 C 81.960083 9.064285 81.960083 7.127686 80.786263 5.953773 L 79.08918 4.256699 C 78.235481 3.403015 76.934456 3.150887 75.82486 3.626091 C 70.316063 5.98703 64.808014 8.248276 59.299232 10.609138 Z"/>
            </g>
            <path id="path2066" fill="#000000" stroke="none" d="M 76.488976 12.751915 L 79.001518 15.266876 C 79.215279 15.480537 79.215279 15.784393 79.001518 15.998047 L 76.974808 18.024773 L 70.09967 16.555046 C 69.423965 16.414055 68.761101 16.844704 68.615204 17.519287 C 68.469688 18.197571 68.901329 18.865341 69.579498 19.011185 L 76.741699 20.54467 L 79.001518 22.804466 C 79.215225 23.018124 79.215187 23.32444 79.001518 23.53817 L 77.303589 25.233582 C 77.171021 25.366093 76.985191 25.400723 76.812866 25.326679 L 66.073227 20.723618 L 66.073227 9.711609 C 66.073227 8.635651 64.949944 8.278252 64.345779 8.543999 L 59.534153 10.609993 L 56.020531 10.609993 C 53.260155 10.609993 50.995449 12.877182 50.995449 15.637535 C 50.995449 18.398041 53.260155 20.652763 56.020531 20.652763 L 59.529243 20.652763 C 64.962204 22.98436 70.383659 25.305233 75.821487 27.635887 C 76.931229 28.111378 78.231224 27.859108 79.084854 27.005352 L 80.782761 25.317188 C 81.956673 24.143276 81.956619 22.19965 80.782761 21.025738 L 79.158447 19.401405 L 80.782761 17.779526 C 81.956673 16.60569 81.956673 14.659599 80.782761 13.485687 L 79.158447 11.863815 L 80.782761 10.239555 C 81.956604 9.065643 81.956604 7.129333 80.782761 5.955421 L 79.084854 4.257477 C 78.524597 3.697289 77.771599 3.395462 77.006599 3.388939 L 77.006508 3.388649 C 76.605766 3.38488 76.202812 3.463203 75.821404 3.626503 L 69.208809 6.465324 C 68.571404 6.738388 68.27597 7.476662 68.548782 8.11422 C 68.821991 8.747513 69.554703 9.042168 70.190269 8.774246 L 76.812668 5.935349 C 76.985077 5.86174 77.170822 5.897385 77.303406 6.02845 L 79.001335 7.726326 C 79.215103 7.940048 79.214989 8.24369 79.001335 8.457489 L 76.47773 10.983543 C 75.967354 11.491928 76.034546 12.197884 76.48912 12.751404 Z M 28.833982 8.49118 C 23.376299 8.642166 18.547287 10.618248 14.725496 14.440079 C 13.83222 15.333313 13.04023 16.291039 12.194553 17.52552 C 9.966652 20.950317 8.87852 24.602539 8.776601 28.375607 C 8.709276 32.155193 9.631515 35.852623 11.545562 39.126217 C 12.40589 40.597683 13.465096 41.983078 14.725496 43.243423 C 15.671806 44.18977 16.687813 45.025269 17.758213 45.746147 C 17.775782 45.760494 17.793821 45.769913 17.812243 45.779476 C 21.086834 47.96994 24.859411 49.108711 28.652458 49.194927 C 28.658634 49.195797 28.665752 49.196522 28.671928 49.197392 C 28.677145 49.196667 28.68189 49.195797 28.686655 49.194927 C 32.202976 49.268974 35.734966 48.438694 38.903652 46.701912 L 40.800331 48.601128 C 32.001293 53.812767 20.472763 52.645737 12.897394 45.070332 C 3.926288 36.099243 3.926288 21.584549 12.897394 12.613388 C 21.868519 3.642296 36.375862 3.649475 45.346931 12.622879 C 45.821644 13.097717 46.267467 13.586395 46.691536 14.090218 C 47.139896 14.620407 47.933353 14.686333 48.463074 14.237358 C 48.996346 13.792007 49.066692 12.998169 48.62009 12.465881 C 48.149834 11.907143 47.653748 11.369484 47.128265 10.844002 C 42.162647 5.878334 35.646107 3.397202 29.128294 3.397202 C 22.610481 3.397125 16.084139 5.878334 11.118484 10.844002 C 1.187195 20.775352 1.187195 36.912716 11.118484 46.843918 C 19.785553 55.511002 33.181183 56.627319 43.057663 50.15881 L 45.6021 50.705952 C 51.605949 56.713676 57.618782 62.717926 63.619244 68.713333 C 63.394466 69.55854 63.607853 70.503433 64.264557 71.159691 C 67.266212 74.166672 70.263359 77.163506 73.269447 80.171928 C 74.74437 81.646873 77.172867 81.646873 78.64785 80.171928 L 80.448822 78.363571 C 81.923798 76.888626 81.923798 74.460091 80.448822 72.985153 L 71.443916 63.980301 C 70.789253 63.325638 69.843994 63.112778 68.997627 63.334915 C 62.997459 57.327766 56.984661 51.331779 50.992767 45.339848 L 50.438232 42.770905 C 54.296646 36.875767 55.460686 29.729992 53.924866 23.085285 C 53.766945 22.408596 53.089752 21.988674 52.413425 22.147995 C 51.741505 22.30608 51.322979 22.976536 51.47612 23.649597 C 52.785549 29.31485 51.919262 35.383579 48.880169 40.518425 L 46.98851 38.625877 C 50.596447 32.040215 50.286213 23.877819 46.03405 17.495087 C 45.275768 16.374931 44.451862 15.373093 43.519081 14.440147 C 39.548298 10.469292 34.342327 8.487556 28.833982 8.49118 Z M 29.925863 11.002525 C 32.577038 11.121201 35.205826 11.830704 37.603333 13.12735 L 37.603333 16.94519 L 29.925863 16.94519 Z M 27.420694 16.94519 L 15.81245 16.94519 C 18.521132 13.551979 23.745941 11.066284 27.410858 11.066284 Z M 72.415726 11.640381 C 71.476334 11.841721 70.535698 12.040665 69.596489 12.24157 C 68.917137 12.387344 68.485115 13.056786 68.632195 13.735863 C 68.777908 14.415154 69.447441 14.847244 70.12648 14.700104 C 71.065704 14.498833 72.006653 14.297493 72.945717 14.096519 C 73.623871 13.950745 74.055573 13.282898 73.910019 12.604691 C 73.660591 11.673927 73.06012 11.526993 72.415726 11.640381 Z M 63.560505 11.611908 L 63.560505 19.645195 L 61.047966 18.568008 L 61.047966 12.693954 Z M 56.020439 13.120903 L 58.532978 13.120903 L 58.532978 18.138596 L 56.020439 18.138596 C 54.617947 18.138596 53.507896 17.038437 53.507896 15.635872 C 53.507896 14.233376 54.617947 13.120903 56.020439 13.120903 Z M 40.115871 14.774651 C 41.017609 15.473 41.714436 16.184898 42.43211 16.943741 L 40.115871 16.943741 Z M 13.928054 19.456245 L 17.228203 19.456245 L 17.228203 27.133736 L 11.346812 27.133736 C 11.602018 24.455029 12.461641 21.822403 13.928054 19.456245 Z M 19.743206 19.456245 L 27.420694 19.456245 L 27.420694 27.133736 L 19.743206 27.133736 Z M 29.925863 19.456245 L 37.603333 19.456245 L 37.603333 27.133736 L 29.925863 27.133736 Z M 40.115871 19.456245 L 44.311615 19.456245 C 45.777176 21.82262 46.636112 24.454811 46.890396 27.133736 L 40.115871 27.133736 Z M 11.28302 29.64624 L 17.228203 29.64624 L 17.228203 37.326118 L 13.415251 37.326118 C 12.115401 34.928013 11.403613 32.29821 11.28302 29.64624 Z M 19.743206 29.64624 L 27.420694 29.64624 L 27.420694 37.326118 L 19.743206 37.326118 Z M 29.925863 29.64624 L 37.603333 29.64624 L 37.603333 37.326118 L 29.925863 37.326118 Z M 40.115871 29.64624 L 46.95174 29.64624 C 46.830624 32.299007 46.121914 34.929028 44.824421 37.326118 L 40.115871 37.326118 Z M 15.066556 39.838696 L 17.228203 39.838696 L 17.228203 42.145077 C 16.424709 41.44912 15.693342 40.637821 15.066556 39.838696 Z M 19.743206 39.838696 L 27.420694 39.838696 L 27.420694 46.610771 C 24.74139 46.354443 22.109995 45.494312 19.743206 44.027046 Z M 29.925863 39.838696 L 37.603333 39.838696 L 37.603333 44.55463 C 35.206367 45.850334 32.57769 46.55629 29.925863 46.674526 Z M 40.115871 39.838696 L 42.62104 39.838696 L 40.115871 42.343884 Z M 45.410851 40.609131 L 47.952843 43.14127 L 48.4632 45.550823 L 45.830429 48.185986 L 43.418484 47.665791 L 40.88633 45.133656 Z M 49.839684 47.729694 L 51.66766 49.555153 L 49.844593 51.383072 L 48.016636 49.557613 Z M 53.444107 51.334095 L 63.374039 61.268921 L 61.543598 63.091911 L 51.616131 53.157089 Z M 65.148018 63.042938 L 66.973534 64.868393 L 65.145554 66.69632 L 63.322506 64.873322 Z M 71.481064 67.574852 L 67.852119 71.198814 L 66.036423 69.35611 L 69.643272 65.759102 Z M 73.254883 69.34626 L 78.677444 74.763947 C 79.192245 75.278778 79.192245 76.074722 78.677444 76.589554 L 76.869102 78.390526 C 76.354309 78.905212 75.565742 78.905212 75.050949 78.390526 L 69.630829 72.975296 Z"/>
        </g>
    </g>
</svg>
