<?xml version="1.0" ?>
<!-- Uploaded to: SVG Repo, www.svgrepo.com, Generator: SVG Repo Mixer Tools -->
<svg width="800px" height="800px" viewBox="0 0 64 64" xmlns="http://www.w3.org/2000/svg">
<g id="a"/>
<g id="b"/>
<g id="c"/>
<g id="d"/>
<g id="e"/>
<g id="f"/>
<g id="g"/>
<g id="h"/>
<g id="i"/>
<g id="j"/>
<g id="k"/>
<g id="l"/>
<g id="m"/>
<g id="n"/>
<g id="o"/>
<g id="p"/>
<g id="q"/>
<g id="r"/>
<g id="s"/>
<g id="t"/>
<g id="u"/>
<g id="v"/>
<g id="w"/>
<g id="x"/>
<g id="y"/>
<g id="a`"/>
<g id="aa"/>
<g id="ab"/>
<g id="ac"/>
<g id="ad"/>
<g id="ae"/>
<g id="af">
<circle cx="18.5" cy="43.69" fill="#8fd7f8" r="13.5"/>
<circle cx="45.5" cy="43.69" fill="#dcc7f0" r="13.5"/>
<path d="M54.12,41.28c0,3.63-2.94,6.57-6.57,6.57s-6.57-2.94-6.57-6.57,2.94-6.57,6.57-6.57,6.57,2.94,6.57,6.57Z" fill="#f0f3f5" fill-rule="evenodd"/>
<path d="M27.12,41.28c0,3.63-2.94,6.57-6.57,6.57s-6.57-2.94-6.57-6.57,2.94-6.57,6.57-6.57,6.57,2.94,6.57,6.57Z" fill="#f0f3f5" fill-rule="evenodd"/>
<path d="M38.75,32c-6.46,3.73-14.71,1.52-18.44-4.94-3.73-6.46-1.52-14.71,4.94-18.44,6.46-3.73,14.71-1.51,18.44,4.94,3.73,6.46,1.52,14.71-4.94,18.44Z" fill="#f5e680" fill-rule="evenodd"/>
<path d="M40.62,17.9c0,3.63-2.94,6.57-6.57,6.57s-6.57-2.94-6.57-6.57,2.94-6.57,6.57-6.57,6.57,2.94,6.57,6.57Z" fill="#f0f3f5" fill-rule="evenodd"/>
<path d="M45.5,30.19c-.33,.01-.67,.03-1,.07,6.89,.71,12.12,6.51,12.12,13.43-.02,6.98-5.36,12.8-12.31,13.42,.39,.04,.79,.07,1.19,.08,7.46,0,13.5-6.04,13.5-13.5s-6.04-13.5-13.5-13.5Z" fill="#caaee9" fill-rule="evenodd"/>
<path d="M18.5,30.19c-.34,.01-.68,.04-1.02,.07,6.88,.71,12.11,6.51,12.11,13.43-.02,6.98-5.35,12.79-12.3,13.41,.4,.05,.8,.08,1.2,.09,7.46,0,13.5-6.04,13.5-13.5s-6.04-13.5-13.5-13.5h0Z" fill="#75cdf8" fill-rule="evenodd"/>
<path d="M32.64,6.83c-.71-.03-1.41,0-2.12,.08,4.34,.41,8.22,2.89,10.41,6.66,3.73,6.46,1.52,14.71-4.94,18.44-1.62,.93-3.42,1.52-5.28,1.72,2.79,.28,5.6-.32,8.04-1.72,6.46-3.73,8.67-11.98,4.94-18.44-2.3-3.98-6.46-6.52-11.05-6.73Z" fill="#f2d865" fill-rule="evenodd"/>
<path d="M45.5,29.19c-.77,0-1.51,.11-2.25,.23,2.06-2.55,3.25-5.75,3.25-9.11,0-2.54-.67-5.05-1.94-7.25-4-6.93-12.89-9.3-19.81-5.31-4.47,2.58-7.25,7.39-7.25,12.56,0,2.54,.67,5.05,1.94,7.25,.38,.66,.83,1.27,1.3,1.86-.74-.12-1.48-.23-2.24-.23-8,0-14.5,6.5-14.5,14.5s6.5,14.5,14.5,14.5c6.16,0,11.41-3.88,13.5-9.32,2.09,5.43,7.34,9.32,13.5,9.32,8,0,14.5-6.5,14.5-14.5s-6.5-14.5-14.5-14.5ZM25.75,9.48c1.96-1.13,4.11-1.67,6.23-1.67,4.32,0,8.53,2.24,10.85,6.25,1.1,1.9,1.67,4.06,1.67,6.25,0,4.45-2.39,8.6-6.25,10.82h0c-1.9,1.1-4.06,1.68-6.25,1.68-4.45,0-8.6-2.4-10.83-6.25-1.1-1.9-1.67-4.06-1.67-6.25,0-4.45,2.39-8.6,6.25-10.83Zm8.54,25.12c-.95,1.17-1.74,2.47-2.29,3.9-.55-1.43-1.34-2.73-2.29-3.9,.75,.12,1.52,.2,2.29,.2s1.54-.08,2.29-.2Zm-15.79,21.59c-6.89,0-12.5-5.61-12.5-12.5s5.61-12.5,12.5-12.5,12.5,5.61,12.5,12.5-5.61,12.5-12.5,12.5Zm27,0c-6.89,0-12.5-5.61-12.5-12.5s5.61-12.5,12.5-12.5,12.5,5.61,12.5,12.5-5.61,12.5-12.5,12.5Z"/>
<path d="M47.55,33.71c-4.18,0-7.57,3.4-7.57,7.57s3.4,7.57,7.57,7.57,7.57-3.4,7.57-7.57-3.4-7.57-7.57-7.57Zm0,13.15c-3.07,0-5.57-2.5-5.57-5.57s2.5-5.57,5.57-5.57,5.57,2.5,5.57,5.57-2.5,5.57-5.57,5.57Z"/>
<path d="M20.55,33.71c-4.18,0-7.57,3.4-7.57,7.57s3.4,7.57,7.57,7.57,7.57-3.4,7.57-7.57-3.4-7.57-7.57-7.57Zm0,13.15c-3.07,0-5.57-2.5-5.57-5.57s2.5-5.57,5.57-5.57,5.57,2.5,5.57,5.57-2.5,5.57-5.57,5.57Z"/>
<path d="M20.55,36.97c-1.47,0-2.66,1.19-2.66,2.66,0,.64,.26,1.2,.63,1.66-.38,.46-.63,1.02-.63,1.66,0,1.47,1.19,2.66,2.66,2.66s2.66-1.19,2.66-2.66c0-.64-.26-1.2-.63-1.66,.38-.46,.63-1.02,.63-1.66,0-1.47-1.19-2.66-2.66-2.66Zm0,2c.36,0,.66,.3,.66,.66s-.3,.66-.66,.66-.66-.3-.66-.66,.3-.66,.66-.66Zm0,4.63c-.36,0-.66-.3-.66-.66s.3-.66,.66-.66,.66,.3,.66,.66-.3,.66-.66,.66Z"/>
<path d="M48.81,42.63h-.21v-3.69c0-.55-.45-1-1-1h-1.31c-.55,0-1,.45-1,1s.45,1,1,1h.31v2.69h-.31c-.55,0-1,.45-1,1s.45,1,1,1h2.52c.55,0,1-.45,1-1s-.45-1-1-1Z"/>
<path d="M15.92,52s-.98-.19-2.16-.85c-.48-.27-1.09-.1-1.36,.39-.27,.48-.1,1.09,.39,1.36,1.48,.82,2.71,1.06,2.76,1.07,.06,.01,.12,.02,.18,.02,.47,0,.89-.33,.98-.81,.1-.54-.25-1.06-.79-1.17Z"/>
<path d="M9.36,43.16c0-.55-.49-.98-1.02-.98-.55,0-.99,.47-.98,1.02,.05,2.84,.85,5.25,2.38,7.15,.2,.25,.49,.37,.78,.37,.22,0,.44-.07,.63-.22,.43-.35,.5-.98,.15-1.41-1.24-1.54-1.9-3.54-1.94-5.93Z"/>
<path d="M34.05,25.47c4.18,0,7.57-3.4,7.57-7.57s-3.4-7.57-7.57-7.57-7.57,3.4-7.57,7.57,3.4,7.57,7.57,7.57Zm0-13.15c3.07,0,5.57,2.5,5.57,5.57s-2.5,5.57-5.57,5.57-5.57-2.5-5.57-5.57,2.5-5.57,5.57-5.57Z"/>
<path d="M32.61,16.67h1.56l-.89,3.18c-.15,.53,.16,1.08,.69,1.23,.09,.03,.18,.04,.27,.04,.44,0,.84-.29,.96-.73l1.25-4.45c.08-.3,.02-.62-.17-.87-.19-.25-.48-.4-.8-.4h-2.88c-.55,0-1,.45-1,1s.45,1,1,1Z"/>
<path d="M29.4,30.36c.06,.01,.12,.02,.18,.02,.47,0,.89-.33,.98-.81,.1-.54-.25-1.06-.79-1.17,0,0-.98-.19-2.16-.85-.48-.27-1.09-.1-1.36,.39-.27,.48-.1,1.09,.39,1.36,1.48,.83,2.71,1.06,2.76,1.07Z"/>
<path d="M24.37,27.11c.22,0,.44-.07,.63-.22,.43-.35,.5-.98,.15-1.41-1.24-1.54-1.9-3.54-1.94-5.93,0-.55-.48-.96-1.02-.98-.55,0-.99,.47-.98,1.02,.05,2.84,.85,5.25,2.38,7.15,.2,.25,.49,.37,.78,.37Z"/>
<path d="M43.19,52s-.98-.19-2.16-.85c-.48-.27-1.09-.1-1.36,.39-.27,.48-.09,1.09,.39,1.36,1.48,.82,2.71,1.06,2.76,1.07,.06,.01,.12,.02,.18,.02,.47,0,.89-.33,.98-.81,.1-.54-.25-1.06-.79-1.17Z"/>
<path d="M36.63,43.16c0-.55-.5-.98-1.02-.98-.55,0-.99,.47-.98,1.02,.05,2.84,.85,5.25,2.38,7.15,.2,.25,.49,.37,.78,.37,.22,0,.44-.07,.63-.22,.43-.35,.5-.98,.15-1.41-1.25-1.55-1.9-3.54-1.94-5.93Z"/>
</g>
<g id="ag"/>
<g id="ah"/>
<g id="ai"/>
<g id="aj"/>
<g id="ak"/>
<g id="al"/>
<g id="am"/>
<g id="an"/>
<g id="ao"/>
<g id="ap"/>
<g id="aq"/>
<g id="ar"/>
<g id="as"/>
<g id="at"/>
<g id="au"/>
<g id="av"/>
<g id="aw"/>
<g id="ax"/>
</svg>