<?xml version="1.0" encoding="iso-8859-1"?>
<!-- Uploaded to: SVG Repo, www.svgrepo.com, Generator: SVG Repo Mixer Tools -->
<svg height="800px" width="800px" version="1.1" id="Layer_1" xmlns="http://www.w3.org/2000/svg" xmlns:xlink="http://www.w3.org/1999/xlink" 
	 viewBox="0 0 512.356 512.356" xml:space="preserve">
<g transform="translate(1 1)">
	<g>
		<path style="fill:#FFE100;" d="M465.654,129.464c-5.486-27.429-22.857-53.943-50.286-53.943h-8.229
			c-21.943,0-34.743,17.371-41.143,36.571h-9.143c-0.914-28.343-24.686-54.857-53.943-54.857h-0.914
			c-29.257,0-53.029,26.514-53.943,54.857h-9.143c-8.229-19.2-22.857-36.571-44.8-36.571h-1.829
			c-49.371,0-53.029,26.514-53.943,54.857h-9.143c-7.314-14.629-9.143-27.429-26.514-27.429c-27.429,0-22.857,24.686-30.171,48.457
			c-10.971,48.457-11.886,98.743-3.657,147.2l3.657,17.371c7.314,24.686,1.829,33.829,27.429,33.829s36.571-17.371,36.571-42.971
			v10.057c0,30.171,24.686,51.2,53.943,51.2h1.829c30.171,0,53.943-21.029,53.943-51.2v17.371c0,30.171,24.686,52.114,53.943,52.114
			h0.914c30.171,0,53.943-21.943,53.943-52.114V320.55c0,27.429,22.857,47.543,50.286,47.543h8.229
			c28.343,0,44.8-20.114,50.286-47.543l3.657-26.514C477.54,229.121,477.54,193.464,465.654,129.464"/>
		<path style="fill:#FFE100;" d="M505.883,230.95c-2.743-14.629-10.057-29.257-20.114-40.229
			c-10.971-13.714-20.114-14.629-30.171-21.943l-0.914,0.914c3.657,37.486,20.114,68.571,14.629,114.286l-3.657,27.429
			c-6.4,27.429-22.857,47.543-50.286,47.543h-8.229c-27.429,0-50.286-20.114-50.286-47.543v13.714
			c0,28.343-22.857,52.114-52.114,52.114h-3.657c-10.057,0-20.114-2.743-28.343-7.314l-8.229,7.314
			c-2.743,10.057-2.743,22.857,0.914,33.829c9.143,26.514,36.571,39.314,64,31.086l117.943-32.914
			c36.571-10.971,46.629-39.314,54.857-64C513.197,305.921,514.111,269.35,505.883,230.95"/>
	</g>
	<path style="fill:#FFFFFF;" d="M438.225,129.464c-5.486-27.429-22.857-53.943-50.286-53.943h-8.229
		c-21.943,0-34.743,17.371-41.143,36.571h-9.143c-0.914-28.343-24.686-54.857-53.943-54.857h-0.914
		c-29.257,0-53.029,26.514-53.943,54.857h-9.143c-8.229-19.2-22.857-36.571-44.8-36.571h-1.829
		c-29.257,0-53.029,26.514-53.943,54.857h-9.143c-9.143-14.629-21.029-27.429-38.4-27.429c-25.6,0-38.4,24.686-45.714,48.457
		c-10.971,48.457-11.886,98.743-3.657,147.2l3.657,17.371c7.314,24.686,20.114,33.829,45.714,33.829s45.714-17.371,45.714-42.971
		v10.057c0,30.171,24.686,51.2,53.943,51.2h1.829c30.171,0,53.943-21.029,53.943-51.2v17.371c0,30.171,24.686,52.114,53.943,52.114
		h0.914c30.171,0,53.943-21.943,53.943-52.114V320.55c0,27.429,22.857,47.543,50.286,47.543h8.229
		c28.343,0,44.8-20.114,50.286-47.543l3.657-26.514C450.111,229.121,450.111,193.464,438.225,129.464"/>
	<path style="fill:#FFE100;" d="M438.225,129.464c-5.486-27.429-22.857-53.943-50.286-53.943h-8.229
		c-21.943,0-34.743,17.371-41.143,36.571h-9.143c-0.914-28.343-24.686-54.857-53.943-54.857h-0.914
		c-29.257,0-53.029,26.514-53.943,54.857h-9.143c-8.229-19.2-22.857-36.571-44.8-36.571h-1.829
		c-49.371,0-53.029,26.514-53.943,54.857h-9.143c-9.143-14.629-10.971-27.429-28.343-27.429c-25.6,0-21.029,24.686-28.343,48.457
		c-10.971,48.457-11.886,98.743-3.657,147.2l3.657,17.371c7.314,24.686,1.829,33.829,27.429,33.829s36.571-17.371,36.571-42.971
		v10.057c0,30.171,24.686,51.2,53.943,51.2h1.829c30.171,0,53.943-21.029,53.943-51.2v17.371c0,30.171,24.686,52.114,53.943,52.114
		h0.914c30.171,0,53.943-21.943,53.943-52.114V320.55c0,27.429,22.857,47.543,50.286,47.543h8.229
		c28.343,0,44.8-20.114,50.286-47.543l3.657-26.514C450.111,229.121,450.111,193.464,438.225,129.464"/>
	<path style="fill:#FF8800;" d="M474.797,221.807c-6.4-17.371-14.629-34.743-27.429-42.971l-0.914,0.914
		c3.657,37.486,1.829,68.571-3.657,114.286l-4.571,26.514c-6.4,27.429-22.857,47.543-50.286,47.543h-8.229
		c-27.429,0-50.286-20.114-50.286-47.543v13.714c0,30.171-24.686,52.114-53.943,52.114h-0.914c-10.057,0-20.114-2.743-28.343-7.314
		l-9.143,7.314c-2.743,10.057-2.743,22.857,0.914,33.829c9.143,26.514,36.571,39.314,64,31.086l117.943-32.914
		c36.571-10.971,46.629-39.314,54.857-64C487.597,309.578,486.683,266.607,474.797,221.807"/>
	<path style="fill:#FFA800;" d="M447.368,222.721c-6.4-17.371,12.8-34.743-0.914-42.971l-0.914,0.914
		c3.657,37.486,1.829,68.571-3.657,114.286l-3.657,26.514c-6.4,27.429-26.514,47.543-54.857,47.543h-8.229
		c-27.429,0-50.286-20.114-50.286-47.543v13.714c0,30.171-24.686,52.114-53.943,52.114h-0.914c-10.057,0-20.114-2.743-28.343-7.314
		l-7.314,7.314c-2.743,10.057-2.743,22.857,0.914,33.829c9.143,26.514,36.571,39.314,64,31.086c0,0,96-25.6,96.914-25.6
		c36.571-10.971,44.8-46.629,53.029-71.314C460.168,310.492,460.168,267.521,447.368,222.721"/>
	<path d="M109.083,322.378c-5.486,0-9.143-3.657-9.143-9.143v-73.143c0-5.486,3.657-9.143,9.143-9.143s9.143,3.657,9.143,9.143
		v73.143C118.225,318.721,114.568,322.378,109.083,322.378z"/>
	<path d="M218.797,349.807c-5.486,0-9.143-3.657-9.143-9.143V240.092c0-5.486,3.657-9.143,9.143-9.143s9.143,3.657,9.143,9.143
		v100.571C227.94,346.15,224.283,349.807,218.797,349.807z"/>
	<path d="M328.511,349.807c-5.486,0-9.143-3.657-9.143-9.143V230.95c0-5.486,3.657-9.143,9.143-9.143
		c5.486,0,9.143,3.657,9.143,9.143v109.714C337.654,346.15,333.997,349.807,328.511,349.807z"/>
	<path d="M274.568,395.521h-0.914c-27.429,0-50.286-16.457-59.429-39.314c-10.971,12.8-28.343,21.029-48.457,21.029h-1.829
		c-26.514,0-48.457-14.629-57.6-35.657c-10.971,10.971-25.6,17.371-42.971,17.371c-29.257,0-46.629-12.8-54.857-40.229
		l-3.657-18.286C-4.289,250.15-2.46,199.864,8.511,149.578c13.714-46.629,37.486-55.771,54.857-55.771
		c15.543,0,28.343,7.314,38.4,22.857c7.314-28.343,32.914-50.286,61.257-50.286h1.829c19.2,0,35.657,10.971,47.543,30.171
		c8.229-27.429,32.914-48.457,60.343-48.457h0.914c27.429,0,52.114,21.029,60.343,47.543c13.714-23.771,32-29.257,44.8-29.257h8.229
		c29.257,0,52.114,23.771,59.429,61.257l0,0c11.886,63.086,11.886,98.743,3.657,167.314l-3.657,27.429
		c-7.314,35.657-29.257,55.771-59.429,55.771h-8.229c-19.2,0-35.657-7.314-45.714-20.114
		C323.94,379.978,301.083,395.521,274.568,395.521z M227.94,316.892v17.371c0,23.771,20.114,42.971,44.8,42.971h0.914
		c25.6,0,44.8-18.286,44.8-42.971V320.55c0-5.486,3.657-9.143,9.143-9.143c5.486,0,9.143,3.657,9.143,9.143
		c0,21.943,18.286,38.4,41.143,38.4h8.229c28.343,0,38.4-25.6,42.057-40.229l3.657-26.514c8.229-65.829,7.314-100.571-3.657-160.914
		c-2.743-21.943-16.457-46.629-40.229-46.629h-8.229c-14.629,0-25.6,10.057-32.914,30.171c-1.829,3.657-5.486,6.4-9.143,6.4h-9.143
		c-4.571,0-9.143-3.657-9.143-9.143c-0.914-24.686-21.943-45.714-44.8-45.714h-0.914c-22.857,0-43.886,21.029-44.8,45.714
		c0,4.571-4.571,9.143-9.143,9.143h-9.143c-3.657,0-7.314-1.829-8.229-5.486c-5.486-13.714-17.371-31.086-36.571-31.086h-1.829
		c-22.857,0-43.886,21.029-44.8,45.714c0,4.571-4.571,9.143-9.143,9.143h-9.143c-4.571,0-7.314-1.829-9.143-4.571
		c-8.229-15.543-17.371-22.857-28.343-22.857c-16.457,0-28.343,14.629-36.571,42.057c-10.971,46.629-11.886,95.086-3.657,142.629
		l3.657,17.371c5.486,20.114,14.629,26.514,36.571,26.514c21.029,0,36.571-14.629,36.571-33.829c0-5.486,3.657-9.143,9.143-9.143
		s9.143,3.657,9.143,9.143v10.057c0,23.771,19.2,42.057,44.8,42.057h1.829c25.6,0,44.8-18.286,44.8-42.057
		c0-5.486,3.657-9.143,9.143-9.143S227.94,312.321,227.94,316.892z"/>
	<path d="M285.54,462.264c-25.6,0-47.543-15.543-56.686-39.314c-4.571-11.886-4.571-27.429-0.914-39.314
		c0-1.829,0.914-2.743,1.829-3.657l7.314-7.314c2.743-2.743,7.314-3.657,10.971-1.829c7.314,3.657,15.543,6.4,23.771,6.4h0.914
		c25.6,0,44.8-18.286,44.8-42.971V320.55c0-5.486,3.657-9.143,9.143-9.143c5.486,0,9.143,3.657,9.143,9.143
		c0,21.943,18.286,38.4,41.143,38.4h8.229c28.343,0,38.4-25.6,42.057-40.229l3.657-26.514c5.486-48.457,6.4-77.714,3.657-111.543
		c0-2.743,0.914-5.486,2.743-7.314l0.914-0.914c2.743-2.743,8.229-3.657,11.886-0.914c12.8,9.143,23.771,24.686,31.086,48.457
		c12.8,47.543,12.8,92.343,0,138.057c-7.314,22.857-18.286,57.6-61.257,70.4l0,0c-0.914,0-3.657,0.914-10.971,2.743l-16.457,4.571
		c-4.571,0.914-10.057-1.829-10.971-6.4c-0.914-4.571,1.829-10.057,6.4-10.971l16.457-4.571c6.4-1.829,10.057-2.743,10.971-2.743
		l0,0c30.171-9.143,40.229-32,48.457-58.514c11.886-42.971,11.886-83.2,0-127.086c-2.743-8.229-5.486-15.543-9.143-21.029
		c0.914,30.171-0.914,57.6-5.486,92.343l-3.657,27.429c-7.314,35.657-29.257,55.771-59.429,55.771h-8.229
		c-19.2,0-35.657-7.314-45.714-20.114c-9.143,22.857-32,38.4-58.514,38.4h-0.914c-9.143,0-18.286-1.829-26.514-5.486l-0.914,0.914
		c-1.829,8.229-1.829,18.286,0.914,25.6c7.314,21.029,30.171,32,53.029,25.6l26.514-7.314c4.571-0.914,10.057,1.829,10.971,6.4
		c0.914,4.571-1.829,10.057-6.4,10.971l-26.514,4.571C298.34,461.35,291.94,462.264,285.54,462.264z"/>
	<path d="M368.74,434.835c0-5.486-3.657-9.143-9.143-9.143c-5.486,0-9.143,3.657-9.143,9.143c0,5.486,3.657,9.143,9.143,9.143
		C364.168,443.978,368.74,439.407,368.74,434.835"/>
</g>
</svg>