<?xml version="1.0" encoding="UTF-8"?>
<!-- Generated by Pixelmator Pro 3.5.3 -->
<svg width="60" height="60" viewBox="0 0 60 60" xmlns="http://www.w3.org/2000/svg">
    <g id="colour">
        <path id="Pfad" fill="#ffffff" stroke="none" d="M 38.953251 16.00621 L 38.932652 15.996059 C 36.030128 20.751282 31.913179 20.761429 28.95928 20.751282 L 28.846081 20.751282 C 27.454754 20.88179 26.102007 21.281212 24.86294 21.92738 C 23.298479 22.606682 21.672331 23.31638 20.52977 22.850071 C 19.875998 22.533955 19.373131 21.972939 19.13015 21.288612 C 20.198114 20.932709 21.177305 20.351856 22.00164 19.585251 C 22.100142 19.493519 22.156084 19.364975 22.156084 19.230377 C 22.156084 19.095776 22.100142 18.967232 22.00164 18.8755 C 21.907007 18.778286 21.777098 18.72345 21.64143 18.72345 C 21.505762 18.72345 21.375853 18.778286 21.281219 18.8755 C 20.071045 19.945702 18.547626 20.596493 16.937731 20.731003 C 16.90695 20.558647 16.87604 20.396393 16.834961 20.2342 C 16.637032 19.465637 16.605421 18.663685 16.742241 17.881927 C 16.804565 17.142586 17.233641 16.483822 17.88468 16.12793 C 20.43729 15.063339 22.08392 13.096359 23.8234 11.00771 C 26.1084 8.260002 28.48587 5.431221 33.220341 4.64035 L 32.520519 5.785999 C 32.377823 6.027805 32.455711 6.339386 32.695412 6.4856 C 32.939491 6.631523 33.255489 6.554825 33.405521 6.313251 L 35.76252 2.43 L 35.77282 2.440151 L 36.575661 7.14463 C 36.584072 7.216808 36.608727 7.28614 36.647781 7.34742 C 38.420704 9.868057 39.238018 12.937695 38.953251 16.00621 Z"/>
        <path id="path1" fill="#3a3a3a" stroke="none" d="M 33.220341 4.640259 C 33.195801 4.644348 33.175541 4.652161 33.151001 4.656372 L 33.164059 4.732479 Z"/>
        <path id="path2" fill="#ffffff" stroke="none" d="M 36.647709 7.347412 C 36.608707 7.286106 36.584091 7.216766 36.57571 7.144588 L 35.77285 2.440121 L 35.762451 2.43 L 33.427448 6.27692 L 33.575642 7.1446 C 33.584023 7.216774 33.608639 7.286114 33.64764 7.34742 C 35.420639 9.868034 36.237984 12.937695 35.953178 16.006229 L 35.932549 15.99604 C 33.030079 20.751289 27.569759 20.751289 28.846001 20.751289 L 28.95916 20.751289 C 31.91316 20.761421 36.030079 20.751289 38.932549 15.99604 L 38.953178 16.006229 C 39.238007 12.937698 38.420689 9.868034 36.647709 7.347412 Z"/>
        <path id="path3" fill="#ffffff" stroke="none" d="M 43.53664 55 L 16.46336 55 C 15.35393 52.455509 16.377939 51.888901 18.042089 50.94442 C 19.66353 50.044418 21.850229 48.811111 21.08222 45 L 38.917782 45 C 38.14978 48.8111 40.336472 50.044418 41.957909 50.94442 C 43.622059 51.888901 44.646069 52.455509 43.53664 55 Z"/>
        <path id="path4" fill="#ffffff" stroke="none" d="M 41.370522 43.759769 C 40.913101 44.265865 40.368702 44.685913 39.76313 45 L 20.92161 45 C 18.2817 43.0135 16.929779 41.100578 16.780861 39.156158 C 16.536051 35.95047 19.60165 32.881359 22.848391 29.63365 C 25.5842 26.900879 28.404989 24.073547 29.629181 20.82584 C 32.418179 20.82584 36.356689 20.710239 39.443859 17 C 39.177738 18.555531 38.76244 20.12159 38.33675 21.719208 C 36.782639 27.605129 35.175251 33.70121 41.253441 40.24921 C 42.200779 41.210323 42.251717 42.737671 41.370522 43.759769 Z"/>
        <path id="path5" fill="#ffffff" stroke="none" d="M 41.253422 40.24921 C 35.175301 33.70121 36.782719 27.60511 38.33667 21.719208 C 38.365719 21.610081 38.391602 21.503571 38.42041 21.394753 L 38.420528 21.394691 L 38.427368 21.36808 C 38.615372 20.660801 38.800049 19.957253 38.967781 19.259857 C 39.150639 18.502541 39.315681 17.749481 39.443851 17.000031 C 39.256851 17.224762 39.06641 17.43515 38.873661 17.634308 C 38.794559 17.715981 38.713379 17.788002 38.633549 17.865448 C 38.519661 17.975861 38.40638 18.088661 38.291019 18.190948 C 38.185188 18.28458 38.077641 18.368813 37.970711 18.455841 C 37.880379 18.529388 37.790779 18.60593 37.699841 18.674957 C 37.573502 18.770538 37.445839 18.857758 37.318249 18.945038 C 37.24659 18.994171 37.175308 19.045811 37.103249 19.092381 C 36.957741 19.186249 36.811138 19.272682 36.66441 19.356598 C 36.611549 19.386932 36.558819 19.419041 36.50584 19.44809 C 36.34153 19.53793 36.17662 19.62109 36.011459 19.699551 C 35.977402 19.715721 35.943588 19.732689 35.909649 19.74844 C 35.72813 19.832123 35.546326 19.909538 35.364239 19.980682 L 35.316631 19.999542 C 35.120216 20.075157 34.923847 20.144333 34.72752 20.207062 C 33.070816 20.678383 31.350483 20.887169 29.629129 20.825829 C 29.061619 22.132347 28.252787 23.320107 27.245041 24.326828 C 29.524683 24.376381 31.79961 24.097923 34 23.5 C 32.76392 28.64679 31.99292 34.582088 37.253422 40.24921 C 38.200684 41.210342 38.251667 42.737602 37.370609 43.759769 C 36.913147 44.265835 36.36874 44.685879 35.76318 45 L 39.76318 45 C 40.368736 44.685875 40.913139 44.265835 41.370602 43.759769 C 42.251659 42.737606 42.20068 41.210346 41.253422 40.24921 Z"/>
        <path id="path6" fill="#ffffff" stroke="none" d="M 15 55 L 45 55 L 45 59 L 15 59 Z"/>
        <path id="path7" fill="#ffffff" stroke="none" d="M 43.639198 38.60453 C 44.030846 39.33205 43.964394 40.220783 43.46891 40.881969 C 43.121349 41.462818 42.543854 41.869102 41.879742 42 L 41.83429 42 C 41.762833 41.135239 41.379635 40.325886 40.756001 39.722561 C 34.694469 33.697708 36.249691 28.22156 37.906891 22.434769 C 39.39389 17.248428 40.926159 11.88612 36.749069 6.089039 L 36 2 C 38.19252 2.991417 40.064045 4.576298 41.403091 6.57555 C 45.387299 12.020691 43.979649 17.062088 42.48138 22.393379 C 41.017052 27.63147 39.507278 33.045528 43.639198 38.60453 Z"/>
    </g>
    <g id="Layer1">
        <path id="path8" fill="#000000" stroke="none" d="M 45 54.000359 L 44.4519 54.000359 C 45.164551 51.286491 43.252682 50.249931 41.920898 49.533562 C 40.401371 48.716179 39.283199 48.114609 39.858398 45.671261 C 40.473499 45.305813 41.027718 44.846497 41.500999 44.309929 C 41.84267 43.921421 42.102043 43.467686 42.263451 42.976131 C 43.284019 42.761322 44.163651 42.119553 44.67971 41.213249 C 45.394623 40.11739 45.476349 38.725063 44.89455 37.553089 C 44.874683 37.513729 44.852509 37.475574 44.82814 37.438831 C 41.526379 32.570671 42.721691 27.88903 43.98634 22.931992 C 45.325211 17.685898 46.709 12.261089 42.82423 6.43399 C 41.461201 4.199837 39.456635 2.428207 37.071899 1.35009 L 36.986328 0.836288 C 36.917591 0.42292 36.598392 0.096256 36.186722 0.017979 C 35.775051 -0.060299 35.358238 0.126415 35.142578 0.48571 L 33.605709 3.04723 C 28.04907 3.765491 25.344481 7.03978 22.959999 9.939812 C 21.390659 11.848011 19.908239 13.649811 17.76371 14.559929 C 16.6285 15.107525 15.865608 16.212532 15.7559 17.468132 C 15.594848 18.414734 15.632427 19.384487 15.86625 20.315788 C 15.929177 20.572632 15.975496 20.833263 16.004919 21.096062 C 16.053854 21.608963 16.484766 22.000565 17 22.000359 C 17.440895 21.995586 17.880508 21.9519 18.313721 21.869812 C 18.710999 22.796013 19.437355 23.542183 20.352539 23.96423 C 20.790768 24.140259 21.259205 24.228836 21.731449 24.224968 C 23.13369 24.098595 24.49659 23.693542 25.74024 23.033562 C 26.251711 22.807793 26.76832 22.585011 27.26807 22.400021 C 25.76754 24.764343 23.967245 26.924461 21.912069 28.82653 C 18.616171 32.167351 15.50387 35.321651 15.78121 39.050159 C 15.95016 41.316761 17.370081 43.458359 20.12203 45.588249 C 20.742149 48.100948 19.615191 48.70739 18.079029 49.533562 C 16.74724 50.249931 14.83538 51.286491 15.54803 54.000359 L 15 54.000359 C 14.734736 54.000206 14.480293 54.105515 14.292723 54.293083 C 14.105153 54.480652 13.999846 54.735096 14 55.000359 L 14 59.000359 C 13.999846 59.265625 14.105153 59.520065 14.292723 59.707638 C 14.480293 59.895206 14.734736 60.000515 15 60.000359 L 45 60.000359 C 45.265263 60.000515 45.519707 59.895206 45.707275 59.707638 C 45.894848 59.520065 46.000153 59.265625 46 59.000359 L 46 55.000359 C 46.000153 54.735096 45.894848 54.480652 45.707275 54.293083 C 45.519707 54.105515 45.265263 54.000206 45 54.000359 Z M 41.167999 7.555 C 44.550812 12.629219 43.334999 17.393867 42.047878 22.43684 C 40.734402 27.58625 39.376011 32.90852 43.130878 38.49934 C 43.362896 39.020504 43.318539 39.62323 43.012718 40.104809 C 42.849571 40.390148 42.624989 40.63562 42.355251 40.823441 C 42.194492 40.128883 41.856815 39.487717 41.375031 38.962231 C 36.219761 33.33923 37.562531 28.18391 38.985378 22.725899 C 40.310581 17.636063 41.681671 12.37434 37.951199 6.62727 L 37.476559 3.778801 C 38.966877 4.754272 40.226608 6.042927 41.167999 7.555 Z M 24.932619 21.20348 C 23.50391 21.833359 22.02832 22.48864 21.10742 22.111679 C 20.743687 21.936668 20.446243 21.648808 20.25942 21.291 C 21.165068 20.916885 21.994595 20.380173 22.707001 19.70739 C 23.093693 19.31628 23.091911 18.686295 22.703014 18.297379 C 22.314116 17.908459 21.68413 17.906647 21.292999 18.29332 C 20.325083 19.169071 19.12068 19.740364 17.830111 19.935898 L 17.81839 19.879257 C 17.637901 19.180843 17.609934 18.451752 17.736389 17.741562 C 17.766687 17.188377 18.069668 16.686337 18.544979 16.401718 C 21.141661 15.299179 22.85162 13.220081 24.50498 11.210312 C 26.573 8.69463 28.546749 6.303089 32.229 5.341599 L 32.14257 5.485699 C 31.858337 5.959244 32.011803 6.57354 32.485344 6.857777 C 32.958889 7.14201 33.573185 6.988541 33.857422 6.514999 L 35.459999 3.844109 L 36.01371 7.164421 C 36.037254 7.303989 36.089817 7.437065 36.168011 7.55505 C 37.789436 9.915794 38.551689 12.761429 38.327431 15.61657 C 35.65897 19.998409 31.99015 20.00811 29.11043 20.000359 L 29 20.000359 C 27.577328 20.125027 26.194183 20.534157 24.932619 21.20348 Z M 17.775391 38.901718 C 17.56539 36.079449 20.36816 33.238628 23.334961 30.2318 C 25.853149 27.679977 28.432859 25.041191 29.67725 21.993149 C 32.0271 21.958359 35.070801 21.781662 37.743172 19.43327 C 37.535172 20.35582 37.293949 21.283489 37.049809 22.22105 C 35.555672 27.957382 34.009811 33.88905 39.901371 40.31382 C 40.614918 41.046055 40.658787 42.199417 40.00293 42.983742 C 39.636703 43.393433 39.202927 43.737286 38.720459 44.00034 L 21.34746 44.00034 C 19.07666 42.240528 17.89966 40.570671 17.775391 38.901718 Z M 19.02739 51.2943 C 20.51115 50.496571 22.665331 49.326302 22.226391 46.000351 L 37.773682 46.000351 C 37.334679 49.326279 39.488892 50.496571 40.972679 51.2943 C 42.40139 52.063221 43.011009 52.410301 42.35342 54.000351 L 17.64661 54.000351 C 16.989 52.410271 17.598631 52.063221 19.02734 51.2943 Z M 44 58.000359 L 16 58.000359 L 16 56.000359 L 44 56.000359 Z"/>
        <path id="path9" fill="#000000" stroke="none" d="M 30 11.459648 L 30 12.000359 C 30 12.552643 30.447716 13.000359 31 13.000359 C 31.552284 13.000359 32 12.552643 32 12.000359 L 32 11.63213 L 32.010738 11.635132 C 32.653133 11.850662 33.322941 11.97364 34 12.000359 C 34.552284 12.000359 35 11.552643 35 11.000359 C 35 10.448074 34.552284 10.000359 34 10.000359 C 33.509613 9.96796 33.025635 9.871094 32.560551 9.712269 C 31.14455 9.306999 29.001961 8.694691 27.167971 11.445671 C 26.965542 11.742908 26.938305 12.12595 27.096638 12.448841 C 27.254972 12.771732 27.57449 12.984737 27.933439 13.006699 C 28.292391 13.028656 28.635489 12.856182 28.832001 12.555 C 29.09939 12.07843 29.507263 11.695927 30 11.459648 Z"/>
    </g>
</svg>
