<?xml version="1.0" encoding="UTF-8"?>
<!-- Generated by Pixelmator Pro 3.5.5 -->
<svg width="423" height="423" viewBox="0 0 423 423" xmlns="http://www.w3.org/2000/svg">
    <g id="Gruppe">
        <path id="Pfad" fill="#3d3c3c" stroke="none" d="M 252.384003 47.733002 C 253.104996 41.303009 257.269012 30.928986 256.716003 27.242004 C 255.063995 16.231995 245.632996 15.807007 243.824997 16.695007 C 239.477005 18.325989 230.973007 20.080994 226.197998 20.998993 C 223.300003 21.175995 220.453995 21.97699 217.830994 23.466003 C 207.462006 29.352997 204.509995 43.731995 211.238998 55.583008 C 217.968002 67.43399 231.828003 72.268005 242.197006 66.380005 C 248.132996 63.01001 251.623993 56.852997 252.274002 49.984009 C 252.279007 49.998993 252.285004 50.013 252.289001 50.027985 C 252.283997 49.941986 252.291 49.839996 252.287994 49.751007 C 252.345001 49.084991 252.382004 48.411987 252.384003 47.733002 Z M 237.279999 58.152008 C 230.959 61.59201 222.604996 58.622009 218.529999 51.444 C 214.414001 44.195007 216.220001 35.399994 222.561996 31.798004 C 228.904999 28.196991 237.382996 31.153992 241.498001 38.402008 C 245.613998 45.651001 243.807999 54.445984 237.466003 58.048004 C 237.404007 58.083984 237.341995 58.118988 237.279999 58.152008"/>
        <path id="path1" fill="#9ba2a8" stroke="none" d="M 420.346985 207.793991 C 420.346985 92.644012 327.002014 -0.703003 211.852997 -0.703003 C 210.110001 -0.703003 208.371002 -0.679993 206.638 -0.635986 C 188.932007 49.631989 172.005005 99.303009 172.005005 99.303009 L 190.740005 159.998993 L 143.445999 263.593994 L 145.5 324.563995 L 125.329002 397.537994 C 151.686996 409.576996 180.985001 416.290985 211.852997 416.290985 C 327.002014 416.290985 420.346985 322.942993 420.346985 207.793991 Z"/>
        <path id="path2" fill="#505b66" stroke="none" d="M 385.497986 147.950012 L 404.751007 137.360992 L 247.813004 41.983002 L 172.145004 98.891998 C 172.054993 99.154999 172.003998 99.304016 172.003998 99.304016 L 190.738998 160 L 190.429001 160.559998 L 320.032013 132.118011 L 385.497986 147.950012 Z"/>
        <path id="path3" fill="#505b66" stroke="none" d="M 247.531006 260.602997 L 143.542007 263.671997 L 145.498001 324.563995 L 144.440002 328.397003 L 226.539001 304.546997 L 382.380005 327.77301 C 382.951996 326.960999 383.518005 326.143005 384.078003 325.324005 L 247.531006 260.602997 Z"/>
        <g id="g1">
            <path id="path4" fill="#29546c" stroke="none" d="M 255.453003 193.352997 C 262.093994 174.548004 300.972992 133.10199 335.016998 187.571991 C 374.623993 241.638992 237.598999 243.914001 255.453003 193.352997 Z"/>
            <path id="path5" fill="#00b5ae" stroke="none" opacity="0.25" d="M 335.016998 187.571991 C 332 183.453995 328.967987 180.003998 325.942993 177.132004 C 327.105988 178.524002 328.266998 180 329.427002 181.582993 C 366.182007 231.755997 267.919006 244.673996 254.477997 191.80899 C 253.722 192.780991 253.319 193.352997 253.319 193.352997 C 263.466003 246.119003 374.623993 241.638992 335.016998 187.571991 Z"/>
        </g>
        <path id="path6" fill="#f4b7a9" stroke="none" d="M 280.372986 244.710999 C 282.946991 252.341995 278.846985 260.613983 271.216003 263.187012 L 271.216003 263.187012 C 263.584991 265.76001 255.313004 261.661987 252.740005 254.030991 L 244.115997 228.460999 C 241.542007 220.828995 245.641006 212.556992 253.270996 209.985001 L 253.270996 209.985001 C 260.902008 207.412003 269.174011 211.509995 271.748993 219.140991 L 280.372986 244.710999 Z"/>
        <path id="path7" fill="#f4b7a9" stroke="none" opacity="0.41" d="M 280.372986 244.710999 C 282.946991 252.341995 278.846985 260.613983 271.216003 263.187012 L 271.216003 263.187012 C 263.584991 265.76001 255.313004 261.661987 252.740005 254.030991 L 244.115997 228.460999 C 241.542007 220.828995 245.641006 212.556992 253.270996 209.985001 L 253.270996 209.985001 C 260.902008 207.412003 269.174011 211.509995 271.748993 219.140991 L 280.372986 244.710999 Z"/>
        <path id="path8" fill="#f4b7a9" stroke="none" d="M 344.68399 247.065002 C 344.68399 246.218994 344.641998 245.382996 344.57901 244.552002 C 344.640991 244.070999 344.68399 243.584991 344.68399 243.08699 L 344.68399 196.024002 C 344.68399 189.763992 339.609985 184.688995 333.348999 184.688995 C 327.088013 184.688995 322.014008 189.763992 322.014008 196.024002 L 322.014008 215.233002 C 321.828003 215.171997 320.575012 215.289993 320.386993 215.233002 L 320.386993 196.024002 C 320.386993 189.763992 316.380005 184.688995 310.119995 184.688995 C 303.859985 184.688995 298.785004 189.763992 298.785004 196.024002 L 298.785004 215.233002 L 297.15799 215.233002 L 297.15799 196.024002 C 297.15799 189.763992 293.151001 184.688995 286.890991 184.688995 C 280.631012 184.688995 275.556 189.763992 275.556 196.024002 L 275.556 215.233002 C 275.352997 215.293991 274.084991 215.166992 273.882996 215.233002 L 273.882996 196.024002 C 273.882996 189.763992 269.876007 184.688995 263.615997 184.688995 C 257.355988 184.688995 252.281006 189.763992 252.281006 196.024002 L 252.281006 243.08699 C 252.281006 243.584991 252.324005 244.070999 252.386002 244.552002 C 252.322998 245.382996 252.281006 246.218994 252.281006 247.065002 C 252.281006 260.112 259.888 271.381989 270.908997 276.682983 L 270.908997 407.791992 C 290.67099 401.964996 309.209991 393.290985 326.053986 382.240997 L 326.053986 276.68399 C 337.076996 271.381989 344.68399 260.112 344.68399 247.065002 Z"/>
        <g id="g2" opacity="0.39">
            <path id="path9" fill="#c9978c" stroke="none" d="M 344.68399 196.024002 C 344.68399 189.763992 339.609985 184.688995 333.348999 184.688995 C 330.272003 184.688995 327.484985 185.919998 325.442993 187.910995 C 326.039001 187.813995 326.645996 187.75 327.269012 187.75 C 333.528992 187.75 338.604004 192.824997 338.604004 199.084991 C 338.604004 199.084991 338.604004 249.279999 338.604004 250.125992 C 338.604004 263.173004 330.997009 274.442993 319.976013 279.743988 L 319.976013 385.302002 C 314.286011 389.035004 308.39801 392.48999 302.338989 395.661011 C 310.558014 391.695984 318.480011 387.210999 326.057007 382.23999 L 326.057007 276.68399 C 337.078003 271.382996 344.684998 260.112 344.684998 247.065994 C 344.68399 246.218994 344.68399 196.024002 344.68399 196.024002 Z"/>
        </g>
        <path id="path10" fill="#f9d363" stroke="none" d="M 332.264008 314.363007 C 332.264008 324.356995 324.164001 332.457001 314.17099 332.457001 L 282.175995 332.457001 C 272.183014 332.457001 264.083008 324.356995 264.083008 314.363007 L 264.083008 296.299988 C 264.083008 286.306 272.183014 278.207001 282.175995 278.207001 L 314.17099 278.207001 C 324.164001 278.207001 332.264008 286.307007 332.264008 296.299988 L 332.264008 314.363007 Z"/>
        <path id="path11" fill="#f9d363" stroke="none" opacity="0.26" d="M 324.908997 281.760986 C 327.131989 284.766998 328.462006 288.471985 328.462006 292.497986 L 328.462006 310.561005 C 328.462006 320.554993 320.362 328.654999 310.368988 328.654999 L 278.373993 328.654999 C 274.347992 328.654999 270.641998 327.324005 267.635986 325.100983 C 270.932007 329.556 276.208008 332.458008 282.175995 332.458008 L 314.17099 332.458008 C 324.164001 332.458008 332.264008 324.358002 332.264008 314.363983 L 332.264008 296.300995 C 332.264008 290.333008 329.363007 285.056 324.908997 281.760986 Z"/>
        <path id="path12" fill="none" stroke="#ffffff" stroke-width="6.6095" stroke-linecap="round" stroke-linejoin="round" d="M 220.324005 53.782013 C 223.003998 51.862 227.042999 51.769989 230.235001 52.774994 C 238.651001 55.424988 242.429993 67.238007 238.675995 79.160004 C 234.921997 91.082001 225.057007 98.598999 216.641006 95.949005 C 208.225006 93.299011 200.912003 73.242004 213.731995 58.960999 L 220.324005 53.782013 Z"/>
        <g id="g3">
            <path id="path13" fill="#3d3c3c" stroke="none" d="M 256.716003 27.242004 C 255.063995 16.231995 245.632996 15.807007 243.824997 16.695007 C 239.477005 18.325989 230.973007 20.080994 226.197998 20.998993 C 223.300003 21.175995 220.453995 21.97699 217.830994 23.466003 C 207.462006 29.352997 204.509995 43.731995 211.238998 55.583008 C 216.878006 65.515015 227.363007 70.575012 236.766998 68.468994 C 236.675995 68.178009 236.921997 63.653015 233.783997 59.321991 C 228.072006 60.515991 221.945999 57.460999 218.529999 51.444 C 214.414001 44.195007 216.220001 35.399994 222.561996 31.798004 C 228.904999 28.196991 237.382996 31.153992 241.498001 38.402008 C 245.117004 44.776001 244.434998 52.221985 239.837997 56.404999 C 240.188004 56.697998 242.865005 62.945007 243.151993 65.751007 C 248.731003 62.31601 251.645996 56.622986 252.274002 49.984985 C 252.279007 50 252.285004 50.014008 252.289001 50.028992 C 252.283997 49.942993 252.291 49.841003 252.287994 49.752014 C 252.345001 49.083984 252.380997 48.411011 252.384003 47.731995 C 253.106003 41.303986 257.269989 30.928986 256.716003 27.242004 Z"/>
            <path id="path14" fill="#1b1919" stroke="none" d="M 250.235992 25.493011 C 250.235992 27.527069 248.587067 29.175995 246.552994 29.175995 C 244.518936 29.175995 242.869995 27.527069 242.869995 25.493011 C 242.869995 23.458923 244.518936 21.809998 246.552994 21.809998 C 248.587067 21.809998 250.235992 23.458923 250.235992 25.493011 Z"/>
        </g>
        <g id="g4">
            <path id="path15" fill="#ea7053" stroke="none" d="M 218.494995 88.47699 C 214.733994 88.005005 211.214996 90.419006 210.356003 94.110992 L 143.798004 380.18399 L 135.947006 413.93399 C 135.026001 417.894989 137.490005 421.85199 141.449997 422.773987 L 141.595001 422.807983 C 145.556 423.729004 149.513 421.264984 150.434006 417.304993 L 157.951004 384.992004 L 226.199997 91.654999 C 226.449997 90.579987 225.737 89.510986 224.647003 89.341003 C 222.606003 89.023987 220.554993 88.735016 218.494995 88.47699 Z"/>
            <path id="path16" fill="#f2aa99" stroke="none" opacity="0.48" d="M 224.606995 89.335999 C 223.623993 89.18399 222.686996 89.821991 222.462006 90.790009 L 155.097 380.329987 L 146.348999 417.937012 C 146.223999 418.475006 145.578003 419.010986 144.839996 419.368011 C 143.919998 419.812988 142.828003 419.714996 141.966995 419.162994 L 138.832993 417.151001 C 137.796005 416.910004 136.761002 417.554993 136.518997 418.591003 C 136.518997 418.591003 137.520004 420.942993 140.587997 422.572998 C 145.908005 424.061005 149.617996 420.813995 150.667999 416.296997 L 157.949997 384.990997 L 226.197998 91.656006 C 226.447998 90.580994 225.735001 89.510986 224.643997 89.341003 C 224.632996 89.339996 224.619995 89.338013 224.606995 89.335999 Z"/>
        </g>
    </g>
</svg>
