<?xml version="1.0" encoding="iso-8859-1"?>
<!-- Uploaded to: SVG Repo, www.svgrepo.com, Generator: SVG Repo Mixer Tools -->
<svg version="1.1" id="Capa_1" xmlns="http://www.w3.org/2000/svg" xmlns:xlink="http://www.w3.org/1999/xlink" 
	 viewBox="0 0 423.703 423.703" xml:space="preserve">
<g>
	<circle style="fill:#AFEBFF;" cx="211.852" cy="208.497" r="208.496"/>
	<path style="fill:#3D3C3C;" d="M252.384,48.436c0.721-6.43,4.885-16.804,4.332-20.491c-1.652-11.01-11.083-11.435-12.891-10.547
		c-4.348,1.631-12.852,3.386-17.627,4.304c-2.898,0.177-5.744,0.978-8.367,2.467c-10.369,5.887-13.321,20.266-6.592,32.117
		c6.729,11.851,20.589,16.685,30.958,10.797c5.936-3.37,9.427-9.527,10.077-16.396c0.005,0.015,0.011,0.029,0.015,0.044
		c-0.005-0.086,0.002-0.188-0.001-0.277C252.345,49.788,252.382,49.115,252.384,48.436z M237.28,58.855
		c-6.321,3.44-14.675,0.47-18.75-6.708c-4.116-7.249-2.31-16.044,4.032-19.646c6.343-3.601,14.821-0.644,18.936,6.604
		c4.116,7.249,2.31,16.044-4.032,19.646C237.404,58.787,237.342,58.822,237.28,58.855"/>
	<path style="fill:#9BA2A8;" d="M420.347,208.497C420.347,93.347,327.002,0,211.853,0c-1.743,0-3.482,0.023-5.215,0.067
		c-17.706,50.268-34.633,99.939-34.633,99.939l18.735,60.696l-47.294,103.595l2.054,60.97l-20.171,72.974
		c26.358,12.039,55.656,18.753,86.524,18.753C327.002,416.994,420.347,323.646,420.347,208.497z"/>
	<path style="fill:#505B66;" d="M385.498,148.653l19.253-10.589L247.813,42.686l-75.668,56.909c-0.09,0.263-0.141,0.412-0.141,0.412
		l18.735,60.696l-0.31,0.56l129.603-28.442L385.498,148.653z"/>
	<path style="fill:#505B66;" d="M247.531,261.306l-103.989,3.069l1.956,60.892l-1.058,3.833l82.099-23.85l155.841,23.226
		c0.572-0.812,1.138-1.63,1.698-2.449L247.531,261.306z"/>
	<g>
		<path style="fill:#29546C;" d="M255.453,194.056c6.641-18.805,45.52-60.251,79.564-5.781
			C374.624,242.342,237.599,244.617,255.453,194.056z"/>
		<path style="opacity:0.25;fill:#00B5AE;" d="M335.017,188.275c-3.017-4.118-6.049-7.568-9.074-10.44
			c1.163,1.392,2.324,2.868,3.484,4.451c36.755,50.173-61.508,63.091-74.949,10.226c-0.756,0.972-1.159,1.544-1.159,1.544
			C263.466,246.822,374.624,242.342,335.017,188.275z"/>
	</g>
	<path style="fill:#F4B7A9;" d="M280.373,245.414c2.574,7.631-1.526,15.903-9.157,18.476l0,0
		c-7.631,2.573-15.903-1.525-18.476-9.156l-8.624-25.57c-2.574-7.632,1.525-15.904,9.155-18.476l0,0
		c7.631-2.573,15.903,1.525,18.478,9.156L280.373,245.414z"/>
	<path style="opacity:0.41;fill:#F4B7A9;" d="M280.373,245.414c2.574,7.631-1.526,15.903-9.157,18.476l0,0
		c-7.631,2.573-15.903-1.525-18.476-9.156l-8.624-25.57c-2.574-7.632,1.525-15.904,9.155-18.476l0,0
		c7.631-2.573,15.903,1.525,18.478,9.156L280.373,245.414z"/>
	<path style="fill:#F4B7A9;" d="M344.684,247.768c0-0.846-0.042-1.682-0.105-2.513c0.062-0.481,0.105-0.967,0.105-1.465v-47.063
		c0-6.26-5.074-11.335-11.335-11.335s-11.335,5.075-11.335,11.335v19.209c-0.186-0.061-1.439,0.057-1.627,0v-19.209
		c0-6.26-4.007-11.335-10.267-11.335c-6.26,0-11.335,5.075-11.335,11.335v19.209h-1.627v-19.209c0-6.26-4.007-11.335-10.267-11.335
		c-6.26,0-11.335,5.075-11.335,11.335v19.209c-0.203,0.061-1.471-0.066-1.673,0v-19.209c0-6.26-4.007-11.335-10.267-11.335
		c-6.26,0-11.335,5.075-11.335,11.335v47.063c0,0.498,0.043,0.984,0.105,1.465c-0.063,0.831-0.105,1.667-0.105,2.513
		c0,13.047,7.607,24.317,18.628,29.618v131.109c19.762-5.827,38.301-14.501,55.145-25.551V277.387
		C337.077,272.085,344.684,260.815,344.684,247.768z"/>
	<g style="opacity:0.39;">
		<path style="fill:#C9978C;" d="M344.684,196.727c0-6.26-5.074-11.335-11.335-11.335c-3.077,0-5.864,1.231-7.906,3.222
			c0.596-0.097,1.203-0.161,1.826-0.161c6.26,0,11.335,5.075,11.335,11.335c0,0,0,50.195,0,51.041
			c0,13.047-7.607,24.317-18.628,29.618v105.558c-5.69,3.733-11.578,7.188-17.637,10.359c8.219-3.965,16.141-8.45,23.718-13.421
			V277.387c11.021-5.301,18.628-16.572,18.628-29.618C344.684,246.922,344.684,196.727,344.684,196.727z"/>
	</g>
	<path style="fill:#F9D363;" d="M332.264,315.066c0,9.994-8.1,18.094-18.093,18.094h-31.995c-9.993,0-18.093-8.1-18.093-18.094
		v-18.063c0-9.994,8.1-18.093,18.093-18.093h31.995c9.993,0,18.093,8.1,18.093,18.093V315.066z"/>
	<path style="opacity:0.26;fill:#F9D363;" d="M324.909,282.464c2.223,3.006,3.553,6.711,3.553,10.737v18.063
		c0,9.994-8.1,18.094-18.093,18.094h-31.995c-4.026,0-7.732-1.331-10.738-3.554c3.296,4.455,8.572,7.357,14.54,7.357h31.995
		c9.993,0,18.093-8.1,18.093-18.094v-18.063C332.264,291.036,329.363,285.759,324.909,282.464z"/>
	<path style="fill:none;stroke:#FFFFFF;stroke-width:6.6095;stroke-linecap:round;stroke-linejoin:round;stroke-miterlimit:10;" d="
		M220.324,54.485c2.68-1.92,6.719-2.012,9.911-1.007c8.416,2.65,12.195,14.463,8.441,26.385s-13.619,19.439-22.035,16.789
		s-15.729-22.707-2.909-36.988L220.324,54.485z"/>
	<g>
		<path style="fill:#3D3C3C;" d="M256.716,27.945c-1.652-11.01-11.083-11.435-12.891-10.547c-4.348,1.631-12.852,3.386-17.627,4.304
			c-2.898,0.177-5.744,0.978-8.367,2.467c-10.369,5.887-13.321,20.266-6.592,32.117c5.639,9.932,16.124,14.992,25.528,12.886
			c-0.091-0.291,0.155-4.816-2.983-9.147c-5.712,1.194-11.838-1.861-15.254-7.878c-4.116-7.249-2.31-16.044,4.032-19.646
			c6.343-3.601,14.821-0.644,18.936,6.604c3.619,6.374,2.937,13.82-1.66,18.003c0.35,0.293,3.027,6.54,3.314,9.346
			c5.579-3.435,8.494-9.128,9.122-15.766c0.005,0.015,0.011,0.029,0.015,0.044c-0.005-0.086,0.002-0.188-0.001-0.277
			c0.057-0.668,0.093-1.341,0.096-2.02C253.106,42.007,257.27,31.632,256.716,27.945z"/>
		<circle style="fill:#1B1919;" cx="246.553" cy="26.196" r="3.683"/>
	</g>
	<g>
		<path style="fill:#EA7053;" d="M218.495,89.18c-3.761-0.472-7.28,1.942-8.139,5.634l-66.558,286.073l-7.851,33.75
			c-0.921,3.961,1.543,7.918,5.503,8.84l0.145,0.034c3.961,0.921,7.918-1.543,8.839-5.503l7.517-32.313L226.2,92.358
			c0.25-1.075-0.463-2.144-1.553-2.314C222.606,89.727,220.555,89.438,218.495,89.18z"/>
		<path style="opacity:0.48;fill:#F2AA99;" d="M224.607,90.039c-0.983-0.152-1.92,0.486-2.145,1.454l-67.365,289.54l-8.748,37.607
			c-0.125,0.538-0.771,1.074-1.509,1.431c-0.92,0.445-2.012,0.347-2.873-0.205l-3.134-2.012c-1.037-0.241-2.072,0.404-2.314,1.44
			c0,0,1.001,2.352,4.069,3.982c5.32,1.488,9.03-1.759,10.08-6.276l7.282-31.306l68.248-293.335c0.25-1.075-0.463-2.145-1.554-2.315
			C224.633,90.043,224.62,90.041,224.607,90.039z"/>
	</g>
</g>
</svg>