<?xml version="1.0" encoding="utf-8"?>
<!-- Uploaded to: SVG Repo, www.svgrepo.com, Generator: SVG Repo Mixer Tools -->
<svg width="800px" height="800px" viewBox="0 0 64 64" xmlns="http://www.w3.org/2000/svg">
<title>flamenco-fan</title>
<g id="flamenco-fan">
<circle cx="37" cy="33" r="23" style="fill:#e5efef"/>
<path d="M11.6,53.928a31.525,31.525,0,0,1,44.3-44.1L41.929,29.049a42.464,42.464,0,0,1-9.073,9.15Z" style="fill:#f53e28;stroke:#4c241d;stroke-linecap:round;stroke-linejoin:round;stroke-width:2px"/>
<polyline points="13.901 13.067 36.803 34.461 20.389 7.845" style="fill:none;stroke:#4c241d;stroke-linecap:round;stroke-linejoin:round;stroke-width:2px"/>
<polyline points="29.016 4.66 36.802 34.823 36.803 3.279" style="fill:none;stroke:#4c241d;stroke-linecap:round;stroke-linejoin:round;stroke-width:2px"/>
<line x1="36.802" y1="34.823" x2="45.874" y2="4.973" style="fill:none;stroke:#4c241d;stroke-linecap:round;stroke-linejoin:round;stroke-width:2px"/>
<polyline points="6.639 27.037 36.802 34.823 5.258 34.825" style="fill:none;stroke:#4c241d;stroke-linecap:round;stroke-linejoin:round;stroke-width:2px"/>
<polyline points="6.952 43.895 36.802 34.823 8.917 19.898" style="fill:none;stroke:#4c241d;stroke-linecap:round;stroke-linejoin:round;stroke-width:2px"/>
<path d="M27.049,42.44A13.394,13.394,0,0,1,45.874,23.7l-3.735,5.135a42.464,42.464,0,0,1-9.073,9.15Z" style="fill:#ffce56;stroke:#4c241d;stroke-linecap:round;stroke-linejoin:round;stroke-width:2px"/>
<path d="M35.92,52.763l9.285,2.247L51.67,42.357l2.192-4.892a22.566,22.566,0,0,1,1.467-2.749l4.42-7.062a1.713,1.713,0,0,0-.332-2.2h0a1.712,1.712,0,0,0-2.387.145L52.1,31.025,56.877,19.35a1.641,1.641,0,0,0-.46-1.874h0a1.64,1.64,0,0,0-2.5.474L48.172,28.6s2.2-9.082,3.149-13.014a1.833,1.833,0,0,0-1.361-2.213l-.044-.011a1.778,1.778,0,0,0-2.127,1.236l-4,13.768s.278-8.049.492-12.354a1.956,1.956,0,0,0-2.235-2.031L42,13.984a1.876,1.876,0,0,0-1.6,1.646l-1.8,15.825s-.783-2.833-1.357-4.929a2.206,2.206,0,0,0-2.794-1.518l-.051.016a2.142,2.142,0,0,0-1.475,2.4l1.581,9.485a11.2,11.2,0,0,0,3.654,6.572h0Z" style="fill:#ffe8dc;stroke:#4c241d;stroke-linecap:round;stroke-linejoin:round;stroke-width:2px"/>
<line x1="23" y1="54" x2="23" y2="56" style="fill:none;stroke:#4c241d;stroke-linecap:round;stroke-linejoin:round;stroke-width:2px"/>
<line x1="23" y1="60" x2="23" y2="62" style="fill:none;stroke:#4c241d;stroke-linecap:round;stroke-linejoin:round;stroke-width:2px"/>
<line x1="19" y1="58" x2="21" y2="58" style="fill:none;stroke:#4c241d;stroke-linecap:round;stroke-linejoin:round;stroke-width:2px"/>
<line x1="25" y1="58" x2="27" y2="58" style="fill:none;stroke:#4c241d;stroke-linecap:round;stroke-linejoin:round;stroke-width:2px"/>
<path d="M58.082,48.667A1.069,1.069,0,1,1,57.013,47.6,1.07,1.07,0,0,1,58.082,48.667Z" style="fill:#4c241d"/>
<path d="M47.4,54.067a6.209,6.209,0,1,1-4.574-7.5A6.209,6.209,0,0,1,47.4,54.067Z" style="fill:#f53e28;stroke:#4c241d;stroke-linecap:round;stroke-linejoin:round;stroke-width:2px"/>
<path d="M40.641,55.594a3.075,3.075,0,1,0-1.086-5.473,1.356,1.356,0,0,0,.329,2.349l.051.02a1.667,1.667,0,0,0,1.38-.076" style="fill:#f53e28;stroke:#4c241d;stroke-linecap:round;stroke-linejoin:round;stroke-width:2px"/>
</g>
</svg>