<?xml version="1.0" encoding="UTF-8" standalone="no"?>
<!-- Created with Inkscape (http://www.inkscape.org/) -->

<svg
   width="64pt"
   height="64pt"
   viewBox="0 0 22.577778 22.577778"
   version="1.1"
   id="svg831"
   inkscape:version="1.1.2 (b8e25be833, 2022-02-05)"
   sodipodi:docname="Export - Unblash - 64px.svg"
   inkscape:export-filename="E:\Project Design\TR Icon Design Project\Carlos - Icon Design Project\Done\FiledLine\03 - Tennis.png"
   inkscape:export-xdpi="576"
   inkscape:export-ydpi="576"
   xmlns:inkscape="http://www.inkscape.org/namespaces/inkscape"
   xmlns:sodipodi="http://sodipodi.sourceforge.net/DTD/sodipodi-0.dtd"
   xmlns="http://www.w3.org/2000/svg"
   xmlns:svg="http://www.w3.org/2000/svg"
   xmlns:rdf="http://www.w3.org/1999/02/22-rdf-syntax-ns#"
   xmlns:cc="http://creativecommons.org/ns#"
   xmlns:dc="http://purl.org/dc/elements/1.1/">
  <defs
     id="defs825">
    <pattern
       id="EMFhbasepattern"
       patternUnits="userSpaceOnUse"
       width="6"
       height="6"
       x="0"
       y="0" />
    <pattern
       id="EMFhbasepattern-9"
       patternUnits="userSpaceOnUse"
       width="6"
       height="6"
       x="0"
       y="0" />
    <pattern
       id="EMFhbasepattern-0"
       patternUnits="userSpaceOnUse"
       width="6"
       height="6"
       x="0"
       y="0" />
    <pattern
       id="EMFhbasepattern-7"
       patternUnits="userSpaceOnUse"
       width="6"
       height="6"
       x="0"
       y="0" />
    <pattern
       id="EMFhbasepattern-2"
       patternUnits="userSpaceOnUse"
       width="6"
       height="6"
       x="0"
       y="0" />
    <pattern
       id="EMFhbasepattern-98"
       patternUnits="userSpaceOnUse"
       width="6"
       height="6"
       x="0"
       y="0" />
    <pattern
       id="EMFhbasepattern-6"
       patternUnits="userSpaceOnUse"
       width="6"
       height="6"
       x="0"
       y="0" />
    <pattern
       id="EMFhbasepattern-01"
       patternUnits="userSpaceOnUse"
       width="6"
       height="6"
       x="0"
       y="0" />
    <pattern
       id="EMFhbasepattern-07"
       patternUnits="userSpaceOnUse"
       width="6"
       height="6"
       x="0"
       y="0" />
    <pattern
       id="EMFhbasepattern-8"
       patternUnits="userSpaceOnUse"
       width="6"
       height="6"
       x="0"
       y="0" />
    <pattern
       id="EMFhbasepattern-4"
       patternUnits="userSpaceOnUse"
       width="6"
       height="6"
       x="0"
       y="0" />
    <pattern
       id="EMFhbasepattern-40"
       patternUnits="userSpaceOnUse"
       width="6"
       height="6"
       x="0"
       y="0" />
    <pattern
       id="EMFhbasepattern-08"
       patternUnits="userSpaceOnUse"
       width="6"
       height="6"
       x="0"
       y="0" />
    <pattern
       id="EMFhbasepattern-04"
       patternUnits="userSpaceOnUse"
       width="6"
       height="6"
       x="0"
       y="0" />
    <pattern
       id="EMFhbasepattern-014"
       patternUnits="userSpaceOnUse"
       width="6"
       height="6"
       x="0"
       y="0" />
    <pattern
       id="EMFhbasepattern-27"
       patternUnits="userSpaceOnUse"
       width="6"
       height="6"
       x="0"
       y="0" />
    <pattern
       id="EMFhbasepattern-09"
       patternUnits="userSpaceOnUse"
       width="6"
       height="6"
       x="0"
       y="0" />
    <pattern
       id="EMFhbasepattern-5"
       patternUnits="userSpaceOnUse"
       width="6"
       height="6"
       x="0"
       y="0" />
    <pattern
       id="EMFhbasepattern-018"
       patternUnits="userSpaceOnUse"
       width="6"
       height="6"
       x="0"
       y="0" />
  </defs>
  <sodipodi:namedview
     id="base"
     pagecolor="#ffffff"
     bordercolor="#666666"
     borderopacity="1.0"
     inkscape:pageopacity="0.0"
     inkscape:pageshadow="2"
     inkscape:zoom="4.9552717"
     inkscape:cx="44.498065"
     inkscape:cy="42.177304"
     inkscape:document-units="pt"
     inkscape:current-layer="layer1"
     showgrid="false"
     units="pt"
     inkscape:window-width="958"
     inkscape:window-height="1041"
     inkscape:window-x="-7"
     inkscape:window-y="0"
     inkscape:window-maximized="0"
     inkscape:pagecheckerboard="true"
     inkscape:showpageshadow="false"
     inkscape:object-paths="true"
     inkscape:snap-intersection-paths="true"
     inkscape:snap-smooth-nodes="true"
     inkscape:snap-midpoints="true"
     showguides="true"
     inkscape:snap-bbox="true"
     inkscape:bbox-nodes="true"
     inkscape:snap-nodes="false"
     inkscape:snap-global="true"
     inkscape:snap-others="false">
    <inkscape:grid
       type="xygrid"
       id="grid1378" />
    <sodipodi:guide
       position="0.97013831,21.607643"
       orientation="78.000048,0"
       id="guide1380"
       inkscape:locked="false" />
    <sodipodi:guide
       position="0.97013831,0.97013129"
       orientation="0,78.000005"
       id="guide1382"
       inkscape:locked="false" />
    <sodipodi:guide
       position="21.607639,0.97013129"
       orientation="-78.000048,0"
       id="guide1384"
       inkscape:locked="false" />
    <sodipodi:guide
       position="21.607639,21.607643"
       orientation="0,-78.000005"
       id="guide1386"
       inkscape:locked="false" />
  </sodipodi:namedview>
  <metadata
     id="metadata828">
    <rdf:RDF>
      <cc:Work
         rdf:about="">
        <dc:format>image/svg+xml</dc:format>
        <dc:type
           rdf:resource="http://purl.org/dc/dcmitype/StillImage" />
      </cc:Work>
    </rdf:RDF>
  </metadata>
  <g
     inkscape:label="Icon"
     inkscape:groupmode="layer"
     id="layer1"
     transform="translate(0,-274.42223)">
    <g
       id="g508462"
       style="display:inline;stroke-width:0.794125"
       transform="matrix(1.2592477,0,0,1.2592477,-38.242634,-38.250861)">
      <g
         id="g402519"
         style="display:inline;stroke-width:0.794125">
        <path
           style="color:#000000;fill:#a8c2e1;stroke-width:0.794125;stroke-linecap:round;stroke-linejoin:round;-inkscape-stroke:none"
           d="m 41.179687,263.29094 v 0.81445 c 0,0.44733 0.346879,0.83398 0.792969,0.83398 0.44609,0 0.792969,-0.38665 0.792969,-0.83398 v -1.09961 z"
           id="path609722"
           sodipodi:nodetypes="cssscc" />
        <path
           style="color:#000000;fill:#a8c2e1;stroke-width:0.794125;stroke-linecap:round;stroke-linejoin:round;-inkscape-stroke:none"
           d="m 39.044285,263.67779 c 0.01177,0.0777 0.01821,0.1364 0.01821,0.14248 v 0.28516 c 0,0.44733 0.346879,0.83398 0.792969,0.83398 0.44609,0 0.794922,-0.38665 0.794922,-0.83398 v -0.28516 c 0,-0.006 0.0064,-0.0648 0.01821,-0.14249 z"
           id="path609704"
           sodipodi:nodetypes="cssssscc" />
        <path
           style="color:#000000;fill:#a8c2e1;stroke-width:0.794125;stroke-linecap:round;stroke-linejoin:round;-inkscape-stroke:none"
           d="m 34.298826,263.29108 v 0.81445 c 0,0.44733 0.348832,0.83398 0.794922,0.83398 0.44609,0 0.792969,-0.38665 0.792969,-0.83398 v -0.81445 z"
           id="path609710"
           sodipodi:nodetypes="cssscc" />
        <path
           style="color:#000000;fill:#a8c2e1;stroke-width:0.794125;stroke-linecap:round;stroke-linejoin:round;-inkscape-stroke:none"
           d="m 32.183594,263.33201 v 0.77344 c 0,0.44733 0.346878,0.83398 0.792968,0.83398 0.446091,0 0.794922,-0.38665 0.794922,-0.83398 V 263.291 Z"
           id="path609716"
           sodipodi:nodetypes="cssscc" />
        <path
           style="color:#000000;fill:#dc1c4b;fill-opacity:1;stroke-width:0.794125;stroke-linecap:round;stroke-linejoin:round;-inkscape-stroke:none"
           d="m 32.679687,258.15234 c -0.279609,-0.005 -0.518695,0.1662 -0.689453,0.40039 -0.172263,0.23626 -0.306111,0.5491 -0.421875,0.9336 -0.231527,0.769 -0.380014,1.82569 -0.427734,3.06054 a 0.26460996,0.26460996 0 0 0 0.265625,0.2754 h 12.421875 a 0.26460996,0.26460996 0 0 0 0.263672,-0.26563 v -0.44531 c -0.0013,-0.61307 -0.397705,-1.15707 -0.976563,-1.30078 l -2.638672,-0.65625 -3.130859,-1.53711 c -0.171394,-0.0868 -0.379857,-0.14614 -0.599609,-0.16211 -0.219752,-0.016 -0.462312,0.007 -0.660157,0.16992 -0.240994,0.19853 -0.403203,0.4395 -0.558593,0.60742 -0.15539,0.16792 -0.266765,0.25 -0.433594,0.25 -0.500784,0 -0.803845,-0.0809 -0.994141,-0.18164 -0.190295,-0.10078 -0.282151,-0.22133 -0.371093,-0.36914 -0.08894,-0.14781 -0.158535,-0.32837 -0.314454,-0.5 -0.153858,-0.16936 -0.413066,-0.28434 -0.734375,-0.2793 z"
           id="path17972" />
        <path
           id="path172785"
           style="color:#000000;fill:#b01d47;fill-opacity:1;stroke-width:0.794125;stroke-linecap:round;stroke-linejoin:round;-inkscape-stroke:none"
           d="m 32.679659,258.15223 c -0.279609,-0.005 -0.518604,0.16631 -0.689364,0.4005 -0.172262,0.23626 -0.305914,0.54929 -0.421679,0.93379 -0.231527,0.769 -0.380162,1.82543 -0.427879,3.06028 a 0.26460996,0.26460996 0 0 0 0.02066,0.10645 c 0.06266,-1.0534 0.202597,-1.95795 0.407209,-2.63756 0.115766,-0.3845 0.249418,-0.69754 0.42168,-0.9338 0.17076,-0.23419 0.409755,-0.40549 0.689364,-0.40049 0.32131,-0.005 0.580464,0.11021 0.734322,0.27957 0.155919,0.17163 0.225769,0.3519 0.314711,0.49971 0.08894,0.14781 0.18074,0.26871 0.371036,0.36949 0.190296,0.10074 0.493469,0.18138 0.994254,0.18138 0.16683,0 0.278175,-0.0822 0.433565,-0.25011 0.15539,-0.16792 0.317629,-0.40867 0.558623,-0.6072 0.197844,-0.16292 0.440155,-0.18601 0.659907,-0.17001 0.219753,0.016 0.428054,0.0755 0.599448,0.16226 l 3.131074,1.53686 2.6386,0.65629 c 0.560769,0.13922 0.950153,0.65443 0.975133,1.24385 a 0.26460996,0.26460996 0 0 0 0.0016,-0.0269 v -0.44545 c -0.0013,-0.61307 -0.397825,-1.15699 -0.976683,-1.3007 l -2.6386,-0.65629 -3.131074,-1.53686 c -0.171394,-0.0868 -0.379695,-0.14629 -0.599448,-0.16226 -0.219752,-0.016 -0.462063,0.007 -0.659907,0.17001 -0.240993,0.19853 -0.403233,0.43928 -0.558623,0.6072 -0.15539,0.16792 -0.266735,0.25012 -0.433565,0.25012 -0.500785,0 -0.803958,-0.0806 -0.994254,-0.18139 -0.190296,-0.10078 -0.282096,-0.22167 -0.371036,-0.36948 -0.08894,-0.14781 -0.158792,-0.32809 -0.314711,-0.49972 -0.153858,-0.16936 -0.413012,-0.28461 -0.734322,-0.27957 z" />
        <path
           style="color:#000000;fill:#d0e2ee;stroke-width:0.794125;stroke-linecap:round;stroke-linejoin:round;-inkscape-stroke:none"
           d="m 43.03125,263.80082 c 0.595774,0 1.063103,-0.51868 1.060547,-1.12695 v -0.38086 l -12.951172,-4e-5 v 0.26562 c 0,0.3732 0.09873,0.68334 0.287109,0.90821 0.188382,0.22486 0.455964,0.349 0.734375,0.39257 z"
           id="path17984"
           sodipodi:nodetypes="cccccccc" />
        <path
           style="color:#000000;fill:#ececec;stroke-width:0.794125;stroke-linecap:round;stroke-linejoin:round;-inkscape-stroke:none"
           d="m 43.125,249.63086 c -1.944114,-0.24038 -3.936602,0.6753 -4.976563,2.47656 -1.386613,2.40169 -0.561843,5.48058 1.839844,6.86719 2.401683,1.38661 5.480574,0.56184 6.867188,-1.83984 1.386615,-2.40169 0.56184,-5.48058 -1.839844,-6.86719 -0.600421,-0.34666 -1.242587,-0.55659 -1.890625,-0.63672 z"
           id="path21658" />
        <path
           style="color:#000000;fill:#4d545c;stroke-width:0.794125;stroke-linecap:round;stroke-linejoin:round;-inkscape-stroke:none"
           d="m 40.236328,253.60742 a 0.26460996,0.26460996 0 0 0 -0.228516,0.13281 l -0.888671,1.54102 a 0.26460996,0.26460996 0 0 0 0,0.26562 l 0.888671,1.54102 a 0.26460996,0.26460996 0 0 0 0.228516,0.13281 h 1.78125 a 0.26460996,0.26460996 0 0 0 0.228516,-0.13281 l 0.890625,-1.54102 a 0.26460996,0.26460996 0 0 0 0,-0.26562 l -0.890625,-1.54102 a 0.26460996,0.26460996 0 0 0 -0.228516,-0.13281 z"
           id="path44654" />
        <path
           style="color:#000000;fill:#ececec;fill-opacity:1;stroke-width:0.794125;stroke-linecap:round;stroke-linejoin:round;-inkscape-stroke:none"
           d="m 43.058594,252.5957 h 1.474609 l 0.736328,1.27735 -0.736328,1.27734 h -1.474609 l -0.736328,-1.27734 z"
           id="path43621" />
        <path
           id="path36253"
           style="color:#000000;fill:#4d545c;stroke-width:0.794125;stroke-linecap:round;stroke-linejoin:round;-inkscape-stroke:none"
           d="m 45.421519,250.52893 c -0.321458,0.55677 -0.642786,1.11332 -0.964284,1.67018 a 0.26460996,0.26460996 0 0 0 0,0.26562 l 0.890386,1.54099 a 0.26460996,0.26460996 0 0 0 0.22841,0.13126 h 1.928564 c -0.138089,-1.40962 -0.86759,-2.74254 -2.083076,-3.60805 z" />
        <path
           style="color:#000000;fill:#ececec;fill-opacity:1;stroke-width:0.794125;stroke-linecap:round;stroke-linejoin:round;-inkscape-stroke:none"
           d="m 40.390625,251.05469 h 1.472656 l 0.738281,1.27734 -0.738281,1.27539 h -1.472656 l -0.738281,-1.27539 z"
           id="path39895" />
        <path
           id="path41470"
           style="color:#000000;fill:#ececec;fill-opacity:1;stroke-width:0.794125;stroke-linecap:round;stroke-linejoin:round;-inkscape-stroke:none"
           d="m 37.901048,252.59547 c -0.363318,0.8233 -0.487982,1.70375 -0.396875,2.55488 h 1.691367 l 0.735875,-1.27744 -0.735875,-1.27744 z" />
        <path
           id="path37705"
           style="color:#000000;fill:#ececec;fill-opacity:1;stroke-width:0.794125;stroke-linecap:round;stroke-linejoin:round;-inkscape-stroke:none"
           d="m 42.99996,249.61787 -0.214974,0.37259 -0.462505,0.80047 0.737942,1.27537 h 1.472776 l 0.740008,-1.27899 0.148828,-0.25787 c -0.130037,-0.0926 -0.265136,-0.18057 -0.406177,-0.26199 -0.600422,-0.34666 -1.242804,-0.55653 -1.89084,-0.63666 -0.04164,-0.005 -0.08338,-0.009 -0.125058,-0.0129 z" />
        <path
           style="color:#000000;fill:#ececec;fill-opacity:1;stroke-width:0.794125;stroke-linecap:round;stroke-linejoin:round;-inkscape-stroke:none"
           d="m 43.058594,255.67773 h 1.474609 l 0.736328,1.27735 -0.736328,1.27734 h -1.474609 l -0.736328,-1.27734 z"
           id="path33066" />
        <path
           id="path34664"
           style="color:#000000;fill:#ececec;fill-opacity:1;stroke-width:0.794125;stroke-linecap:round;stroke-linejoin:round;-inkscape-stroke:none"
           d="m 45.728476,254.13698 -0.736389,1.27692 0.736389,1.27744 h 1.354439 c 0.372173,-0.82159 0.505198,-1.70182 0.42168,-2.55436 z" />
        <path
           id="path31770"
           style="color:#000000;fill:#ececec;fill-opacity:1;stroke-width:0.794125;stroke-linecap:round;stroke-linejoin:round;-inkscape-stroke:none"
           d="m 43.058353,258.7615 c -0.170258,0.2952 -0.340516,0.59041 -0.510564,0.88573 0.761267,-0.008 1.512105,-0.18918 2.192631,-0.52658 l -0.207224,-0.35915 z"
           sodipodi:nodetypes="ccccc" />
        <path
           id="path39151"
           style="color:#000000;fill:#ececec;fill-opacity:1;stroke-width:0.794125;stroke-linecap:round;stroke-linejoin:round;-inkscape-stroke:none"
           d="m 39.724191,250.43178 c -0.616344,0.40767 -1.151242,0.95732 -1.55081,1.63452 h 1.022159 l 0.735875,-1.27537 z" />
        <path
           id="path24186"
           style="color:#000000;fill:#ececec;fill-opacity:1;stroke-width:0.794125;stroke-linecap:round;stroke-linejoin:round;-inkscape-stroke:none"
           d="m 37.588921,255.67797 c 0.21771,1.01022 0.744303,1.95079 1.537891,2.66908 l 0.804603,-1.39216 -0.735875,-1.27692 z" />
        <path
           id="path28684"
           style="color:#000000;fill:#ececec;fill-opacity:1;stroke-width:0.794125;stroke-linecap:round;stroke-linejoin:round;-inkscape-stroke:none"
           d="m 40.390816,257.22051 -0.846976,1.46554 c 0.141531,0.10281 0.289613,0.19898 0.444418,0.28836 0.623102,0.35974 1.291849,0.57076 1.964738,0.64389 l 0.648539,-1.12242 -0.738455,-1.27537 z" />
        <path
           id="path49549"
           style="color:#000000;fill:#4d545c;fill-opacity:1;stroke-width:0.794125;stroke-linecap:round;stroke-linejoin:round;-inkscape-stroke:none"
           d="m 45.576031,256.69134 a 0.26460996,0.26460996 0 0 0 -0.22841,0.13074 l -0.890386,1.54099 a 0.26460996,0.26460996 0 0 0 0,0.26562 l 0.284221,0.49144 c 0.856197,-0.42473 1.601118,-1.09693 2.114084,-1.9854 0.08396,-0.14542 0.159493,-0.29353 0.227375,-0.44339 z" />
        <path
           id="path54545"
           style="color:#000000;fill:#4d545c;fill-opacity:1;stroke-width:0.794125;stroke-linecap:round;stroke-linejoin:round;-inkscape-stroke:none"
           d="m 39.724191,250.43178 0.283705,0.49196 c 0.04753,0.081 0.134462,0.1308 0.228409,0.13074 h 1.781286 c 0.09395,6e-5 0.180881,-0.0497 0.22841,-0.13074 l 0.753959,-1.30587 c -1.132619,-0.097 -2.460433,0.28798 -3.275769,0.81391 z"
           sodipodi:nodetypes="ccccccc" />
      </g>
      <path
         id="path72626"
         style="color:#000000;fill:#000000;stroke-width:3.00142;stroke-linecap:round;stroke-linejoin:round;-inkscape-stroke:none"
         d="m 144.18359,-105.67188 c -5.24074,9.077258 -2.12411,20.712399 6.95313,25.95313 9.07723,5.240731 20.71433,2.124091 26.02928,-7.084958 5.10512,-9.16964 1.96239,-20.633012 -7.02736,-25.823232 -3.12795,-1.66157 -5.73223,-2.54688 -9.21483,-2.54689 -6.65989,-0.089 -13.17815,3.33228 -16.74022,9.50195 z m 17.22852,-7.49218 c 0.44042,0.02 0.88211,0.0545 1.32227,0.10937 2.19149,0.27288 4.36509,0.98116 6.40039,2.15625 0.53562,0.30925 1.04653,0.64383 1.53515,1 l -2.35156,4.07032 h -5.57227 l -2.78711,-4.82032 z m -2.34375,0.0527 -0.84375,1.45899 h -4.63477 c 1.73105,-0.78777 3.58444,-1.28265 5.47852,-1.45899 z m -8.66016,3.35156 -2.26758,3.93165 h -1.49414 c 1.0592,-1.54031 2.33508,-2.85614 3.76172,-3.93165 z m 2.25,0.10743 h 5.5625 l 2.78907,4.82812 c -0.92797,1.60738 -1.85737,3.21394 -2.78711,4.82031 h -5.56446 c -0.93245,-1.60582 -1.86063,-3.21411 -2.78906,-4.82226 z m 19.57422,1.04101 c 2.52457,2.34785 4.22115,5.36471 4.9707,8.60742 h -4.37109 l -1.39062,-2.41015 -1.39063,-2.41211 z m -26.77344,4.78321 h 2.67774 l 2.78516,4.82812 -2.78516,4.828125 h -4.38477 c -0.3834,-3.219279 0.14909,-6.573885 1.70703,-9.656245 z m 17.29297,0 h 5.56055 l 0.68555,1.1875 2.09961,3.64062 -2.09961,3.640625 -0.68555,1.1875 h -5.56055 L 159.95898,-99 Z m -10.09375,5.826167 h 5.56446 l 2.78711,4.826172 -2.78907,4.828125 h -5.56054 l -2.78907,-4.828125 z m 20.17578,0 h 4.70704 c 0.34997,3.226336 -0.21826,6.580352 -1.81641,9.654297 h -2.89063 l -2.7832,-4.828125 z m -28.72265,5.824219 h 4.02734 l 2.78321,4.826172 -2.00977,3.490234 c -2.40942,-2.288292 -4.04513,-5.194156 -4.80078,-8.316406 z m 26.98633,4.826172 -2.78321,4.828124 h -5.5625 l -2.79297,-4.829124 2.79102,-4.825172 h 5.56445 z m -18.43946,1.003906 h 5.56446 c 0.93061,1.606886 1.85969,3.214658 2.78906,4.822265 l -1.3457,2.330079 c -2.56758,-0.146839 -5.14223,-0.881884 -7.5254,-2.257813 -0.58773,-0.339326 -1.14665,-0.707946 -1.67773,-1.103516 z m 20.17188,0 h 1.67578 c -1.12233,1.589227 -2.47643,2.934691 -3.99024,4.015625 z m -51.92188,5.050781 c -0.65009,0.898394 -1.15646,2.090447 -1.59375,3.550781 -0.20076,0.670482 -0.38577,1.399693 -0.55473,2.190428 -0.55976,2.624548 -0.92397,5.819405 -1.06254,9.405271 -0.0445,1.151433 0.36459,2.230955 1.04101,3.070313 0.34475,0.429214 0.97157,0.499055 1.40234,0.15625 0.43364,-0.345903 0.50287,-0.978663 0.1543,-1.410156 -0.389,-0.482722 -0.62193,-1.11403 -0.59765,-1.742188 0.11921,-3.085095 0.4147,-5.866799 0.83984,-8.167969 0.82943,0.289127 1.70898,1.011281 2.44531,2.136719 0.83487,1.276028 1.44895,3.016011 1.61133,4.931641 h -1.95898 c -0.55229,0.0022 -0.99826,0.451617 -0.9961,1.003906 0.002,0.54924 0.44686,0.993956 0.9961,0.996094 h 41.95117 c -0.21806,1.002054 -1.02411,1.697265 -1.94727,1.697265 h -40.20312 c -0.55,0.0021 -0.99503,0.448044 -0.9961,0.998047 0.003,0.211465 0.0725,0.416605 0.19922,0.585938 v 1.568359 c 0,1.690696 1.31204,3.152344 2.99805,3.152344 1.68601,0 3.0039,-1.461648 3.0039,-3.152344 l 0.0117,-1.150395 h 1.96875 l 0.012,1.150435 c 0,1.690696 1.31985,3.152344 3.00586,3.152344 1.68601,0 2.9961,-1.461648 2.9961,-3.152344 l 0.0117,-1.150395 H 147.625 l 0.0137,1.150435 c 0,1.690696 1.31009,3.152344 2.9961,3.152344 1.68601,0 3.0039,-1.461648 3.0039,-3.152344 l 0.0137,-1.150395 h 1.97657 l 0.0117,1.150435 c 0,1.690696 1.31009,3.152344 2.9961,3.152344 1.68601,0 2.99805,-1.461648 2.99805,-3.152344 v -1.15039 h 1.0039 c 2.25175,0 4.01747,-1.960793 4.00781,-4.259766 v -2.126953 c -0.005,-2.317115 -1.50359,-4.37286 -3.6914,-4.916016 l -9.97266,-2.480469 -11.83398,-5.808593 c -0.64779,-0.328063 -1.43507,-0.552923 -2.26563,-0.613282 -0.83056,-0.06047 -1.74638,0.02682 -2.49414,0.642579 -0.91084,0.750349 -1.52403,1.660263 -2.11133,2.294921 -0.5873,0.634659 -1.00813,0.945313 -1.63867,0.945313 -1.89273,0 -3.03858,-0.304797 -3.75781,-0.685547 -0.71923,-0.380901 -1.06619,-0.837832 -1.40234,-1.396484 -0.33616,-0.558652 -0.60016,-1.239992 -1.18946,-1.888672 -0.58151,-0.640101 -1.56099,-1.07569 -2.77541,-1.056699 -1.06065,-0.01896 -1.96107,0.638669 -2.6055,1.529239 z m 2.56837,0.449219 c 0.0176,4.64e-4 0.0352,4.64e-4 0.0527,0 0.82868,-0.02268 1.02285,0.135273 1.2832,0.421875 0.26033,0.286488 0.52278,0.862963 0.95312,1.578125 0.43035,0.715162 1.08815,1.545775 2.18555,2.126953 1.09568,0.580265 2.57574,0.914968 4.67774,0.916015 l 1.625,2.69336 -3.58008,2.066406 c -0.46669,0.26945 -0.63597,0.860217 -0.38281,1.335938 l 1.3496,2.533203 h -5.03906 c -0.16423,-2.302818 -0.88648,-4.403956 -1.95117,-6.03125 -0.95878,-1.465452 -2.23071,-2.595508 -3.68945,-3.009766 0.0846,-0.335587 0.17261,-0.656844 0.26367,-0.960937 0.39795,-1.328958 0.86389,-2.343524 1.30078,-2.947266 0.43689,-0.60378 0.73658,-0.728779 0.95117,-0.722656 z m 39.26953,0.324218 h 4.54297 c -1.68163,0.714187 -3.47141,1.154022 -5.29492,1.300782 z m -22.75195,1.130901 -2.29883,2.472656 c -0.3794,0.404889 -0.35661,1.041256 0.0508,1.417969 0.40442,0.373631 1.03478,0.350058 1.41016,-0.05273 l 2.7207,-2.927734 2.24414,1.103516 -1.18554,1.277344 c -0.37414,0.403888 -0.35144,1.034225 0.0508,1.410156 0.40389,0.374136 1.03422,0.351437 1.41015,-0.05078 l 1.59766,-1.716796 5.03906,2.474609 -0.10351,0.105469 c -0.38783,0.390056 -0.38783,1.0201 0,1.410156 0.39095,0.393035 1.02702,0.393035 1.41797,0 l 0.70703,-0.707031 9.41992,2.33789 c 1.23621,0.306898 2.16865,1.519103 2.17187,2.982422 v 0.679688 H 133.9043 l -1.39258,-2.613281 3.625,-2.097657 c 0.48152,-0.280803 0.64054,-0.901071 0.35351,-1.378906 l -1.89257,-3.134766 c 0.44309,-0.282296 0.82419,-0.634 1.14843,-0.984375 0.72794,-0.786633 1.30966,-1.6102 1.91797,-2.111328 0.11066,-0.09127 0.43901,-0.199637 0.97364,-0.196292 0.52214,0.03394 0.99529,0.15782 1.35645,0.299801 z m -1.35552,8.214803 c -0.55534,-0.0022 -1.00607,0.448569 -1.0039,1.003906 0.001,0.553048 0.45086,1.000205 1.0039,0.998047 h 7.9961 c 0.55304,0.0022 1.00282,-0.444999 1.0039,-0.998047 0.002,-0.555337 -0.44856,-1.006076 -1.0039,-1.003906 z m -15,9.701172 h 2.00586 l -0.004,1.150395 c 0,0.686022 -0.48077,1.152344 -1.0039,1.152344 -0.52313,0 -0.9981,-0.466322 -0.99805,-1.152344 z m 7.99219,0 h 2.00781 l -0.004,1.150395 c 0,0.686022 -0.47297,1.152344 -0.9961,1.152344 -0.52312,0 -1.0039,-0.466322 -1.0039,-1.152344 z m 18.00391,0 h 2.00781 l -0.004,1.150395 c 0,0.686022 -0.48078,1.152344 -1.0039,1.152344 -0.52313,0 -0.9961,-0.466322 -0.9961,-1.152344 z m 8.00195,0 h 1.99609 v 1.15039 c 0,0.686022 -0.47296,1.152344 -0.99609,1.152344 -0.52313,0 -0.99609,-0.466322 -0.9961,-1.152344 z"
         transform="matrix(0.26458334,0,0,0.26458334,0,280.06666)"
         sodipodi:nodetypes="sscccscsccccccccccccccccccccccccccccccccccccccccccccccccccccccccccccccccccccccscccccccscccccccsccsccscccsssccccsccccsccccscscccccccsscssccscssccccccscsscccccsscccccccccccccccccccccscsccccsccccssccccccccccccccccccccsscc" />
    </g>
  </g>
</svg>
