<?xml version="1.0" encoding="UTF-8"?>
<!-- Generated by Pixelmator Pro 3.5.5 -->
<svg width="512" height="512" viewBox="0 0 512 512" xmlns="http://www.w3.org/2000/svg">
    <g id="FILLEDOUTLINE">
        <path id="Pfad" fill="#f9b7b7" stroke="none" d="M 280 208 L 280 72 L 120 40 L 152 152 L 147.593506 169.625854 C 145.565796 177.736786 150.124634 186.041443 158.056152 188.685303 L 168 192 L 177.417999 210.835938 C 181.595688 219.191284 189.215851 225.303955 198.278534 227.56958 L 206.686676 229.67157 C 212.419235 231.104736 216.895233 235.58075 218.3284 241.313293 L 224 264 L 296 256 Z"/>
        <path id="path1" fill="#0071af" stroke="none" d="M 293.76001 233.720001 C 290.045685 232.611755 286.05542 232.888916 282.529999 234.5 L 230.169998 258.450012 C 202.003708 271.59668 184.00061 299.866638 184 330.950012 L 184 488 L 320 488 L 320 487.939941 C 320.030731 479.125854 327.185883 471.997589 336 472 L 336 246.330017 Z"/>
        <path id="path2" fill="#f9b7b7" stroke="none" d="M 136 280 L 132.891846 267.567383 C 129.809814 255.239105 121.141457 245.060608 109.461243 240.05481 L 105.330994 238.284668 C 86.338127 230.144897 64.260513 237.544067 54.00848 255.485107 L 54.00848 255.485107 C 45.585258 270.225739 47.206852 288.648163 58.075619 301.690674 L 67.807564 313.368988 C 75.533134 322.63974 86.977455 328 99.045227 328 L 104 328 L 184 400 L 184 320 Z"/>
        <path id="path3" fill="#ea8383" stroke="none" d="M 172.422348 136.844727 L 188.422363 128.844727 L 195.577637 143.155273 L 179.577637 151.155273 Z"/>
        <path id="path4" fill="#d27676" stroke="none" d="M 80 24 L 256 24 C 300.18277 24 336 59.81723 336 104 L 336 123.017792 C 336 131.616364 334.61377 140.158691 331.894653 148.31601 L 329.358429 155.924744 C 323.319458 174.041656 310.998871 189.400696 294.623413 199.225952 L 280 208 L 262.427307 178.712158 C 258.649933 172.416565 259.641998 164.358032 264.833466 159.166504 L 271.977417 152.022583 C 276.95459 147.04541 278.955444 139.821777 277.248291 132.993103 L 277.248291 132.993103 C 275.894531 127.578156 272.343628 122.973206 267.450775 120.287292 C 262.557892 117.601349 256.766479 117.077881 251.471283 118.842957 L 248 120 L 246.581665 112.908356 C 244.865448 104.32724 239.709808 96.823364 232.315094 92.143738 C 224.920364 87.464111 215.931763 86.01709 207.442001 88.139526 L 181.946808 94.513306 C 142.196304 104.450928 101.363007 82.748291 87.360489 44.241302 Z"/>
        <path id="path5" fill="#ea8383" stroke="none" d="M 223.155273 195.577637 L 208.844727 188.422363 C 205.317383 195.536713 198.052078 200.026825 190.111328 200 L 172 200 L 177.417999 210.835938 C 178.332474 212.656738 179.418915 214.385956 180.662476 216 L 190.111328 216 C 204.118301 216.047668 216.933838 208.127197 223.155273 195.577637 Z"/>
        <path id="path6" fill="#d49c9c" stroke="none" d="M 146.254089 366.028687 L 184 400 L 184 320 L 177.256531 314.380371 C 170.915085 333.698425 160.320831 351.347839 146.254089 366.028687 Z"/>
        <path id="path7" fill="#006095" stroke="none" d="M 184 484.880005 L 184 488 L 320 488 L 320 487.939941 C 320.030731 479.125854 327.185883 471.997589 336 472 L 336 401.310059 C 296.630981 446.042114 242.862823 475.603973 184 484.880005 Z"/>
        <path id="path8" fill="#f9b7b7" stroke="none" d="M 396.450012 348.730011 L 362.920013 457.700012 C 357.937561 473.894318 343.894562 485.64212 327.07489 487.686493 C 310.255219 489.730865 293.806824 481.68924 285.090057 467.160004 L 284.550049 466.260101 C 281.540527 461.259979 279.59021 455.694916 278.820038 449.910004 C 278.810059 449.82016 278.800049 449.740082 278.790039 449.649994 C 277.850037 442.395721 278.782959 435.021606 281.5 428.230011 L 283.540009 423.149933 C 287.440674 413.389587 294.788879 405.400909 304.190002 400.700012 L 321.600006 392 L 328.839996 366.640015 C 333.993439 348.649017 326.183929 329.465912 309.929993 320.189941 C 291.610931 309.719452 284.644379 286.773834 294.049896 267.885864 C 303.455383 248.997894 325.964966 240.730286 345.359985 249.039978 L 351.5 251.669861 C 389.086975 267.780762 408.474213 309.643433 396.450012 348.730011 Z"/>
        <path id="path9" fill="#d49c9c" stroke="none" d="M 392.920013 292.329987 C 392.894257 292.300476 392.873932 292.266602 392.859985 292.230011 C 376.982086 357.645874 336.008636 414.19043 278.790009 449.649902 C 278.799988 449.73999 278.809998 449.820068 278.820007 449.909912 C 279.590179 455.694824 281.540466 461.259888 284.549988 466.26001 L 285.089996 467.159912 C 293.807159 481.688568 310.255341 489.729767 327.074738 487.685425 C 343.894135 485.641052 357.937073 473.893768 362.920013 457.69989 L 396.450012 348.729889 C 402.186859 330.128082 400.931549 310.07132 392.920013 292.329987 Z"/>
        <path id="path10" fill="#000000" stroke="none" opacity="0.15" d="M 407.980011 360.089996 C 407.978638 360.079041 407.9823 360.068024 407.98999 360.060089 L 407.98999 360.079987 C 407.98999 360.089996 407.980011 360.099976 407.980011 360.109985 Z"/>
        <path id="path11" fill="#000000" stroke="none" opacity="0.15" d="M 407.98999 352.140015 C 407.983215 352.159241 407.979828 352.179535 407.980011 352.199951 L 407.980011 352.159943 C 407.98999 352.149902 407.98999 352.149902 407.98999 352.140015 Z"/>
        <path id="path12" fill="#000000" stroke="none" opacity="0.15" d="M 408.01001 336.01001 L 408 336 L 408.01001 336 Z"/>
        <path id="path13" fill="#000000" stroke="none" opacity="0.15" d="M 408.019989 351.929932 C 408.01001 352 408 352.079926 407.98999 352.130005 L 407.98999 352.060059 C 407.998169 352.041138 408.001587 352.020538 408 352 C 408.007233 351.984375 408.010681 351.967224 408.01001 351.950012 C 408.01001 351.939941 408.01001 351.939941 408.019989 351.929932 Z"/>
        <path id="path14" fill="#000000" stroke="none" opacity="0.15" d="M 408.029999 351.859985 C 408.030457 351.873962 408.026978 351.887787 408.019989 351.899902 L 408.019989 351.869995 Z"/>
        <path id="path15" fill="#000000" stroke="none" opacity="0.15" d="M 408.040009 359.859985 C 408.070007 359.779999 408.089996 359.730011 408.100006 359.700012 C 408.079987 359.770081 408.040009 359.929993 408 360.079987 L 408 360.029999 L 407.98999 360.059998 C 407.989563 360.04599 407.993042 360.032166 408 360.019989 L 408 360 L 408.01001 359.959991 L 408.01001 359.929993 L 408.019989 359.929993 C 408.029999 359.890076 408.029999 359.870056 408.029999 359.890076 C 408.037689 359.88208 408.041351 359.871033 408.040009 359.859985 Z"/>
        <path id="path16" fill="#000000" stroke="none" opacity="0.15" d="M 424 312 L 424 311.98999 C 423.899994 311.140015 424.059998 312.25 424.059998 312.320068 C 424.029572 312.219025 424.009491 312.115112 424 312.01001 Z"/>
        <path id="path17" fill="#000000" stroke="none" d="M 172.422348 136.844727 L 188.422363 128.844727 L 195.577637 143.155273 L 179.577637 151.155273 Z"/>
    </g>
</svg>
