<?xml version="1.0" encoding="UTF-8"?>
<!DOCTYPE svg PUBLIC "-//W3C//DTD SVG 1.1//EN" "http://www.w3.org/Graphics/SVG/1.1/DTD/svg11.dtd">
<!-- Creator: CorelDRAW X6 -->
<svg xmlns="http://www.w3.org/2000/svg" xml:space="preserve" width="100%" height="100%" version="1.1" style="shape-rendering:geometricPrecision; text-rendering:geometricPrecision; image-rendering:optimizeQuality; fill-rule:evenodd; clip-rule:evenodd"
viewBox="0 0 500 500"
 xmlns:xlink="http://www.w3.org/1999/xlink">
 <defs>
  <style type="text/css">
   <![CDATA[
    .fil1 {fill:#008EED}
    .fil2 {fill:#CBCBCB}
    .fil4 {fill:#D8D8D8}
    .fil3 {fill:#E5E5E5}
    .fil5 {fill:#F2F2F2}
   ]]>
  </style>
 </defs>
 <g id="Layer_x0020_1">
  <metadata id="CorelCorpID_0Corel-Layer"/>
  <path class="fil1" d="M465 465c-19,19 -53,21 -70,0l-110 -133 47 -47 133 110c21,17 19,51 0,70z"/>
  <path class="fil2" d="M194 193l122 123c-68,67 -177,67 -245,0 -68,-68 -68,-177 0,-245l123 122z"/>
  <path class="fil3" d="M194 193l95 96c-53,53 -138,53 -191,0 -53,-53 -53,-139 0,-191l96 95z"/>
  <path class="fil4" d="M194 193l122 123c68,-68 68,-177 0,-245 -68,-68 -177,-68 -245,0l123 122z"/>
  <path class="fil5" d="M194 193l95 96c53,-53 53,-139 0,-191 -53,-53 -138,-53 -191,0l96 95z"/>
 </g>
</svg>
