<?xml version="1.0" encoding="utf-8"?><!-- Uploaded to: SVG Repo, www.svgrepo.com, Generator: SVG Repo Mixer Tools -->
<svg width="800px" height="800px" viewBox="0 0 48 48" fill="none" xmlns="http://www.w3.org/2000/svg">
<rect width="48" height="48" fill="white" fill-opacity="0.01"/>
<path d="M44 4H28V12H44V4Z" stroke="#000000" stroke-width="4" stroke-miterlimit="2" stroke-linecap="round" stroke-linejoin="round"/>
<path d="M44 12V34C44 35.11 43.11 36 42 36H8C5.79 36 4 34.21 4 32V26C4 21.58 7.58 18 12 18H28V12H44Z" fill="#2F88FF" stroke="#000000" stroke-width="4" stroke-miterlimit="2" stroke-linecap="round" stroke-linejoin="round"/>
<path d="M14 24V18" stroke="white" stroke-width="4" stroke-miterlimit="2" stroke-linecap="round" stroke-linejoin="round"/>
<path d="M21 24V18" stroke="white" stroke-width="4" stroke-miterlimit="2" stroke-linecap="round" stroke-linejoin="round"/>
<path d="M14 44V36" stroke="#000000" stroke-width="4" stroke-miterlimit="2" stroke-linecap="round" stroke-linejoin="round"/>
<path d="M36 44V36" stroke="#000000" stroke-width="4" stroke-miterlimit="2" stroke-linecap="round" stroke-linejoin="round"/>
<path d="M23 18L12 18" stroke="#000000" stroke-width="4" stroke-miterlimit="2" stroke-linecap="round" stroke-linejoin="round"/>
<path d="M44 44H6C4.89 44 4 43.1 4 42V40.63" stroke="#000000" stroke-width="4" stroke-miterlimit="2" stroke-linecap="round" stroke-linejoin="round"/>
</svg>