<?xml version="1.0" encoding="UTF-8" standalone="no"?>
<svg
   xmlns:dc="http://purl.org/dc/elements/1.1/"
   xmlns:cc="http://creativecommons.org/ns#"
   xmlns:rdf="http://www.w3.org/1999/02/22-rdf-syntax-ns#"
   xmlns:svg="http://www.w3.org/2000/svg"
   xmlns="http://www.w3.org/2000/svg"
   xmlns:sodipodi="http://sodipodi.sourceforge.net/DTD/sodipodi-0.dtd"
   xmlns:inkscape="http://www.inkscape.org/namespaces/inkscape"
   inkscape:export-ydpi="576"
   inkscape:export-xdpi="576"
   inkscape:export-filename="D:\september#1\export\filled line\png\20 - Olympic Torch.png"
   width="64pt"
   height="64pt"
   viewBox="0 0 22.577778 22.577778"
   version="1.1"
   id="svg831"
   inkscape:version="1.0 (4035a4fb49, 2020-05-01)"
   sodipodi:docname="21 - Swim.svg">
  <defs
     id="defs825">
    <pattern
       id="EMFhbasepattern"
       patternUnits="userSpaceOnUse"
       width="6"
       height="6"
       x="0"
       y="0" />
    <pattern
       id="EMFhbasepattern-9"
       patternUnits="userSpaceOnUse"
       width="6"
       height="6"
       x="0"
       y="0" />
    <pattern
       id="EMFhbasepattern-0"
       patternUnits="userSpaceOnUse"
       width="6"
       height="6"
       x="0"
       y="0" />
    <pattern
       id="EMFhbasepattern-7"
       patternUnits="userSpaceOnUse"
       width="6"
       height="6"
       x="0"
       y="0" />
    <pattern
       id="EMFhbasepattern-2"
       patternUnits="userSpaceOnUse"
       width="6"
       height="6"
       x="0"
       y="0" />
    <pattern
       id="EMFhbasepattern-98"
       patternUnits="userSpaceOnUse"
       width="6"
       height="6"
       x="0"
       y="0" />
    <pattern
       id="EMFhbasepattern-6"
       patternUnits="userSpaceOnUse"
       width="6"
       height="6"
       x="0"
       y="0" />
    <pattern
       id="EMFhbasepattern-01"
       patternUnits="userSpaceOnUse"
       width="6"
       height="6"
       x="0"
       y="0" />
    <pattern
       id="EMFhbasepattern-07"
       patternUnits="userSpaceOnUse"
       width="6"
       height="6"
       x="0"
       y="0" />
    <pattern
       id="EMFhbasepattern-8"
       patternUnits="userSpaceOnUse"
       width="6"
       height="6"
       x="0"
       y="0" />
    <pattern
       id="EMFhbasepattern-4"
       patternUnits="userSpaceOnUse"
       width="6"
       height="6"
       x="0"
       y="0" />
    <pattern
       id="EMFhbasepattern-40"
       patternUnits="userSpaceOnUse"
       width="6"
       height="6"
       x="0"
       y="0" />
    <pattern
       id="EMFhbasepattern-08"
       patternUnits="userSpaceOnUse"
       width="6"
       height="6"
       x="0"
       y="0" />
    <pattern
       id="EMFhbasepattern-04"
       patternUnits="userSpaceOnUse"
       width="6"
       height="6"
       x="0"
       y="0" />
    <pattern
       id="EMFhbasepattern-014"
       patternUnits="userSpaceOnUse"
       width="6"
       height="6"
       x="0"
       y="0" />
    <pattern
       id="EMFhbasepattern-27"
       patternUnits="userSpaceOnUse"
       width="6"
       height="6"
       x="0"
       y="0" />
    <pattern
       id="EMFhbasepattern-09"
       patternUnits="userSpaceOnUse"
       width="6"
       height="6"
       x="0"
       y="0" />
    <pattern
       id="EMFhbasepattern-5"
       patternUnits="userSpaceOnUse"
       width="6"
       height="6"
       x="0"
       y="0" />
    <pattern
       id="EMFhbasepattern-018"
       patternUnits="userSpaceOnUse"
       width="6"
       height="6"
       x="0"
       y="0" />
  </defs>
  <sodipodi:namedview
     id="base"
     pagecolor="#ffffff"
     bordercolor="#666666"
     borderopacity="1.0"
     inkscape:pageopacity="0.0"
     inkscape:pageshadow="2"
     inkscape:zoom="6.0079346"
     inkscape:cx="42.666667"
     inkscape:cy="42.666667"
     inkscape:document-units="pt"
     inkscape:current-layer="layer1"
     showgrid="false"
     units="pt"
     inkscape:window-width="1366"
     inkscape:window-height="705"
     inkscape:window-x="-8"
     inkscape:window-y="-8"
     inkscape:window-maximized="1"
     inkscape:pagecheckerboard="true"
     inkscape:showpageshadow="false"
     inkscape:object-paths="true"
     inkscape:snap-intersection-paths="true"
     inkscape:snap-smooth-nodes="true"
     inkscape:snap-midpoints="true"
     showguides="true"
     inkscape:snap-bbox="true"
     inkscape:bbox-nodes="true"
     inkscape:snap-nodes="false"
     inkscape:snap-global="true"
     inkscape:document-rotation="0">
    <inkscape:grid
       type="xygrid"
       id="grid1378" />
    <sodipodi:guide
       position="0.97013831,21.607643"
       orientation="78.000048,0"
       id="guide1380"
       inkscape:locked="false" />
    <sodipodi:guide
       position="0.97013831,0.97013129"
       orientation="0,78.000005"
       id="guide1382"
       inkscape:locked="false" />
    <sodipodi:guide
       position="21.607639,0.97013129"
       orientation="-78.000048,0"
       id="guide1384"
       inkscape:locked="false" />
    <sodipodi:guide
       position="21.607639,21.607643"
       orientation="0,-78.000005"
       id="guide1386"
       inkscape:locked="false" />
  </sodipodi:namedview>
  <metadata
     id="metadata828">
    <rdf:RDF>
      <cc:Work
         rdf:about="">
        <dc:format>image/svg+xml</dc:format>
        <dc:type
           rdf:resource="http://purl.org/dc/dcmitype/StillImage" />
        <dc:title></dc:title>
      </cc:Work>
    </rdf:RDF>
  </metadata>
  <g
     inkscape:label="Icon"
     inkscape:groupmode="layer"
     id="layer1"
     transform="translate(0,-274.42223)">
    <g
       transform="matrix(1.2580607,0,0,1.2580607,77.387301,-77.281007)"
       style="display:inline;stroke-width:0.794874"
       id="g595">
      <g
         style="stroke-width:0.794874"
         id="g597">
        <path
           id="path1884"
           d="m -58.875,284.30078 a 0.26460996,0.26460996 0 0 0 -0.263672,0.26367 l -0.01367,5.0625 -1.361328,0.19141 a 0.26460996,0.26460996 0 0 0 -0.226562,0.26172 v 4.00976 c -3e-6,0.43525 0.357723,0.79297 0.792968,0.79297 h 14.816407 c 0.435245,0 0.792971,-0.35772 0.792968,-0.79297 v -8.99609 c 2e-6,-0.43524 -0.357723,-0.79297 -0.792968,-0.79297 z"
           style="color:#000000;font-style:normal;font-variant:normal;font-weight:normal;font-stretch:normal;font-size:medium;line-height:normal;font-family:sans-serif;font-variant-ligatures:normal;font-variant-position:normal;font-variant-caps:normal;font-variant-numeric:normal;font-variant-alternates:normal;font-variant-east-asian:normal;font-feature-settings:normal;font-variation-settings:normal;text-indent:0;text-align:start;text-decoration:none;text-decoration-line:none;text-decoration-style:solid;text-decoration-color:#000000;letter-spacing:normal;word-spacing:normal;text-transform:none;writing-mode:lr-tb;direction:ltr;text-orientation:mixed;dominant-baseline:auto;baseline-shift:baseline;text-anchor:start;white-space:normal;shape-padding:0;shape-margin:0;inline-size:0;clip-rule:nonzero;display:inline;overflow:visible;visibility:visible;isolation:auto;mix-blend-mode:normal;color-interpolation:sRGB;color-interpolation-filters:linearRGB;solid-color:#000000;solid-opacity:1;vector-effect:none;fill:#ececec;fill-opacity:1;fill-rule:nonzero;stroke:none;stroke-width:0.420621;stroke-linecap:round;stroke-linejoin:round;stroke-miterlimit:4;stroke-dasharray:none;stroke-dashoffset:0;stroke-opacity:1;color-rendering:auto;image-rendering:auto;shape-rendering:auto;text-rendering:auto;enable-background:accumulate;stop-color:#000000" />
        <path
           sodipodi:nodetypes="cccccccc"
           id="path1890"
           d="m -56.851566,288.18459 1.205078,1.33498 c 0.04889,0.0545 0.118189,0.0864 0.191406,0.0879 l 1.521484,0.0312 c 0.23337,0.004 0.356677,-0.27483 0.197266,-0.44531 l -1.958031,-2.0957 c -0.299182,-0.31692 -0.805143,-0.33138 -1.122069,-0.0332 -0.316378,0.29765 -0.331698,0.80209 -0.03513,1.12014 z"
           style="color:#000000;font-style:normal;font-variant:normal;font-weight:normal;font-stretch:normal;font-size:medium;line-height:normal;font-family:sans-serif;font-variant-ligatures:normal;font-variant-position:normal;font-variant-caps:normal;font-variant-numeric:normal;font-variant-alternates:normal;font-variant-east-asian:normal;font-feature-settings:normal;font-variation-settings:normal;text-indent:0;text-align:start;text-decoration:none;text-decoration-line:none;text-decoration-style:solid;text-decoration-color:#000000;letter-spacing:normal;word-spacing:normal;text-transform:none;writing-mode:lr-tb;direction:ltr;text-orientation:mixed;dominant-baseline:auto;baseline-shift:baseline;text-anchor:start;white-space:normal;shape-padding:0;shape-margin:0;inline-size:0;clip-rule:nonzero;display:inline;overflow:visible;visibility:visible;isolation:auto;mix-blend-mode:normal;color-interpolation:sRGB;color-interpolation-filters:linearRGB;solid-color:#000000;solid-opacity:1;vector-effect:none;fill:#ffa185;fill-opacity:1;fill-rule:nonzero;stroke:none;stroke-width:0.420621;stroke-linecap:round;stroke-linejoin:round;stroke-miterlimit:4;stroke-dasharray:none;stroke-dashoffset:0;stroke-opacity:1;color-rendering:auto;image-rendering:auto;shape-rendering:auto;text-rendering:auto;enable-background:accumulate;stop-color:#000000" />
        <path
           sodipodi:nodetypes="ccccccsccscccsccccccc"
           id="path1896"
           d="m -51.365238,290.18932 1.574218,-0.043 1.167969,0.23438 c 0.216944,0.0444 0.389215,-0.18141 0.289063,-0.37891 -0.181144,-0.3581 -0.358879,-0.75759 -0.570314,-1.08208 -0.08505,-0.0662 -0.187006,-0.10828 -0.279297,-0.16015 0.166553,-0.22064 0.331023,-0.45467 0.486328,-0.55469 0.214474,-0.13813 0.464243,-0.18716 0.923828,-0.0996 l 0.578126,0.24609 c 0.339235,0.14541 0.743225,-0.0421 0.861328,-0.39648 0.115005,-0.34509 -0.04363,-0.72111 -0.359375,-0.88672 -0.03203,-0.0253 -0.416132,-0.33824 -0.962888,-0.44131 -0.515003,-0.0971 -1.148428,-0.1318 -1.787109,0.11923 -0.382805,0.19192 -0.770591,0.57486 -1.101564,0.91992 -0.302211,0.31507 -0.495947,0.54691 -0.535156,0.59375 -0.982906,0.11061 -2.129604,0.62051 -2.925781,0.82812 -0.105639,0.0279 -0.183234,0.11796 -0.195313,0.22656 l -0.113281,1.03711 c -0.01866,0.16654 0.120227,0.30826 0.287109,0.29297 l 0.604492,-0.0567 z"
           style="color:#000000;font-style:normal;font-variant:normal;font-weight:normal;font-stretch:normal;font-size:medium;line-height:normal;font-family:sans-serif;font-variant-ligatures:normal;font-variant-position:normal;font-variant-caps:normal;font-variant-numeric:normal;font-variant-alternates:normal;font-variant-east-asian:normal;font-feature-settings:normal;font-variation-settings:normal;text-indent:0;text-align:start;text-decoration:none;text-decoration-line:none;text-decoration-style:solid;text-decoration-color:#000000;letter-spacing:normal;word-spacing:normal;text-transform:none;writing-mode:lr-tb;direction:ltr;text-orientation:mixed;dominant-baseline:auto;baseline-shift:baseline;text-anchor:start;white-space:normal;shape-padding:0;shape-margin:0;inline-size:0;clip-rule:nonzero;display:inline;overflow:visible;visibility:visible;isolation:auto;mix-blend-mode:normal;color-interpolation:sRGB;color-interpolation-filters:linearRGB;solid-color:#000000;solid-opacity:1;vector-effect:none;fill:#ffccbc;fill-opacity:1;fill-rule:nonzero;stroke:none;stroke-width:0.420621;stroke-linecap:round;stroke-linejoin:round;stroke-miterlimit:4;stroke-dasharray:none;stroke-dashoffset:0;stroke-opacity:1;color-rendering:auto;image-rendering:auto;shape-rendering:auto;text-rendering:auto;enable-background:accumulate;stop-color:#000000" />
        <path
           d="m -58.874965,284.30103 a 0.26460996,0.26460996 0 0 0 -0.263548,0.26355 l -5.19e-4,0.26562 h 13.478764 c 0.435245,0 0.793237,0.35747 0.793234,0.79271 v 8.99635 c 0,0.0792 -0.01523,0.154 -0.03721,0.22635 0.32544,-0.0989 0.566378,-0.39942 0.566375,-0.75551 v -8.99635 c 3e-6,-0.43524 -0.357989,-0.79272 -0.793234,-0.79272 z m -0.805635,5.40019 -0.833024,0.1173 a 0.26460996,0.26460996 0 0 0 -0.22686,0.26149 v 0.22531 l 1.05885,-0.14935 z"
           style="color:#000000;font-style:normal;font-variant:normal;font-weight:normal;font-stretch:normal;font-size:medium;line-height:normal;font-family:sans-serif;font-variant-ligatures:normal;font-variant-position:normal;font-variant-caps:normal;font-variant-numeric:normal;font-variant-alternates:normal;font-variant-east-asian:normal;font-feature-settings:normal;font-variation-settings:normal;text-indent:0;text-align:start;text-decoration:none;text-decoration-line:none;text-decoration-style:solid;text-decoration-color:#000000;letter-spacing:normal;word-spacing:normal;text-transform:none;writing-mode:lr-tb;direction:ltr;text-orientation:mixed;dominant-baseline:auto;baseline-shift:baseline;text-anchor:start;white-space:normal;shape-padding:0;shape-margin:0;inline-size:0;clip-rule:nonzero;display:inline;overflow:visible;visibility:visible;isolation:auto;mix-blend-mode:normal;color-interpolation:sRGB;color-interpolation-filters:linearRGB;solid-color:#000000;solid-opacity:1;vector-effect:none;fill:#cccccc;fill-opacity:1;fill-rule:nonzero;stroke:none;stroke-width:0.420621;stroke-linecap:round;stroke-linejoin:round;stroke-miterlimit:4;stroke-dasharray:none;stroke-dashoffset:0;stroke-opacity:1;color-rendering:auto;image-rendering:auto;shape-rendering:auto;text-rendering:auto;enable-background:accumulate;stop-color:#000000"
           id="path528" />
        <path
           id="path599"
           style="fill:#cccccc;fill-opacity:1;stroke-width:1.58975;stroke-linecap:round;stroke-linejoin:round"
           d="M -222.51953,16.003906 A 1.0001006,1.0001006 0 0 0 -223.51562,17 l -0.0527,19.132812 -1.30078,0.183594 0.10156,3.666016 5.22266,-0.810547 V 16.003906 Z"
           transform="matrix(0.26458334,0,0,0.26458334,0,280.06666)" />
        <path
           id="path1906"
           d="m -48.306641,288.30078 c -0.581367,0 -1.05664,0.47723 -1.05664,1.0586 0,0.58136 0.475273,1.05664 1.05664,1.05664 0.581368,0 1.058594,-0.47528 1.058594,-1.05664 0,-0.58137 -0.477226,-1.0586 -1.058594,-1.0586 z"
           style="color:#000000;font-style:normal;font-variant:normal;font-weight:normal;font-stretch:normal;font-size:medium;line-height:normal;font-family:sans-serif;font-variant-ligatures:normal;font-variant-position:normal;font-variant-caps:normal;font-variant-numeric:normal;font-variant-alternates:normal;font-variant-east-asian:normal;font-feature-settings:normal;font-variation-settings:normal;text-indent:0;text-align:start;text-decoration:none;text-decoration-line:none;text-decoration-style:solid;text-decoration-color:#000000;letter-spacing:normal;word-spacing:normal;text-transform:none;writing-mode:lr-tb;direction:ltr;text-orientation:mixed;dominant-baseline:auto;baseline-shift:baseline;text-anchor:start;white-space:normal;shape-padding:0;shape-margin:0;inline-size:0;clip-rule:nonzero;display:inline;overflow:visible;visibility:visible;isolation:auto;mix-blend-mode:normal;color-interpolation:sRGB;color-interpolation-filters:linearRGB;solid-color:#000000;solid-opacity:1;vector-effect:none;fill:#ffccbc;fill-opacity:1;fill-rule:nonzero;stroke:none;stroke-width:0.420621;stroke-linecap:round;stroke-linejoin:round;stroke-miterlimit:4;stroke-dasharray:none;stroke-dashoffset:0;stroke-opacity:1;color-rendering:auto;image-rendering:auto;shape-rendering:auto;text-rendering:auto;enable-background:accumulate;stop-color:#000000" />
        <path
           id="path1912"
           d="m -57.300781,289.0625 c -0.435162,0 -0.794922,0.35781 -0.794922,0.79297 a 0.26460996,0.26460996 0 0 0 0.222656,0.26172 c 1.168081,0.18905 2.088665,0.50152 3.742188,0.5332 a 0.26460996,0.26460996 0 0 0 0.0039,0 c 0.435162,0 0.794922,-0.35976 0.794922,-0.79492 0,-0.43516 -0.35976,-0.79297 -0.794922,-0.79297 z"
           style="color:#000000;font-style:normal;font-variant:normal;font-weight:normal;font-stretch:normal;font-size:medium;line-height:normal;font-family:sans-serif;font-variant-ligatures:normal;font-variant-position:normal;font-variant-caps:normal;font-variant-numeric:normal;font-variant-alternates:normal;font-variant-east-asian:normal;font-feature-settings:normal;font-variation-settings:normal;text-indent:0;text-align:start;text-decoration:none;text-decoration-line:none;text-decoration-style:solid;text-decoration-color:#000000;letter-spacing:normal;word-spacing:normal;text-transform:none;writing-mode:lr-tb;direction:ltr;text-orientation:mixed;dominant-baseline:auto;baseline-shift:baseline;text-anchor:start;white-space:normal;shape-padding:0;shape-margin:0;inline-size:0;clip-rule:nonzero;display:inline;overflow:visible;visibility:visible;isolation:auto;mix-blend-mode:normal;color-interpolation:sRGB;color-interpolation-filters:linearRGB;solid-color:#000000;solid-opacity:1;vector-effect:none;fill:#ffccbc;fill-opacity:1;fill-rule:nonzero;stroke:none;stroke-width:0.420621;stroke-linecap:round;stroke-linejoin:round;stroke-miterlimit:4;stroke-dasharray:none;stroke-dashoffset:0;stroke-opacity:1;color-rendering:auto;image-rendering:auto;shape-rendering:auto;text-rendering:auto;enable-background:accumulate;stop-color:#000000" />
        <path
           sodipodi:nodetypes="sccccccccccsccs"
           id="path1938"
           d="m -44.535157,294.6231 c 0.135141,-0.14787 0.188081,-0.33763 0.197265,-0.52638 v -3.9756 c -3.69e-4,-0.17838 -0.173534,-0.3053 -0.34375,-0.25195 -1.22804,0.39284 -2.509827,0.275 -3.821289,-0.004 -1.436643,-0.45436 -2.791674,-0.2635 -4.100588,-10e-4 -1.496099,0.45372 -2.630941,0.2113 -3.842774,-10e-4 -0.577344,-0.17576 -1.213644,-0.26901 -1.897458,-0.27138 -0.683814,-0.002 -1.413889,0.0865 -2.193358,0.27149 -0.119264,0.0285 -0.20333,0.13519 -0.203125,0.25781 v 3.96875 c -0.0018,0.23619 0.09396,0.44992 0.246093,0.57813 0.152572,0.12858 0.328071,0.17875 0.521484,0.21294 l 14.857422,0.001 c 0.246366,-0.0275 0.444936,-0.11095 0.580078,-0.25881 z"
           style="color:#000000;font-style:normal;font-variant:normal;font-weight:normal;font-stretch:normal;font-size:medium;line-height:normal;font-family:sans-serif;font-variant-ligatures:normal;font-variant-position:normal;font-variant-caps:normal;font-variant-numeric:normal;font-variant-alternates:normal;font-variant-east-asian:normal;font-feature-settings:normal;font-variation-settings:normal;text-indent:0;text-align:start;text-decoration:none;text-decoration-line:none;text-decoration-style:solid;text-decoration-color:#000000;letter-spacing:normal;word-spacing:normal;text-transform:none;writing-mode:lr-tb;direction:ltr;text-orientation:mixed;dominant-baseline:auto;baseline-shift:baseline;text-anchor:start;white-space:normal;shape-padding:0;shape-margin:0;inline-size:0;clip-rule:nonzero;display:inline;overflow:visible;visibility:visible;isolation:auto;mix-blend-mode:normal;color-interpolation:sRGB;color-interpolation-filters:linearRGB;solid-color:#000000;solid-opacity:1;vector-effect:none;fill:#8ed1f7;fill-opacity:1;fill-rule:nonzero;stroke:none;stroke-width:0.420621;stroke-linecap:round;stroke-linejoin:round;stroke-miterlimit:4;stroke-dasharray:none;stroke-dashoffset:0;stroke-opacity:1;color-rendering:auto;image-rendering:auto;shape-rendering:auto;text-rendering:auto;enable-background:accumulate;stop-color:#000000" />
        <path
           d="m -47.873052,288.3969 c 0.06043,0.13281 0.0956,0.27904 0.0956,0.43357 0,0.58136 -0.476967,1.05626 -1.058334,1.05626 -0.154149,0 -0.299667,-0.0351 -0.432014,-0.0951 0.166135,0.3668 0.533961,0.62425 0.961181,0.62425 0.581366,0 1.058333,-0.47491 1.058333,-1.05627 0,-0.42684 -0.257929,-0.79582 -0.624768,-0.96273 z"
           style="color:#000000;font-style:normal;font-variant:normal;font-weight:normal;font-stretch:normal;font-size:medium;line-height:normal;font-family:sans-serif;font-variant-ligatures:normal;font-variant-position:normal;font-variant-caps:normal;font-variant-numeric:normal;font-variant-alternates:normal;font-variant-east-asian:normal;font-feature-settings:normal;font-variation-settings:normal;text-indent:0;text-align:start;text-decoration:none;text-decoration-line:none;text-decoration-style:solid;text-decoration-color:#000000;letter-spacing:normal;word-spacing:normal;text-transform:none;writing-mode:lr-tb;direction:ltr;text-orientation:mixed;dominant-baseline:auto;baseline-shift:baseline;text-anchor:start;white-space:normal;shape-padding:0;shape-margin:0;inline-size:0;clip-rule:nonzero;display:inline;overflow:visible;visibility:visible;isolation:auto;mix-blend-mode:normal;color-interpolation:sRGB;color-interpolation-filters:linearRGB;solid-color:#000000;solid-opacity:1;vector-effect:none;fill:#ffa185;fill-opacity:1;fill-rule:nonzero;stroke:none;stroke-width:0.420621;stroke-linecap:round;stroke-linejoin:round;stroke-miterlimit:4;stroke-dasharray:none;stroke-dashoffset:0;stroke-opacity:1;color-rendering:auto;image-rendering:auto;shape-rendering:auto;text-rendering:auto;enable-background:accumulate;stop-color:#000000"
           id="path516" />
        <path
           sodipodi:nodetypes="ccccsccccccc"
           d="m -49.200285,288.75157 c 0.122334,-0.11581 0.289855,-0.36162 0.502962,-0.54664 0.248846,-0.12546 0.416735,-0.18678 0.923971,-0.0992 l 0.577744,0.24598 c 0.339233,0.14541 0.743342,-0.042 0.861446,-0.39636 0.05598,-0.16798 0.0463,-0.34336 -0.01395,-0.49816 l 3.1e-5,-2.8e-4 c -0.131307,0.33318 -0.51879,0.50625 -0.847492,0.36535 l -0.577744,-0.24598 c -0.459584,-0.0876 -0.709499,-0.0389 -0.923973,0.0992 -0.155305,0.10002 -0.319722,0.33437 -0.486275,0.55501 -0.127341,0.27111 -0.03408,0.36573 -0.01672,0.52108 z"
           style="color:#000000;font-style:normal;font-variant:normal;font-weight:normal;font-stretch:normal;font-size:medium;line-height:normal;font-family:sans-serif;font-variant-ligatures:normal;font-variant-position:normal;font-variant-caps:normal;font-variant-numeric:normal;font-variant-alternates:normal;font-variant-east-asian:normal;font-feature-settings:normal;font-variation-settings:normal;text-indent:0;text-align:start;text-decoration:none;text-decoration-line:none;text-decoration-style:solid;text-decoration-color:#000000;letter-spacing:normal;word-spacing:normal;text-transform:none;writing-mode:lr-tb;direction:ltr;text-orientation:mixed;dominant-baseline:auto;baseline-shift:baseline;text-anchor:start;white-space:normal;shape-padding:0;shape-margin:0;inline-size:0;clip-rule:nonzero;display:inline;overflow:visible;visibility:visible;isolation:auto;mix-blend-mode:normal;color-interpolation:sRGB;color-interpolation-filters:linearRGB;solid-color:#000000;solid-opacity:1;vector-effect:none;fill:#ffa185;fill-opacity:1;fill-rule:nonzero;stroke:none;stroke-width:0.420621;stroke-linecap:round;stroke-linejoin:round;stroke-miterlimit:4;stroke-dasharray:none;stroke-dashoffset:0;stroke-opacity:1;color-rendering:auto;image-rendering:auto;shape-rendering:auto;text-rendering:auto;enable-background:accumulate;stop-color:#000000"
           id="path521" />
      </g>
      <path
         id="path1689"
         style="color:#000000;font-style:normal;font-variant:normal;font-weight:normal;font-stretch:normal;font-size:medium;line-height:normal;font-family:sans-serif;font-variant-ligatures:normal;font-variant-position:normal;font-variant-caps:normal;font-variant-numeric:normal;font-variant-alternates:normal;font-variant-east-asian:normal;font-feature-settings:normal;font-variation-settings:normal;text-indent:0;text-align:start;text-decoration:none;text-decoration-line:none;text-decoration-style:solid;text-decoration-color:#000000;letter-spacing:normal;word-spacing:normal;text-transform:none;writing-mode:lr-tb;direction:ltr;text-orientation:mixed;dominant-baseline:auto;baseline-shift:baseline;text-anchor:start;white-space:normal;shape-padding:0;shape-margin:0;inline-size:0;clip-rule:nonzero;display:inline;overflow:visible;visibility:visible;isolation:auto;mix-blend-mode:normal;color-interpolation:sRGB;color-interpolation-filters:linearRGB;solid-color:#000000;solid-opacity:1;vector-effect:none;fill:#000000;fill-opacity:1;fill-rule:nonzero;stroke:none;stroke-width:0.420621;stroke-linecap:round;stroke-linejoin:round;stroke-miterlimit:4;stroke-dasharray:none;stroke-dashoffset:0;stroke-opacity:1;color-rendering:auto;image-rendering:auto;shape-rendering:auto;text-rendering:auto;enable-background:accumulate;stop-color:#000000"
         d="m -59.417562,282.18333 c -0.727498,0 -1.324472,0.59491 -1.324467,1.3224 0.0016,3.52693 0.0016,7.05494 0.0016,10.58385 -3e-6,0.43524 0.357986,0.79323 0.793231,0.79323 h 14.816151 c 0.435245,0 0.793237,-0.35799 0.793234,-0.79323 v -8.99583 c 3e-6,-0.43525 -0.357989,-0.79324 -0.793234,-0.79324 h -11.376568 v -0.79478 c -3.1e-5,-0.7275 -0.594936,-1.3224 -1.322435,-1.3224 -0.29641,0 -0.56814,0.10198 -0.789617,0.2682 -0.222348,-0.16786 -0.499319,-0.2682 -0.797883,-0.2682 z m 0,0.52917 c 0.166825,0 0.317908,0.0528 0.444418,0.13952 -0.11199,0.19378 -0.180869,0.41505 -0.180869,0.65371 v 1.32395 h -1.058849 v -1.32395 c -3e-6,-0.4415 0.353787,-0.79323 0.7953,-0.79323 z m 1.5875,0 c 0.44151,0 0.793237,0.35172 0.793232,0.79323 v 0.79478 h -0.779796 c -0.145415,5.1e-4 -0.263049,0.11814 -0.263549,0.26355 -5.29e-4,0.14617 0.117374,0.26512 0.263549,0.26562 h 12.68553 c 0.149259,0 0.265618,0.11481 0.265618,0.26407 v 0.26561 h -13.759368 v -1.85363 c -3e-6,-0.4415 0.353274,-0.79323 0.794784,-0.79323 z m -2.3828,2.64686 h 1.058849 v 1.05627 h -1.058849 z m 11.515585,2.84531 c 0.214473,-0.13812 0.464388,-0.18678 0.923972,-0.0992 l 0.577744,0.24805 c 0.339207,0.14538 0.739058,-0.0348 0.855761,-0.38499 5.29e-4,-6.7e-4 0.0013,-10e-4 0.0021,-0.002 l 0.0078,-0.0232 c 0.113032,-0.33911 -0.046,-0.70921 -0.361217,-0.87488 -0.03079,-0.0243 -0.41714,-0.33643 -0.964801,-0.43977 -0.515011,-0.0972 -1.148807,-0.13184 -1.787488,0.11834 -0.382804,0.19107 -0.77025,0.57427 -1.101225,0.91932 -0.301217,0.31404 -0.492913,0.54554 -0.533299,0.59376 -0.93055,0.10426 -2.004936,0.5637 -2.793111,0.7891 l -1.823146,-1.95078 c -0.29918,-0.31791 -0.805445,-0.33229 -1.12241,-0.0341 -0.316421,0.29764 -0.3317,0.80229 -0.03514,1.12035 l 0.79266,0.87798 h -1.241816 c -0.345816,0 -0.640403,0.22833 -0.748276,0.54002 -0.198641,-0.0152 -0.390337,-0.009 -0.575675,-0.003 v -3.71139 h 13.759368 v 4.02973 c -0.857311,0.2384 -1.739625,0.24341 -2.639635,0.12247 0.157798,-0.18504 0.256834,-0.42136 0.256834,-0.68161 0,-0.58137 -0.476967,-1.05833 -1.058333,-1.05833 -0.360725,0 -0.679903,0.18365 -0.873845,0.46043 0.163457,-0.22219 0.327874,-0.45652 0.48318,-0.55655 z m -11.515585,-1.25936 h 1.058849 v 1.05834 h -1.058849 z m 12.45712,0.20309 c 0.405191,0.0765 0.810803,0.33228 0.810803,0.33228 0.113596,0.0607 0.145685,0.19716 0.126092,0.27182 -0.0084,0.0411 -0.105362,0.13915 -0.167434,0.11265 l -0.643371,-0.2713 c -0.582038,-0.11723 -1.01731,-0.0515 -1.354955,0.16588 -0.337648,0.21746 -0.563002,0.54516 -0.825791,0.91829 -0.09627,0.13655 -0.0438,0.32681 0.109037,0.3943 0.140706,0.0617 0.248727,0.12071 0.348301,0.18396 -0.02938,0.14364 0.01759,0.29621 0.04495,0.4222 -1.141066,-0.18726 -2.233927,-0.0274 -3.295407,0.18552 -0.261506,0.0793 -0.509084,0.13092 -0.750858,0.17156 0.01355,-0.0575 0.02222,-0.11686 0.02222,-0.17828 0,-0.14025 -0.0402,-0.27096 -0.105421,-0.38602 0.844013,-0.26763 1.823522,-0.66981 2.529563,-0.72141 0.07135,-0.005 0.13744,-0.0388 0.183451,-0.0935 0,0 0.245774,-0.29536 0.56224,-0.62528 0.312957,-0.32628 0.712007,-0.68108 0.93586,-0.79686 0.494509,-0.17904 0.99123,-0.16105 1.470718,-0.0858 z m -6.827491,1.9141 h -0.763778 l -1.115692,-1.23662 c -0.105519,-0.11208 -0.100304,-0.27368 0.0098,-0.37724 0.154133,-0.11385 0.239358,-0.0502 0.305975,-0.0192 z m -5.629629,-0.52969 h 1.058849 v 1.10123 c -0.342114,0.0325 -0.694955,0.0856 -1.058849,0.16071 z m 11.90625,0.29714 c 0.295383,0 0.529166,0.23379 0.529166,0.52917 0,0.29539 -0.233783,0.52917 -0.529166,0.52917 -0.295384,0 -0.527616,-0.23378 -0.527616,-0.52917 0,-0.29538 0.232232,-0.52917 0.527616,-0.52917 z m -8.994283,0.76171 h 3.173965 c 0.151157,0 0.265618,0.11446 0.265618,0.26562 l -0.08268,0.24701 c -0.889307,0.0556 -1.679133,-0.0971 -2.502172,-0.24133 -0.321133,-0.0978 -0.662385,-0.16712 -1.018027,-0.21239 0.04494,-0.0351 0.0993,-0.0589 0.163298,-0.0589 z m 4.826061,0.78497 c 1.264877,-0.25157 2.505398,-0.42096 3.836977,-10e-4 1.25967,0.2693 2.525011,0.40181 3.772379,0.0894 v 1.04334 c -0.414409,0.11515 -0.833663,0.17768 -1.259356,0.19482 -0.146233,0.006 -0.26034,0.12922 -0.254249,0.27544 0.0058,0.14623 0.129215,0.25982 0.275437,0.25373 0.413821,-0.0166 0.82704,-0.0723 1.238168,-0.17518 v 1.03456 c -1.172081,0.32612 -2.391162,0.21386 -3.637505,-0.0522 -1.011804,-0.32101 -1.991403,-0.32003 -2.932637,-0.19999 -0.145968,0.0177 -0.249494,0.15133 -0.230478,0.29714 0.01871,0.14518 0.152006,0.24748 0.29714,0.22841 0.896268,-0.1143 1.786123,-0.11128 2.731101,0.18655 1.259699,0.26931 2.524982,0.40009 3.772379,0.0873 v 0.45062 c 0,0.14926 -0.116359,0.26355 -0.265618,0.26355 h -14.816151 c -0.149257,0 -0.265618,-0.11429 -0.265615,-0.26355 v -0.57878 c 1.230262,-0.2594 2.532184,-0.28746 3.645254,0.0419 1.014365,0.18015 2.0461,0.39304 3.280421,0.18914 0.144743,-0.0234 0.242692,-0.15975 0.218591,-0.30438 -0.02434,-0.14395 -0.160391,-0.24122 -0.304374,-0.21704 -1.128938,0.18649 -2.07849,-0.008 -3.074231,-0.18138 -0.626692,-0.18571 -1.311399,-0.2668 -2.007629,-0.25993 -0.586436,0.006 -1.179643,0.0769 -1.758032,0.19275 v -1.0511 c 1.111062,-0.24119 2.096312,-0.27083 2.96881,-0.11627 0.144026,0.0255 0.281175,-0.0704 0.30644,-0.21446 0.02545,-0.14403 -0.07092,-0.2817 -0.214974,-0.30696 -0.920498,-0.16306 -1.938168,-0.1336 -3.060276,0.0982 v -1.04542 c 0.6659,-0.14468 1.288454,-0.21696 1.868104,-0.21497 0.638873,0.002 1.228796,0.0899 1.776634,0.2558 0.77523,0.13739 1.565164,0.29286 2.506049,0.26458 0.541642,-0.0266 1.044176,-0.0998 1.587241,-0.26458 z m 1.877404,0.80718 c -0.681792,0.0228 -1.345761,0.13537 -2.006079,0.2682 -1.14817,0.34809 -2.076752,0.28788 -3.00395,0.14367 -0.144589,-0.0228 -0.280339,0.0761 -0.302823,0.22065 -0.02167,0.14389 0.0769,0.27825 0.220657,0.30076 0.9589,0.14915 1.995279,0.21738 3.214791,-0.15348 1.264877,-0.25257 2.505398,-0.41996 3.836977,0 0.301064,0.0646 0.590616,0.11956 0.880049,0.1633 0.144547,0.0216 0.279201,-0.0782 0.300757,-0.22273 0.02159,-0.14455 -0.07817,-0.27919 -0.222726,-0.30075 -0.276572,-0.0418 -0.555691,-0.0946 -0.823206,-0.15038 -0.711973,-0.22518 -1.412653,-0.29203 -2.094447,-0.26924 z"
         sodipodi:nodetypes="sccssccscsscsscscccsssccccssccssccccccccccscccsccccccsccccccsscccccccccccccccccccsccccccccccccsccsssssssccccssccccccccccccccssssccccccccccccccsscccccccccccccscc" />
    </g>
  </g>
</svg>
