<?xml version="1.0" ?><svg viewBox="0 0 64 64" xmlns="http://www.w3.org/2000/svg"><defs><style>.cls-1{fill:#fbb03b;}.cls-2{fill:#fcc062;}.cls-3{fill:#7d5d3e;}.cls-4{fill:#a67c52;}.cls-5{fill:#c1272d;}.cls-6{fill:#cd5257;}.cls-7{fill:#54bce8;}.cls-8{fill:#7fcdee;}.cls-9{fill:none;stroke:#000;stroke-linejoin:round;stroke-width:2px;}</style></defs><title/><g data-name="Layer 29" id="Layer_29"><circle class="cls-1" cx="32" cy="15" r="5"/><ellipse class="cls-2" cx="30.5" cy="15" rx="3.5" ry="4.75"/><circle class="cls-1" cx="12" cy="7" r="5"/><ellipse class="cls-2" cx="10.5" cy="7" rx="3.5" ry="4.75"/><circle class="cls-1" cx="52" cy="7" r="5"/><ellipse class="cls-2" cx="50.5" cy="7" rx="3.5" ry="4.75"/><path class="cls-3" d="M30,34A14,14,0,1,0,13,47.67V59a3,3,0,0,0,3,3h0a3,3,0,0,0,3-3V47.67A14,14,0,0,0,30,34Z"/><path class="cls-4" d="M27,34A14,14,0,0,0,14.48,20.1,14,14,0,0,0,13,47.67V59a3,3,0,0,0,1.5,2.58A3,3,0,0,0,16,59V47.67A14,14,0,0,0,27,34Z"/><path class="cls-3" d="M62,34A14,14,0,1,0,45,47.67V59a3,3,0,0,0,3,3h0a3,3,0,0,0,3-3V47.67A14,14,0,0,0,62,34Z"/><path class="cls-4" d="M59,34A14,14,0,0,0,46.48,20.1,14,14,0,0,0,45,47.67V59a3,3,0,0,0,1.5,2.58A3,3,0,0,0,48,59V47.67A14,14,0,0,0,59,34Z"/><path class="cls-5" d="M36.51,42h23A14,14,0,0,0,47.31,20,14.09,14.09,0,0,0,34.07,32.58,13.94,13.94,0,0,0,36.51,42Z"/><path class="cls-6" d="M59,34A14,14,0,0,0,46.48,20.1a14,14,0,0,0-10,21.9h20A13.94,13.94,0,0,0,59,34Z"/><path class="cls-7" d="M4.51,42h23A14,14,0,0,0,15.31,20,14.09,14.09,0,0,0,2.07,32.58,13.94,13.94,0,0,0,4.51,42Z"/><path class="cls-8" d="M27,34A14,14,0,0,0,14.48,20.1,14,14,0,0,0,4.51,42h20A13.94,13.94,0,0,0,27,34Z"/><path class="cls-9" d="M62,34A14,14,0,1,0,45,47.67V59a3,3,0,0,0,3,3h0a3,3,0,0,0,3-3V47.67A14,14,0,0,0,62,34Z"/><line class="cls-9" x1="37" x2="59" y1="42" y2="42"/><path class="cls-9" d="M48,24A10,10,0,0,1,58,34"/><path class="cls-9" d="M2,34A14,14,0,1,1,19,47.67V59a3,3,0,0,1-3,3h0a3,3,0,0,1-3-3V47.67A14,14,0,0,1,2,34Z"/><line class="cls-9" x1="27" x2="5" y1="42" y2="42"/><path class="cls-9" d="M16,24A10,10,0,0,1,26,34"/><circle class="cls-9" cx="32" cy="15" r="5"/><circle class="cls-9" cx="52" cy="7" r="5"/><circle class="cls-9" cx="12" cy="7" r="5"/></g></svg>