<?xml version="1.0" encoding="utf-8"?>
<!-- Generator: Adobe Illustrator 21.1.0, SVG Export Plug-In . SVG Version: 6.00 Build 0)  -->
<svg version="1.1" xmlns="http://www.w3.org/2000/svg" xmlns:xlink="http://www.w3.org/1999/xlink" x="0px" y="0px"
	 viewBox="0 0 48 48" style="enable-background:new 0 0 48 48;" xml:space="preserve">
<style type="text/css">
	.st0{fill:#FFD4C3;stroke:#504B46;stroke-linecap:round;stroke-linejoin:round;stroke-miterlimit:10;}
	.st1{fill:#FFC258;}
	.st2{fill:#4F4B45;}
	.st3{fill:#FABFA5;}
	.st4{fill:none;stroke:#504B46;stroke-linecap:round;stroke-linejoin:round;stroke-miterlimit:10;}
	.Graphic_x0020_Style{opacity:0.15;fill:#45413C;}
	.st5{opacity:0.15;fill:#45413C;}
	.st6{fill:#DEBB7E;stroke:#45413C;stroke-linecap:round;stroke-linejoin:round;stroke-miterlimit:10;}
	.st7{fill:#F0D5A8;}
	.st8{fill:#F7E5C6;}
	.st9{fill:#DEBB7E;}
	.st10{fill:none;stroke:#45413C;stroke-linecap:round;stroke-linejoin:round;stroke-miterlimit:10;}
	.st11{fill:#FFE500;}
	.st12{fill:#EBCB00;}
	.st13{fill:none;stroke:#EBCB00;stroke-linecap:round;stroke-linejoin:round;stroke-miterlimit:10;}
	.st14{fill:#FF6242;stroke:#45413C;stroke-linecap:round;stroke-linejoin:round;stroke-miterlimit:10;}
	.st15{fill:#FFFFFF;stroke:#45413C;stroke-linecap:round;stroke-linejoin:round;stroke-miterlimit:10;}
	.st16{fill:#E5F8FF;}
	.st17{fill:#FFFFFF;}
	.st18{fill:#E8F4FA;}
	.st19{fill:#E8F4FA;stroke:#45413C;stroke-linecap:round;stroke-linejoin:round;stroke-miterlimit:10;}
	.st20{fill:#FFCCDD;}
	.st21{fill:#FFB0CA;stroke:#45413C;stroke-linecap:round;stroke-linejoin:round;stroke-miterlimit:10;}
	.st22{fill:#FF87AF;stroke:#45413C;stroke-linecap:round;stroke-linejoin:round;stroke-miterlimit:10;}
	.st23{fill:#E5F8FF;stroke:#45413C;stroke-linecap:round;stroke-linejoin:round;stroke-miterlimit:10;}
	.st24{fill:#BF8256;stroke:#45413C;stroke-linecap:round;stroke-linejoin:round;stroke-miterlimit:10;}
	.st25{fill:#9CEB60;}
	.st26{fill:#6DD627;}
	.st27{fill:#C8FFA1;}
	.st28{fill:#FFFACF;}
	.st29{fill:#FF87AF;}
	.st30{fill:#FFB0CA;}
	.st31{fill:#FF6196;}
	.st32{fill:#FFCCDD;stroke:#45413C;stroke-linecap:round;stroke-linejoin:round;stroke-miterlimit:10;}
	.st33{fill:#FF6196;stroke:#45413C;stroke-linecap:round;stroke-linejoin:round;stroke-miterlimit:10;}
	.st34{fill:#FFE5EE;}
	.st35{fill:#00B8F0;}
	.st36{fill:#4ACFFF;}
	.st37{fill:#BF8256;}
	.st38{fill:#DEA47A;}
	.st39{fill:#915E3A;}
	.st40{fill:#FFF5E3;}
	.st41{fill:#F0F0F0;}
	.st42{fill:#8CA4B8;}
	.st43{fill:#627B8C;}
	.st44{fill:#C0DCEB;}
	.st45{fill:#FFF48C;}
	.st46{fill:#FFE500;stroke:#45413C;stroke-linecap:round;stroke-linejoin:round;stroke-miterlimit:10;}
	.st47{fill:#FFAA54;}
	.st48{fill:#6DD627;stroke:#45413C;stroke-linecap:round;stroke-linejoin:round;stroke-miterlimit:10;}
	.st49{fill:#FF8A14;}
	.st50{fill:#FFCC99;}
	.st51{fill:#EBCB00;stroke:#45413C;stroke-linecap:round;stroke-linejoin:round;stroke-miterlimit:10;}
	.st52{fill:#00F5BC;stroke:#45413C;stroke-linecap:round;stroke-linejoin:round;stroke-miterlimit:10;}
	.st53{fill:#BF8DF2;stroke:#45413C;stroke-linecap:round;stroke-linejoin:round;stroke-miterlimit:10;}
	.st54{fill:#FF8A14;stroke:#45413C;stroke-linecap:round;stroke-linejoin:round;stroke-miterlimit:10;}
	.st55{fill:#4AEFF7;stroke:#45413C;stroke-linecap:round;stroke-linejoin:round;stroke-miterlimit:10;}
	.st56{fill:#FFF48C;stroke:#45413C;stroke-linecap:round;stroke-linejoin:round;stroke-miterlimit:10;}
	.st57{fill:#FF6242;}
	.st58{fill:#E04122;}
	.st59{fill:#46B000;}
	.st60{fill:none;stroke:#45413C;stroke-miterlimit:10;}
	.st61{fill:#00B8F0;stroke:#45413C;stroke-linecap:round;stroke-linejoin:round;stroke-miterlimit:10;}
	.st62{fill:#FF866E;}
	.st63{fill:#9F5AE5;stroke:#45413C;stroke-linecap:round;stroke-linejoin:round;stroke-miterlimit:10;}
	.st64{fill:#E4FFD1;}
	.st65{fill:#FFFEF2;}
	.st66{fill:#B89558;}
	.st67{fill:none;stroke:#915E3A;stroke-linecap:round;stroke-linejoin:round;stroke-miterlimit:10;}
	.st68{fill:#915E3A;stroke:#45413C;stroke-linecap:round;stroke-linejoin:round;stroke-miterlimit:10;}
	.st69{fill:#BF8DF2;}
	.st70{fill:#9F5AE5;}
	.st71{fill:#DABFF5;}
	.st72{fill:none;stroke:#45413C;stroke-linejoin:round;stroke-miterlimit:10;}
	.st73{fill:#656769;}
	.st74{fill:#87898C;}
	.st75{fill:#E0E0E0;}
	.st76{fill:#BDBEC0;}
	.st77{fill:#656769;stroke:#45413C;stroke-linecap:round;stroke-linejoin:round;stroke-miterlimit:10;}
	.st78{fill:#45413C;stroke:#45413C;stroke-linecap:round;stroke-linejoin:round;stroke-miterlimit:10;}
	.st79{fill:#FFA694;}
	.st80{fill:#E04122;stroke:#45413C;stroke-linecap:round;stroke-linejoin:round;stroke-miterlimit:10;}
	.st81{fill:#E0E0E0;stroke:#45413C;stroke-linecap:round;stroke-linejoin:round;stroke-miterlimit:10;}
	.st82{fill:#F0F0F0;stroke:#45413C;stroke-linecap:round;stroke-linejoin:round;stroke-miterlimit:10;}
	.st83{fill:#DAEDF7;}
	.st84{fill:#BDBEC0;stroke:#45413C;stroke-linecap:round;stroke-linejoin:round;stroke-miterlimit:10;}
	.st85{fill:#87898C;stroke:#45413C;stroke-linecap:round;stroke-linejoin:round;stroke-miterlimit:10;}
	.st86{fill:#00DFEB;}
	.st87{fill:#4AEFF7;}
	.st88{fill:#DAEDF7;stroke:#45413C;stroke-linecap:round;stroke-linejoin:round;stroke-miterlimit:10;}
	.st89{fill:#FFDA8F;}
	.st90{fill:#FFBE3D;}
	.st91{fill:#FFE9BD;}
	.st92{fill:#DEA47A;stroke:#45413C;stroke-linecap:round;stroke-linejoin:round;stroke-miterlimit:10;}
	.st93{fill:#45413C;}
	.st94{fill:#F0C2A1;}
	.st95{fill:none;stroke:#45413C;stroke-width:1.0064;stroke-linecap:round;stroke-linejoin:round;stroke-miterlimit:10;}
	.st96{fill:#525252;}
	.st97{fill:#EB6D00;stroke:#45413C;stroke-linecap:round;stroke-linejoin:round;stroke-miterlimit:10;}
	.st98{fill:#EB6D00;}
	.st99{fill:#E5FEFF;}
	.st100{fill:#FF866E;stroke:#45413C;stroke-linecap:round;stroke-linejoin:round;stroke-miterlimit:10;}
	.st101{fill:#627B8C;stroke:#45413C;stroke-linecap:round;stroke-linejoin:round;stroke-miterlimit:10;}
	.st102{fill:#FFFCE5;stroke:#45413C;stroke-linecap:round;stroke-linejoin:round;stroke-miterlimit:10;}
	.st103{fill:#A6FBFF;}
	.st104{fill:#D9FDFF;}
	.st105{fill:#FFFACF;stroke:#45413C;stroke-linecap:round;stroke-linejoin:round;stroke-miterlimit:10;}
	.st106{fill:#B8ECFF;}
	.st107{fill:#FFCABF;}
	.st108{fill:#E5FFF9;}
	.st109{fill:#C8FFA1;stroke:#45413C;stroke-linecap:round;stroke-linejoin:round;stroke-miterlimit:10;}
	.st110{fill:#4CF4FC;}
	.st111{fill:#F0D5A8;stroke:#45413C;stroke-linecap:round;stroke-linejoin:round;stroke-miterlimit:10;}
	.st112{fill:#FFDCD1;stroke:#45413C;stroke-linecap:round;stroke-linejoin:round;stroke-miterlimit:10;}
	.st113{fill:#80DDFF;}
	.st114{fill:#46B000;stroke:#45413C;stroke-linecap:round;stroke-linejoin:round;stroke-miterlimit:10;}
	.st115{fill:#4ACFFF;stroke:#45413C;stroke-linecap:round;stroke-linejoin:round;stroke-miterlimit:10;}
	.st116{fill:#ADC4D9;}
	.st117{fill:#BDBEC0;stroke:#45413C;stroke-width:1.0064;stroke-linecap:round;stroke-linejoin:round;stroke-miterlimit:10;}
	.st118{fill:#FFFCE5;}
	.st119{fill:#947746;}
	.st120{fill:#525252;stroke:#45413C;stroke-linecap:round;stroke-linejoin:round;stroke-miterlimit:10;}
</style>
<symbol  id="New_Symbol_14" viewBox="-6.5 -6.5 13 13">
	<path class="st0" d="M0-6c2.2,0,4.1,1.5,4.7,3.5c0,0,0,0,0,0C6.3-2.5,6.4,0,5,0v1c0,2.8-2.2,5-5,5c-2.8,0-5-2.2-5-5V0
		c-1.4,0-1.3-2.5,0.2-2.5c0,0,0,0,0,0C-4.1-4.5-2.2-6,0-6z"/>
	<g>
		<circle class="st1" cx="-1.6" cy="-0.1" r="0.1"/>
		<path class="st2" d="M-1.6,0.5c-0.3,0-0.6-0.3-0.6-0.6S-2-0.8-1.6-0.8C-1.3-0.8-1-0.5-1-0.1S-1.3,0.5-1.6,0.5L-1.6,0.5z"/>
	</g>
	<g>
		<circle class="st1" cx="1.6" cy="-0.1" r="0.1"/>
		<path class="st2" d="M1.6,0.5C1.3,0.5,1,0.2,1-0.1s0.3-0.6,0.6-0.6c0.3,0,0.6,0.3,0.6,0.6S2,0.5,1.6,0.5L1.6,0.5z"/>
	</g>
	<circle class="st3" cx="-3" cy="-1.5" r="0.5"/>
	<circle class="st3" cx="3" cy="-1.5" r="0.5"/>
	<path class="st4" d="M-1.2-3c0.8-0.5,1.7-0.5,2.5,0"/>
</symbol>
<g id="Bg">
</g>
<g id="Icons">
	<g id="XMLID_1822_">
		<path id="XMLID_2101_" class="st49" d="M35.4,2.3c-5.5-3.4-13.1-1-17.1,5.4l0,0c-0.2,0.4-0.4,0.7-0.6,1.1
			c-0.1,0.1-0.1,0.2-0.2,0.3c-0.1,0.3-0.3,0.6-0.4,0.8c-0.1,0.3-0.2,0.6-0.3,0.9c0,0.1,0,0.1-0.1,0.2c-0.6,1.8-0.9,3.7-0.7,5.5
			c0.1,5.3,2,10.2-0.4,14.2c-1,1.6-1.8,2.8-1.8,2.8l3.2,2c0,0,0.8-1.3,1.8-2.8c2.5-4,7.7-4.4,12.5-6.7c1.7-0.7,3.2-1.7,4.6-3.1
			c0,0,0.1-0.1,0.1-0.1c0.2-0.2,0.5-0.5,0.7-0.7c0.2-0.2,0.4-0.5,0.6-0.7c0.1-0.1,0.1-0.2,0.2-0.3c0.2-0.3,0.5-0.7,0.7-1
			c0,0,0,0,0,0C42.1,13.7,40.9,5.7,35.4,2.3z M18.3,29.9c0.9-2.9,0.6-6.3,0.6-6.3s1,1.1,2.2,1.8c1.2,0.7,2.6,1.1,2.6,1.1
			S20.6,27.8,18.3,29.9z"/>
		<g id="XMLID_2099_">
			<path id="XMLID_2100_" class="st47" d="M16.1,17.3c0.1-1.2,0.3-2.4,0.7-3.5c0-0.1,0-0.1,0.1-0.2c0.1-0.3,0.2-0.6,0.3-0.9
				c0.1-0.3,0.2-0.5,0.4-0.8c0-0.1,0.1-0.2,0.2-0.3c0.2-0.4,0.4-0.7,0.6-1.1l0,0c3.9-6.4,11.6-8.8,17.1-5.4c2.9,1.8,4.6,4.9,5,8.4
				c0.5-4.6-1.3-8.9-5-11.2c-5.5-3.4-13.1-1-17.1,5.4l0,0c-0.2,0.4-0.4,0.7-0.6,1.1c-0.1,0.1-0.1,0.2-0.2,0.3
				c-0.1,0.3-0.3,0.6-0.4,0.8c-0.1,0.3-0.2,0.6-0.3,0.9c0,0.1,0,0.1-0.1,0.2c-0.6,1.8-0.9,3.7-0.7,5.5C16.1,16.7,16.1,17,16.1,17.3z
				"/>
		</g>
		<path id="XMLID_2096_" class="st95" d="M35.4,2.3c-5.5-3.4-13.1-1-17.1,5.4l0,0c-0.2,0.4-0.4,0.7-0.6,1.1
			c-0.1,0.1-0.1,0.2-0.2,0.3c-0.1,0.3-0.3,0.6-0.4,0.8c-0.1,0.3-0.2,0.6-0.3,0.9c0,0.1,0,0.1-0.1,0.2c-0.6,1.8-0.9,3.7-0.7,5.5
			c0.1,5.3,2,10.2-0.4,14.2c-1,1.6-1.8,2.8-1.8,2.8l3.2,2c0,0,0.8-1.3,1.8-2.8c2.5-4,7.7-4.4,12.5-6.7c1.7-0.7,3.2-1.7,4.6-3.1
			c0,0,0.1-0.1,0.1-0.1c0.2-0.2,0.5-0.5,0.7-0.7c0.2-0.2,0.4-0.5,0.6-0.7c0.1-0.1,0.1-0.2,0.2-0.3c0.2-0.3,0.5-0.7,0.7-1
			c0,0,0,0,0,0C42.1,13.7,40.9,5.7,35.4,2.3z M18.3,29.9c0.9-2.9,0.6-6.3,0.6-6.3s1,1.1,2.2,1.8c1.2,0.7,2.6,1.1,2.6,1.1
			S20.6,27.8,18.3,29.9z"/>
		<ellipse id="XMLID_2095_" class="st5" cx="22.6" cy="45.6" rx="13.5" ry="1.6"/>
		
			<ellipse id="XMLID_2094_" transform="matrix(0.5273 -0.8497 0.8497 0.5273 1.5858 30.5614)" class="st17" cx="28.3" cy="13.9" rx="10.7" ry="8.9"/>
		<path id="XMLID_2093_" class="st75" d="M20.7,11.8c3.1-5,9-7,13.2-4.4c2.1,1.3,3.4,3.6,3.7,6.1c0.4-3.6-0.9-7-3.7-8.7
			c-4.2-2.6-10.1-0.6-13.2,4.4c-1.5,2.5-2.1,5.2-1.8,7.7C19.1,15.2,19.7,13.4,20.7,11.8z"/>
		
			<ellipse id="XMLID_2092_" transform="matrix(0.5273 -0.8497 0.8497 0.5273 1.5858 30.5614)" class="st95" cx="28.3" cy="13.9" rx="10.7" ry="8.9"/>
		<path id="XMLID_2091_" class="st74" d="M12,44.5l-4-2.5l6.6-10.7c0.3-0.4,0.8-0.6,1.3-0.3l2.4,1.5c0.4,0.3,0.6,0.8,0.3,1.3
			L12,44.5z"/>
		<path id="XMLID_2090_" class="st76" d="M17.2,31.7L16,31c-0.4-0.3-1-0.1-1.3,0.3L8.1,42l2,1.2L17.2,31.7z"/>
		<path id="XMLID_2089_" class="st95" d="M12,44.5l-4-2.5l6.6-10.7c0.3-0.4,0.8-0.6,1.3-0.3l2.4,1.5c0.4,0.3,0.6,0.8,0.3,1.3
			L12,44.5z"/>
		<path id="XMLID_2086_" class="st74" d="M11.1,45L8,43c-0.4-0.3-0.6-0.8-0.3-1.3l0.2-0.4c0.3-0.4,0.8-0.6,1.3-0.3l3.2,2
			c0.4,0.3,0.6,0.8,0.3,1.3l-0.2,0.4C12.1,45.1,11.6,45.3,11.1,45z"/>
		<path id="XMLID_2087_" class="st76" d="M9.7,43.3l0.4-0.7c0.2-0.3,0.5-0.5,0.9-0.5L9.2,41c-0.4-0.3-1-0.1-1.3,0.3l-0.2,0.4
			c-0.3,0.4-0.1,1,0.3,1.3l1.6,1C9.5,43.8,9.5,43.5,9.7,43.3z"/>
		<path id="XMLID_2085_" class="st95" d="M11.1,45L8,43c-0.4-0.3-0.6-0.8-0.3-1.3l0.2-0.4c0.3-0.4,0.8-0.6,1.3-0.3l3.2,2
			c0.4,0.3,0.6,0.8,0.3,1.3l-0.2,0.4C12.1,45.1,11.6,45.3,11.1,45z"/>
		<line id="XMLID_1738_" class="st95" x1="33.9" y1="4.7" x2="22.6" y2="23"/>
		<line id="XMLID_1737_" class="st95" x1="29.7" y1="3.6" x2="19.7" y2="19.7"/>
		<line id="XMLID_1736_" class="st95" x1="36.8" y1="8" x2="26.8" y2="24.1"/>
		<line id="XMLID_1735_" class="st95" x1="21" y1="8.8" x2="36" y2="18.1"/>
		<line id="XMLID_1734_" class="st95" x1="24.8" y1="5.1" x2="37.6" y2="13.1"/>
		<line id="XMLID_1733_" class="st95" x1="18.9" y1="14.6" x2="31.7" y2="22.6"/>
		
			<ellipse id="XMLID_1732_" transform="matrix(0.9528 -0.3035 0.3035 0.9528 -9.0066 11.9639)" class="st25" cx="34" cy="35" rx="3.7" ry="3.7"/>
		<path id="XMLID_1731_" class="st27" d="M32.9,33.5c2-0.6,4.1,0.5,4.7,2.4c0,0,0,0.1,0,0.1c0.2-0.7,0.2-1.4,0-2.2
			c-0.6-2-2.7-3.1-4.7-2.4c-1.9,0.6-3,2.6-2.5,4.6C30.7,34.8,31.6,33.9,32.9,33.5z"/>
		
			<ellipse id="XMLID_1730_" transform="matrix(0.9528 -0.3035 0.3035 0.9528 -9.0066 11.9639)" class="st95" cx="34" cy="35" rx="3.7" ry="3.7"/>
		<path id="XMLID_1729_" class="st95" d="M35.4,31.6c0,0-0.5,1.7,0,3c0.4,1.3,1.7,2.4,1.7,2.4"/>
		<path id="XMLID_1728_" class="st95" d="M30.9,33c0,0,1.3,1.1,1.7,2.4c0.4,1.3,0,3,0,3"/>
	</g>
</g>
</svg>
