<?xml version="1.0" encoding="UTF-8" standalone="no"?>
<svg
   width="64pt"
   height="64pt"
   viewBox="0 0 22.577778 22.577778"
   version="1.1"
   id="svg831"
   inkscape:version="1.1.2 (1:1.1+202202050950+0a00cf5339)"
   sodipodi:docname="28 - Trainer.svg"
   inkscape:export-filename="/media/taufikramadhan/Data/Tr Design Studio/Project Design/TR Creative Design/Icon Design/Project Hiring/Icon Icons/018 - Gym And Fitness/5 - Send/3 - Flat/28 - Trainer.png"
   inkscape:export-xdpi="576"
   inkscape:export-ydpi="576"
   xmlns:inkscape="http://www.inkscape.org/namespaces/inkscape"
   xmlns:sodipodi="http://sodipodi.sourceforge.net/DTD/sodipodi-0.dtd"
   xmlns="http://www.w3.org/2000/svg"
   xmlns:svg="http://www.w3.org/2000/svg"
   xmlns:rdf="http://www.w3.org/1999/02/22-rdf-syntax-ns#"
   xmlns:cc="http://creativecommons.org/ns#"
   xmlns:dc="http://purl.org/dc/elements/1.1/">
  <defs
     id="defs825">
    <pattern
       id="EMFhbasepattern"
       patternUnits="userSpaceOnUse"
       width="6"
       height="6"
       x="0"
       y="0" />
    <pattern
       id="EMFhbasepattern-9"
       patternUnits="userSpaceOnUse"
       width="6"
       height="6"
       x="0"
       y="0" />
    <pattern
       id="EMFhbasepattern-0"
       patternUnits="userSpaceOnUse"
       width="6"
       height="6"
       x="0"
       y="0" />
    <pattern
       id="EMFhbasepattern-7"
       patternUnits="userSpaceOnUse"
       width="6"
       height="6"
       x="0"
       y="0" />
    <pattern
       id="EMFhbasepattern-2"
       patternUnits="userSpaceOnUse"
       width="6"
       height="6"
       x="0"
       y="0" />
    <pattern
       id="EMFhbasepattern-98"
       patternUnits="userSpaceOnUse"
       width="6"
       height="6"
       x="0"
       y="0" />
    <pattern
       id="EMFhbasepattern-6"
       patternUnits="userSpaceOnUse"
       width="6"
       height="6"
       x="0"
       y="0" />
    <pattern
       id="EMFhbasepattern-01"
       patternUnits="userSpaceOnUse"
       width="6"
       height="6"
       x="0"
       y="0" />
    <pattern
       id="EMFhbasepattern-07"
       patternUnits="userSpaceOnUse"
       width="6"
       height="6"
       x="0"
       y="0" />
    <pattern
       id="EMFhbasepattern-8"
       patternUnits="userSpaceOnUse"
       width="6"
       height="6"
       x="0"
       y="0" />
    <pattern
       id="EMFhbasepattern-4"
       patternUnits="userSpaceOnUse"
       width="6"
       height="6"
       x="0"
       y="0" />
    <pattern
       id="EMFhbasepattern-40"
       patternUnits="userSpaceOnUse"
       width="6"
       height="6"
       x="0"
       y="0" />
    <pattern
       id="EMFhbasepattern-08"
       patternUnits="userSpaceOnUse"
       width="6"
       height="6"
       x="0"
       y="0" />
    <pattern
       id="EMFhbasepattern-04"
       patternUnits="userSpaceOnUse"
       width="6"
       height="6"
       x="0"
       y="0" />
    <pattern
       id="EMFhbasepattern-014"
       patternUnits="userSpaceOnUse"
       width="6"
       height="6"
       x="0"
       y="0" />
    <pattern
       id="EMFhbasepattern-27"
       patternUnits="userSpaceOnUse"
       width="6"
       height="6"
       x="0"
       y="0" />
    <pattern
       id="EMFhbasepattern-09"
       patternUnits="userSpaceOnUse"
       width="6"
       height="6"
       x="0"
       y="0" />
    <pattern
       id="EMFhbasepattern-5"
       patternUnits="userSpaceOnUse"
       width="6"
       height="6"
       x="0"
       y="0" />
    <pattern
       id="EMFhbasepattern-018"
       patternUnits="userSpaceOnUse"
       width="6"
       height="6"
       x="0"
       y="0" />
  </defs>
  <sodipodi:namedview
     inkscape:lockguides="true"
     id="base"
     pagecolor="#ffffff"
     bordercolor="#666666"
     borderopacity="1.0"
     inkscape:pageopacity="0.0"
     inkscape:pageshadow="2"
     inkscape:zoom="4.4249417"
     inkscape:cx="17.062372"
     inkscape:cy="54.689986"
     inkscape:document-units="pt"
     inkscape:current-layer="layer1"
     showgrid="false"
     units="pt"
     inkscape:window-width="1366"
     inkscape:window-height="705"
     inkscape:window-x="0"
     inkscape:window-y="31"
     inkscape:window-maximized="1"
     inkscape:pagecheckerboard="true"
     inkscape:showpageshadow="false"
     inkscape:object-paths="true"
     inkscape:snap-intersection-paths="true"
     inkscape:snap-smooth-nodes="true"
     inkscape:snap-midpoints="true"
     showguides="false"
     inkscape:snap-bbox="true"
     inkscape:bbox-nodes="true"
     inkscape:snap-nodes="false"
     inkscape:snap-global="true"
     inkscape:document-rotation="0">
    <inkscape:grid
       type="xygrid"
       id="grid1378" />
    <sodipodi:guide
       position="0.97013831,21.607643"
       orientation="78.000048,0"
       id="guide1380"
       inkscape:locked="true" />
    <sodipodi:guide
       position="0.97013831,0.97013129"
       orientation="0,78.000005"
       id="guide1382"
       inkscape:locked="true" />
    <sodipodi:guide
       position="21.607639,0.97013129"
       orientation="-78.000048,0"
       id="guide1384"
       inkscape:locked="true" />
    <sodipodi:guide
       position="21.607639,21.607643"
       orientation="0,-78.000005"
       id="guide1386"
       inkscape:locked="true" />
  </sodipodi:namedview>
  <metadata
     id="metadata828">
    <rdf:RDF>
      <cc:Work
         rdf:about="">
        <dc:format>image/svg+xml</dc:format>
        <dc:type
           rdf:resource="http://purl.org/dc/dcmitype/StillImage" />
      </cc:Work>
    </rdf:RDF>
  </metadata>
  <g
     inkscape:label="Icon"
     inkscape:groupmode="layer"
     id="layer1"
     transform="translate(0,-274.42223)">
    <g
       id="g1302087"
       style="display:inline;stroke-width:0.794894"
       transform="matrix(1.2580289,0,0,1.2580289,-37.736163,-192.39288)">
      <path
         style="color:#000000;fill:#ffccbc;stroke-width:0.794894;stroke-linecap:round;stroke-linejoin:round;stroke-miterlimit:10;-inkscape-stroke:none"
         d="m 37.824219,377.27148 a 0.26460996,0.26460996 0 0 0 -0.259766,0.21289 l -0.255859,1.28321 a 0.26460996,0.26460996 0 0 0 0.0078,0.12695 c 0,0 0.08246,0.27765 0.3125,0.54297 0.230036,0.26532 0.632775,0.53516 1.212891,0.53516 0.580116,0 0.982855,-0.26984 1.21289,-0.53516 0.230036,-0.26532 0.314454,-0.54297 0.314454,-0.54297 a 0.26460996,0.26460996 0 0 0 0.0059,-0.12695 l -0.253906,-1.28321 a 0.26460996,0.26460996 0 0 0 -0.259766,-0.21289 z"
         id="path954557" />
      <path
         id="path1206622"
         style="fill:#ffa185;fill-opacity:1;stroke-width:0.794894;stroke-linecap:round;stroke-linejoin:round;stroke-miterlimit:10"
         d="m 37.824048,377.27158 a 0.26460996,0.26460996 0 0 0 -0.259416,0.21291 l -0.130222,0.65319 c 0.260583,0.16982 0.560795,0.28215 0.897617,0.28215 h 1.019578 c 0.337237,0 0.637846,-0.11249 0.898652,-0.28267 l -0.129191,-0.65267 a 0.26460996,0.26460996 0 0 0 -0.259932,-0.21291 z" />
      <path
         style="color:#000000;fill:#ffccbc;stroke-width:0.794894;stroke-linecap:round;stroke-linejoin:round;stroke-miterlimit:10;-inkscape-stroke:none"
         d="m 36.550816,374.89648 c -0.353606,0 -0.646484,0.29288 -0.646484,0.64649 v 0.2539 c 0,0.35362 0.292878,0.64649 0.646484,0.64649 l 0.193407,-0.002 c 0.143765,0.37751 0.3197,0.74133 0.564453,1.00195 0.2909,0.30976 0.639135,0.52734 1.023437,0.52734 h 1.019531 c 0.384303,0 0.732538,-0.21758 1.023438,-0.52734 0.244582,-0.26044 0.420699,-0.62476 0.564453,-1.00195 l 0.191406,0.002 c 0.3564,0.003 0.650391,-0.29287 0.650391,-0.64649 v -0.2539 c 0,-0.34827 -0.290312,-0.62806 -0.636719,-0.63672 v -1.00391 c 5.62e-4,-0.14693 -0.118693,-0.26618 -0.265625,-0.26562 h -4.074301 c -0.146168,5.2e-4 -0.26423,0.11945 -0.263671,0.26562 z"
         id="path954569"
         sodipodi:nodetypes="cssccssssccsscccccc" />
      <path
         id="path1286228"
         style="fill:#ffa185;fill-opacity:1;stroke:none;stroke-width:0.420632;stroke-linecap:round;stroke-linejoin:round;stroke-miterlimit:10;stroke-dasharray:none;stroke-opacity:1;stop-color:#000000"
         d="m 36.478113,374.91359 c -0.0181,0.0704 -0.0491,0.14464 -0.09664,0.2191 -0.228854,0.45641 -0.120076,0.86744 0.382923,0.99788 v 0.31057 l -0.191203,0.002 c -0.356399,0.003 -0.650606,-0.29285 -0.650606,-0.64647 v -0.25373 c 0,-0.32062 0.246187,-0.58298 0.555522,-0.62942 z"
         sodipodi:nodetypes="cccccsscc" />
      <path
         id="path1281955"
         style="fill:#ffa185;fill-opacity:1;stroke:none;stroke-width:0.420632;stroke-linecap:round;stroke-linejoin:round;stroke-miterlimit:10;stroke-dasharray:none;stroke-opacity:1;stop-color:#000000"
         d="m 41.225908,374.91359 c 0.0181,0.0704 0.0491,0.14464 0.09664,0.2191 0.228854,0.45641 0.120076,0.86744 -0.382924,0.99788 v 0.31057 l 0.191204,0.002 c 0.356399,0.003 0.650605,-0.29285 0.650605,-0.64647 v -0.25373 c 0,-0.32062 -0.246186,-0.58298 -0.555521,-0.62942 z"
         sodipodi:nodetypes="cccccsscc" />
      <path
         style="color:#000000;fill:#3a4d5c;stroke-width:0.794894;stroke-linecap:round;stroke-linejoin:round;stroke-miterlimit:10;-inkscape-stroke:none"
         d="m 38.841797,371.83984 c -0.79333,0 -1.337264,0.13257 -1.689453,0.27344 -0.352189,0.14088 -0.535156,0.3125 -0.535157,0.3125 -0.485903,0.48591 -0.461038,1.21688 -0.359375,1.79297 0.101664,0.57609 0.304688,1.04492 0.304688,1.04492 a 0.26460996,0.26460996 0 0 0 0.429687,0.084 c 0,0 0.417308,-0.54163 0.707032,-1.17383 0.158518,0.0681 0.46663,0.23242 1.142578,0.23242 0.676146,0 0.986169,-0.16441 1.144531,-0.23242 0.289717,0.63208 0.705078,1.17383 0.705078,1.17383 a 0.26460996,0.26460996 0 0 0 0.431641,-0.084 c 0,0 0.201071,-0.46883 0.302734,-1.04492 0.101664,-0.57609 0.126528,-1.30706 -0.359375,-1.79297 0,0 -0.182967,-0.17162 -0.535156,-0.3125 -0.352189,-0.14087 -0.896123,-0.27344 -1.689453,-0.27344 z"
         id="path954595" />
      <path
         id="path1286856"
         style="color:#000000;fill:#143441;fill-opacity:1;stroke-width:0.794894;stroke-linecap:round;stroke-linejoin:round;stroke-miterlimit:10;-inkscape-stroke:none"
         d="m 38.841557,371.83987 c -0.79333,0 -1.337112,0.1325 -1.689302,0.27337 -0.352189,0.14088 -0.534849,0.31264 -0.534852,0.31264 -0.1016,0.10161 -0.180938,0.21394 -0.241845,0.33331 0.07015,-0.0385 0.152429,-0.0787 0.247531,-0.11678 0.352189,-0.14087 0.895972,-0.27337 1.689301,-0.27337 0.793332,0 1.337633,0.1325 1.68982,0.27337 0.352189,0.14088 0.534852,0.31264 0.534852,0.31264 0.485902,0.48591 0.46133,1.21656 0.359667,1.79265 -0.04236,0.24004 -0.101955,0.46105 -0.157096,0.63769 0.138133,0.0858 0.320251,0.0279 0.383439,-0.12195 0,0 0.20116,-0.46881 0.302824,-1.0449 0.101663,-0.57609 0.126235,-1.30675 -0.359667,-1.79266 0,0 -0.182663,-0.17176 -0.534853,-0.31264 -0.352187,-0.14087 -0.896487,-0.27337 -1.689819,-0.27337 z"
         sodipodi:nodetypes="ssccssscsccscss" />
      <path
         style="color:#000000;display:inline;fill:#dc1c4b;stroke-width:0.794894;stroke-linecap:round;stroke-linejoin:round;stroke-miterlimit:10;-inkscape-stroke:none"
         d="m 41.312501,388.2441 c 0.124966,-6.1e-4 0.232467,-0.0886 0.257812,-0.21094 l 0.351563,-1.71289 c 0.0055,-0.0243 0.0074,-0.0493 0.0059,-0.0742 l -0.130859,-1.61328 c 0.501098,-0.7915 0.947266,-1.84765 0.947266,-1.84765 0.01819,-0.0438 0.02426,-0.0917 0.01758,-0.13868 -0.03757,-0.2518 -0.031,-0.47936 -0.02148,-0.68945 l 1.785157,-0.73437 c 0.138398,-0.0569 0.202136,-0.21712 0.140625,-0.35352 l -0.08594,-0.19141 c -0.278371,-0.83511 -0.863281,-1.41992 -0.863281,-1.41992 -0.03711,-0.0379 -0.08474,-0.0637 -0.136719,-0.0742 l -3.425781,-0.6875 c -0.03824,-0.007 -0.07758,-0.006 -0.115235,0.004 -0.134416,0.0336 -0.223182,0.10947 -0.289062,0.16992 -0.06588,0.0605 -0.147557,0.11442 -0.211796,0.16211 -0.128478,0.0954 -0.260863,0.18945 -0.68701,0.18945 -0.426145,0 -0.588686,-0.094 -0.717164,-0.18945 -0.06424,-0.0477 -0.146679,-0.10161 -0.212559,-0.16211 -0.06588,-0.0605 -0.154646,-0.13632 -0.289062,-0.16992 -0.03766,-0.01 -0.077,-0.011 -0.115235,-0.004 l -3.157876,0.6875 c -0.05198,0.0105 -0.09961,0.0363 -0.136719,0.0742 0,0 -0.58491,0.58481 -0.863281,1.41992 l -0.08594,0.19141 c -0.06151,0.1364 0.0022,0.29662 0.140625,0.35352 l 1.785157,0.73437 c 0.0095,0.21009 0.01609,0.43765 -0.02148,0.68945 -0.0067,0.047 -6.1e-4,0.0949 0.01758,0.13868 0,0 0.446168,1.05615 0.947266,1.84765 l -0.130859,1.61328 c -0.0015,0.0249 4e-4,0.0499 0.0059,0.0742 l 0.351563,1.71289 c 0.02535,0.12234 0.132846,0.21033 0.257812,0.21094 z"
         id="path954563"
         sodipodi:nodetypes="ccccccccccccccccscsccccccccccccccccc" />
      <path
         id="path1262357"
         style="fill:#801231;fill-opacity:1;stroke-width:0.794894;stroke-linecap:round;stroke-linejoin:round;stroke-miterlimit:10"
         d="m 41.81037,385.44163 -0.954982,0.33796 c -0.39673,0.13781 -0.532395,0.59355 -0.376722,0.96635 -0.228743,0.21671 -0.321985,0.55003 -0.177766,0.83819 l 0.328663,0.65991 h 0.683162 c 0.124762,-7.9e-4 0.231998,-0.0887 0.257347,-0.21084 l 0.351917,-1.71307 c 0.0053,-0.0242 0.0073,-0.0491 0.0057,-0.0739 l -0.06533,-0.8068 z"
         sodipodi:nodetypes="ccccccccccc" />
      <path
         id="path954601"
         style="color:#000000;fill:#ffccbc;stroke-width:0.794894;stroke-linecap:round;stroke-linejoin:round;stroke-miterlimit:10;-inkscape-stroke:none"
         d="m 42.160228,385.81057 -1.152385,0.40617 c -0.16524,0.0574 -0.230187,0.25659 -0.130741,0.4005 l 0.173633,0.25166 -0.250113,0.17208 c -0.108244,0.075 -0.144717,0.21814 -0.08578,0.3359 l 0.359151,0.72089 c 0.06181,0.12448 0.209473,0.17959 0.337966,0.1266 l 0.973066,-0.39636 c 0.04418,-0.0181 0.08242,-0.0477 0.111104,-0.0858 l 0.591695,-0.82217 c 0.50409,-0.18565 1.005941,-0.67137 1.373045,-1.20354 0.364432,-0.52831 0.606523,-1.09197 0.538983,-1.59732 0.36517,-1.35465 -0.109911,-2.72432 -0.329695,-3.24425 l -0.100264,-0.22735 -2.349209,0.9591 -0.0155,0.20541 c -0.04192,0.63054 0.07053,1.64659 0.77722,2.43577 -0.295253,0.32983 -0.670792,0.88272 -0.822176,1.56271 z"
         sodipodi:nodetypes="cccccccccccsccccccc" />
      <path
         id="path1203791"
         style="color:#000000;fill:#801231;stroke-width:0.794894;stroke-linecap:round;stroke-linejoin:round;stroke-miterlimit:10;-inkscape-stroke:none"
         d="m 41.99869,381.07187 c 0.01328,5.3e-4 0.02635,0.003 0.03979,0.005 v -5.3e-4 c 0.142579,0.028 0.236186,0.16622 0.209288,0.30902 0,0 -0.163917,0.93981 0.133327,1.83451 0.02209,0.0665 0.04696,0.13283 0.07441,0.19844 -0.08568,0.17839 -0.186225,0.37997 -0.296106,0.58601 -0.734528,-1.2259 -0.430983,-2.71869 -0.430983,-2.71869 0.02537,-0.13005 0.141841,-0.21931 0.27027,-0.21395 z"
         sodipodi:nodetypes="ccccsccccc" />
      <path
         id="path1203793"
         style="color:#000000;fill:#ffa185;stroke-width:0.794894;stroke-linecap:round;stroke-linejoin:round;stroke-miterlimit:10;-inkscape-stroke:none"
         d="m 43.114382,383.46293 c 0.07623,-10e-4 0.152281,0.0305 0.205674,0.093 0.09493,0.1111 0.08165,0.27819 -0.02946,0.37311 0,0 -0.133789,0.1209 -0.307994,0.31884 -0.127611,-0.1425 -0.234592,-0.29272 -0.326077,-0.44648 0.168454,-0.17589 0.290422,-0.27492 0.290422,-0.27492 0.04861,-0.0415 0.108138,-0.0625 0.167431,-0.0636 z"
         sodipodi:nodetypes="cscccccc" />
      <path
         id="path1268161"
         style="color:#000000;fill:#ffa185;fill-opacity:1;stroke-width:0.794894;stroke-linecap:round;stroke-linejoin:round;stroke-miterlimit:10;-inkscape-stroke:none"
         d="m 44.569889,380.6476 -0.448551,0.18294 0.01964,0.0444 c 0.219784,0.51993 0.694867,1.88959 0.329694,3.24425 0.06754,0.50535 -0.17455,1.06901 -0.538982,1.59731 -0.367104,0.53217 -0.868955,1.0179 -1.373045,1.20355 l -0.591696,0.82217 c -0.02868,0.0381 -0.06692,0.0677 -0.111103,0.0858 l -0.758093,0.30903 c 0.07081,0.0963 0.200118,0.13438 0.314193,0.0873 l 0.973066,-0.39636 c 0.04418,-0.0181 0.08242,-0.0477 0.111104,-0.0858 l 0.591696,-0.82217 c 0.504089,-0.18565 1.00594,-0.67138 1.373044,-1.20355 0.364432,-0.5283 0.606523,-1.09196 0.538983,-1.59731 0.365173,-1.35466 -0.10991,-2.72432 -0.329695,-3.24425 z" />
      <path
         id="path1273610"
         style="fill:#801231;fill-opacity:1;stroke:none;stroke-width:0.420632;stroke-linecap:round;stroke-linejoin:round;stroke-miterlimit:10;stroke-dasharray:none;stroke-opacity:1;stop-color:#000000"
         d="m 40.619745,378.58985 0.01291,0.24391 2.743502,0.7059 0.745172,1.29088 0.458888,-0.15296 c -0.27837,-0.83511 -0.863512,-1.41956 -0.863512,-1.41956 a 0.26460996,0.26460996 0 0 0 -0.136427,-0.0744 z" />
      <path
         id="path3839"
         style="fill:#801231;fill-opacity:1;stroke-width:0.794894;stroke-linecap:round;stroke-linejoin:round;stroke-miterlimit:10"
         d="m 36.129098,385.44163 0.954982,0.33796 c 0.39673,0.13781 0.532395,0.59355 0.376722,0.96635 0.228743,0.21671 0.321985,0.55003 0.177766,0.83819 l -0.328663,0.65991 h -0.683162 c -0.124762,-7.9e-4 -0.231998,-0.0887 -0.257347,-0.21084 l -0.351917,-1.71307 c -0.0053,-0.0242 -0.0073,-0.0491 -0.0057,-0.0739 l 0.06533,-0.8068 z"
         sodipodi:nodetypes="ccccccccccc" />
      <path
         id="path3841"
         style="color:#000000;fill:#ffccbc;stroke-width:0.794894;stroke-linecap:round;stroke-linejoin:round;stroke-miterlimit:10;-inkscape-stroke:none"
         d="m 35.77924,385.81057 1.152385,0.40617 c 0.16524,0.0574 0.230187,0.25659 0.130741,0.4005 l -0.173633,0.25166 0.250113,0.17208 c 0.108244,0.075 0.144717,0.21814 0.08578,0.3359 l -0.359151,0.72089 c -0.06181,0.12448 -0.209473,0.17959 -0.337966,0.1266 l -0.973066,-0.39636 c -0.04418,-0.0181 -0.08242,-0.0477 -0.111104,-0.0858 l -0.591695,-0.82217 c -0.50409,-0.18565 -1.005941,-0.67137 -1.373045,-1.20354 -0.364432,-0.52831 -0.606523,-1.09197 -0.538983,-1.59732 -0.36517,-1.35465 0.109911,-2.72432 0.329695,-3.24425 l 0.100264,-0.22735 2.349209,0.9591 0.0155,0.20541 c 0.04192,0.63054 -0.07053,1.64659 -0.77722,2.43577 0.295253,0.32983 0.670792,0.88272 0.822176,1.56271 z"
         sodipodi:nodetypes="cccccccccccsccccccc" />
      <path
         id="path3843"
         style="color:#000000;fill:#801231;stroke-width:0.794894;stroke-linecap:round;stroke-linejoin:round;stroke-miterlimit:10;-inkscape-stroke:none"
         d="m 35.940778,381.07187 c -0.01328,5.3e-4 -0.02635,0.003 -0.03979,0.005 v -5.3e-4 c -0.142579,0.028 -0.236186,0.16622 -0.209288,0.30902 0,0 0.163917,0.93981 -0.133327,1.83451 -0.02209,0.0665 -0.04696,0.13283 -0.07441,0.19844 0.08568,0.17839 0.186225,0.37997 0.296106,0.58601 0.734528,-1.2259 0.430983,-2.71869 0.430983,-2.71869 -0.02537,-0.13005 -0.141841,-0.21931 -0.27027,-0.21395 z"
         sodipodi:nodetypes="ccccsccccc" />
      <path
         id="path3845"
         style="color:#000000;fill:#ffa185;stroke-width:0.794894;stroke-linecap:round;stroke-linejoin:round;stroke-miterlimit:10;-inkscape-stroke:none"
         d="m 34.825086,383.46293 c -0.07623,-10e-4 -0.152281,0.0305 -0.205674,0.093 -0.09493,0.1111 -0.08165,0.27819 0.02946,0.37311 0,0 0.133789,0.1209 0.307994,0.31884 0.127611,-0.1425 0.234592,-0.29272 0.326077,-0.44648 -0.168454,-0.17589 -0.290422,-0.27492 -0.290422,-0.27492 -0.04861,-0.0415 -0.108138,-0.0625 -0.167431,-0.0636 z"
         sodipodi:nodetypes="cscccccc" />
      <path
         id="path59831"
         style="color:#000000;fill:#ececec;fill-opacity:1;stroke-width:0.794894;stroke-linecap:round;stroke-linejoin:round;stroke-miterlimit:10;-inkscape-stroke:none"
         d="m 37.547064,378.49373 a 0.26460996,0.26460996 0 0 0 -0.02946,0.003 l -0.491961,0.0987 0.02532,0.24082 c 5.29e-4,0.006 0.06429,0.74236 0.296621,1.4981 0.116608,0.3793 0.273236,0.76632 0.505913,1.07797 0.232677,0.31164 0.569341,0.55862 0.988052,0.55862 0.418629,0 0.75587,-0.24721 0.988571,-0.55862 0.232701,-0.31141 0.3893,-0.69691 0.505912,-1.07591 0.232937,-0.75705 0.296463,-1.4983 0.296624,-1.50016 v -0.002 l 0.02376,-0.23668 -0.502296,-0.10077 a 0.26460996,0.26460996 0 0 0 -0.0181,-0.002 l -0.02842,0.28835 a 0.26460996,0.26460996 0 0 0 0,0.004 c 0,0 -0.06511,0.70238 -0.277503,1.39268 -0.106198,0.34515 -0.250608,0.684 -0.423746,0.9157 -0.173138,0.2317 -0.346839,0.34572 -0.564824,0.34572 -0.217898,0 -0.389078,-0.11379 -0.56224,-0.34572 -0.173162,-0.23193 -0.319606,-0.57023 -0.425812,-0.9157 -0.212416,-0.69094 -0.275437,-1.39475 -0.275437,-1.39475 a 0.26460996,0.26460996 0 0 0 0,-5.3e-4 0.26460996,0.26460996 0 0 0 0,-5.3e-4 0.26460996,0.26460996 0 0 0 0,-5.3e-4 0.26460996,0.26460996 0 0 0 0,-5.3e-4 0.26460996,0.26460996 0 0 0 0,-5.2e-4 0.26460996,0.26460996 0 0 0 0,-5.3e-4 0.26460996,0.26460996 0 0 0 0,-5.3e-4 0.26460996,0.26460996 0 0 0 0,-5.3e-4 0.26460996,0.26460996 0 0 0 0,-5.3e-4 0.26460996,0.26460996 0 0 0 0,-5.3e-4 0.26460996,0.26460996 0 0 0 0,-5.3e-4 z" />
      <path
         style="color:#000000;fill:#801231;stroke-width:0.794894;stroke-linecap:round;stroke-linejoin:round;stroke-miterlimit:10;-inkscape-stroke:none"
         d="m 38.841797,381.44141 c -0.424267,0 -0.773441,0.34917 -0.773438,0.77343 -3e-6,0.42427 0.349171,0.77539 0.773438,0.77539 0.424266,0 0.77344,-0.35112 0.773437,-0.77539 3e-6,-0.42426 -0.349171,-0.77343 -0.773437,-0.77343 z"
         id="path954579" />
      <path
         style="color:#000000;fill:#801231;stroke-width:0.794894;stroke-linecap:round;stroke-linejoin:round;stroke-miterlimit:10;-inkscape-stroke:none"
         d="m 39.351562,381.95117 a 0.2645835,0.2645835 0 0 0 -0.265625,0.26563 v 1.01757 a 0.2645835,0.2645835 0 0 0 0.265625,0.26368 0.2645835,0.2645835 0 0 0 0.263672,-0.26368 v -1.01757 a 0.2645835,0.2645835 0 0 0 -0.263672,-0.26563 z"
         id="path60296" />
    </g>
  </g>
</svg>
