<?xml version="1.0" ?><!DOCTYPE svg  PUBLIC '-//W3C//DTD SVG 1.1//EN'  'http://www.w3.org/Graphics/SVG/1.1/DTD/svg11.dtd'><svg style="enable-background:new 0 0 512 512;" version="1.1" viewBox="0 0 512 512" xml:space="preserve" xmlns="http://www.w3.org/2000/svg" xmlns:xlink="http://www.w3.org/1999/xlink"><g id="volleyball"><g><g><defs><circle cx="256" cy="256" id="SVGID_1_" r="200"/></defs><use style="overflow:visible;fill:#EEEEEE;" xlink:href="#SVGID_1_"/><clipPath id="SVGID_2_"><use style="overflow:visible;" xlink:href="#SVGID_1_"/></clipPath></g><g><path d="M256,126.984c35.795,0,72.119,7.066,108.011,21.004c13.938,35.893,21.003,72.216,21.003,108.012     s-7.065,72.119-21.003,108.011C328.119,377.95,291.795,385.015,256,385.015s-72.119-7.065-108.011-21.004     c-13.938-35.893-21.003-72.216-21.003-108.011s7.065-72.119,21.003-108.012C183.881,134.05,220.205,126.984,256,126.984      M256,118.984c-38.06,0-76.12,7.612-114.179,22.836c-30.447,76.119-30.447,152.239,0,228.358     c38.06,15.224,76.119,22.836,114.179,22.836s76.12-7.612,114.179-22.836c30.447-76.119,30.447-152.239,0-228.358     C332.12,126.597,294.06,118.984,256,118.984L256,118.984z" style="fill:#424242;"/></g><g><path d="M256,70c49.683,0,96.391,19.347,131.522,54.478S442,206.317,442,256     s-19.347,96.391-54.478,131.522S305.683,442,256,442s-96.391-19.347-131.522-54.478S70,305.683,70,256     s19.347-96.391,54.478-131.522S206.317,70,256,70 M256,56C145.543,56,56,145.543,56,256s89.543,200,200,200s200-89.543,200-200     S366.457,56,256,56L256,56z" style="fill:#424242;"/></g><line style="fill:#EEEEEE;stroke:#424242;stroke-width:8;stroke-miterlimit:10;" x1="366.852" x2="375.352" y1="367.542" y2="407.884"/><g><path d="M124.661,290.718     c0,0,64.766,13.012,131.054,13.012c66.288,0,131.624-13.012,131.624-13.012" style="fill:none;stroke:#424242;stroke-width:5;stroke-miterlimit:10;"/><path d="M124.661,221.881     c0,0,64.766-13.012,131.054-13.012c66.288,0,131.624,13.012,131.624,13.012" style="fill:none;stroke:#424242;stroke-width:5;stroke-miterlimit:10;"/></g><line style="fill:#EEEEEE;stroke:#424242;stroke-width:8;stroke-miterlimit:10;" x1="145.352" x2="136.852" y1="367.542" y2="407.884"/><line style="fill:#EEEEEE;stroke:#424242;stroke-width:8;stroke-miterlimit:10;" x1="145.018" x2="136.518" y1="145.553" y2="105.212"/><line style="fill:#EEEEEE;stroke:#424242;stroke-width:8;stroke-miterlimit:10;" x1="366.518" x2="375.018" y1="145.553" y2="105.212"/><g><path d="M221.583,387.959     c0,0-13.013,41.217-13.013,60.007" style="fill:none;stroke:#424242;stroke-width:5;stroke-miterlimit:10;"/><path d="M303.583,448.227     c0-18.79-13.012-60.268-13.012-60.268" style="fill:none;stroke:#424242;stroke-width:5;stroke-miterlimit:10;"/></g><g><path d="M290.494,127.137     c0,0,13.013-41.217,13.013-60.007" style="fill:none;stroke:#424242;stroke-width:5;stroke-miterlimit:10;"/><path d="M208.494,66.869     c0,18.79,13.012,60.268,13.012,60.268" style="fill:none;stroke:#424242;stroke-width:5;stroke-miterlimit:10;"/></g></g></g><g id="Layer_1"/></svg>