<?xml version="1.0" encoding="UTF-8"?>
<!-- Generated by Pixelmator Pro 3.5.5 -->
<svg width="800" height="800" viewBox="0 0 800 800" xmlns="http://www.w3.org/2000/svg">
    <path id="Pfad" fill="#e8b57f" stroke="none" d="M 397.145325 265.724976 C 397.145325 265.724976 362.796875 293.118744 343.578125 309.631256 C 324.364075 326.135956 323.560944 325.315613 284.729706 325.726563 C 245.896866 326.135956 215.637497 377.654694 171.598434 389.621887 C 127.560936 401.58905 135.007813 395.425018 122.995316 395.834381 C 110.987495 396.251556 101.014069 406.326569 105.170311 424.884369 C 115.178123 443.871887 97.178123 463.635925 90.771881 470.143738 C 84.362503 476.651581 75.943748 489.279694 79.948441 506.618744 C 79.948441 506.618744 61.52969 507.856262 63.935936 517.757813 C 69.915619 542.446838 146.290619 464.359375 153.606247 441.501556 C 157.717194 425.681244 271.121887 416.112518 303.142181 395.065613 C 303.142181 395.065613 341.568756 403.320313 365.1875 384.742188 C 388.806244 366.171875 438.676544 352.335938 467.059387 333.032837 C 467.059387 333.032837 469.915619 261.854675 397.134369 265.72345 L 397.145325 265.724976 L 397.145325 265.724976 Z"/>
    <g id="Gruppe">
        <path id="path1" fill="#ed4c54" stroke="none" d="M 691.082825 256.6828 C 691.082825 256.6828 671 317.262512 577.271912 304.962494 C 577.271912 304.962494 563.431274 301.331268 559.492188 286.110901 L 458.796875 350.165619 C 458.796875 350.165619 449.170288 298.292175 397.143738 265.724976 C 397.143738 265.724976 568.221863 131.418762 637.162476 175.6828 C 690.3125 213.325012 691.082825 256.6828 691.082825 256.6828 Z"/>
        <path id="path2" fill="#ed4c54" stroke="none" d="M 390.650024 281.674988 C 390.650024 281.674988 426.740662 354.739075 460.575012 348.984375 C 460.573425 348.984375 457.228149 288.773438 390.650024 281.674988 Z"/>
    </g>
    <g id="g1">
        <path id="path3" fill="#fed298" stroke="none" d="M 390.650024 281.674988 C 390.650024 281.674988 356.296875 309.068756 337.082825 325.581238 C 317.868744 342.085938 317.065613 341.265625 278.237518 341.676575 C 239.404678 342.085938 209.145309 393.604675 165.106247 405.571899 C 121.068748 417.539063 128.515625 411.375 116.498436 411.784363 C 104.493752 412.201538 94.521873 422.27655 98.678123 440.834381 C 108.682808 459.821899 90.685944 479.585938 84.279686 486.09375 C 77.870316 492.601593 69.451561 505.229675 73.456253 522.568726 C 73.456253 522.568726 55.037498 523.806274 57.443748 533.707825 C 63.424999 558.398438 139.804688 480.310913 147.120316 457.453094 C 151.231247 441.632782 264.635956 432.064056 296.65625 411.017181 C 296.65625 411.017181 335.082825 419.271912 358.701569 400.693756 C 382.320313 382.123444 432.190613 368.28595 460.573425 348.984375 C 460.573425 348.984375 463.429688 277.806274 390.650024 281.674988 Z"/>
        <path id="path4" fill="#fed298" stroke="none" d="M 690.984375 255.796875 C 690.984375 255.796875 698.590637 321.834381 690.984375 358.984375 C 690.984375 358.984375 611.33905 366.082825 574.493713 317.957794 L 690.984375 255.796875 Z"/>
    </g>
    <path id="path5" fill="#e8b57f" stroke="none" d="M 691.631287 262.096863 C 693.295349 279.465637 697.168701 328.779694 690.984375 358.989075 C 690.984375 358.989075 687.664063 359.284363 682.073425 359.346863 C 692.115662 324.226563 691.631287 262.096863 691.631287 262.096863 Z"/>
    <path id="path6" fill="#4d4d4d" stroke="none" d="M 419.490631 513.393738 C 419.490631 513.393738 428.167206 515.409363 428.59845 525.46875 C 429.032806 535.534424 419.490631 535.407837 419.490631 535.407837 C 419.490631 535.407837 449.093781 555.854736 369.673431 555.854736 C 338.660919 555.854736 326.017181 538.215637 334.476563 508.034363 C 334.476563 508.034363 313.434387 507.140625 318.209381 472.037506 C 322.979675 436.929688 356.378113 406.520325 378.284393 429.331268 C 378.284393 429.331268 377.850006 423.740631 387.612518 422.84375 C 387.612518 422.84375 378.935944 426.204681 380.456268 431.565613 L 419.493774 513.400024 L 419.490631 513.393738 Z"/>
    <path id="path7" fill="#e8b57f" stroke="none" d="M 458.528137 500.648438 C 458.528137 500.648438 472.568756 506.3125 482.929718 495.560944 L 499.601563 553.370361 C 499.601563 553.370361 457.657806 550.0625 418.6203 535.082825 C 418.6203 535.082825 436.185944 526.587524 419.489044 513.398438 C 419.489044 513.398438 451.367188 498.643738 458.52655 500.65155 L 458.528137 500.648438 L 458.528137 500.648438 Z"/>
    <path id="path8" fill="#fed298" stroke="none" d="M 378.284393 429.321869 C 378.284393 429.321869 399.539063 426.862488 406.042206 430.440613 C 412.550018 434.023438 419.879669 438.657806 432.456268 433.292206 C 445.832825 428.2547 439.735931 443.107788 439.735931 444.226563 C 439.735931 445.342194 443.842163 447.143738 447.310913 447.143738 C 450.787506 447.143738 449.420319 454.587494 449.420319 454.587494 C 449.420319 454.587494 454.626556 451.665649 456.793732 453.907837 C 458.960907 456.145325 458.7453 458.390625 461.346863 459.953125 C 463.950012 461.518768 484.568726 463.273438 468.284363 490.359344 C 453.7547 516.295288 435.751587 516.967163 419.487488 513.392212 C 419.487488 513.392212 421.873413 518.756226 416.020294 519.871826 C 410.162506 520.990601 389.126556 523.010925 382.83905 516.076538 C 376.548431 509.146881 384.78595 504.670349 391.081268 503.998413 L 398.018738 506.014069 L 399.3172 500.649963 C 399.3172 500.649963 379.800018 496.854675 372.428131 484.551575 C 372.428131 484.551575 378.71875 474.039063 372.428131 461.742218 C 366.137512 449.446869 378.285919 429.323425 378.285919 429.323425 L 378.284393 429.321869 Z"/>
    <path id="path9" fill="#eef3f7" stroke="none" d="M 474.225006 504.848419 C 474.225006 504.848419 476.28125 446.935944 531.524963 429.117188 C 562.953125 386.865601 577.734375 374.796875 574.492188 317.954681 C 574.492188 317.954681 657.248474 360.024994 692.929688 346.181244 C 691.892212 483.429657 556.929688 623.450012 489.920319 549.485901 L 474.225006 504.848419 Z"/>
    <path id="path10" fill="#c8c8c8" stroke="none" d="M 669.575012 447.621857 C 657.443787 474.642181 641.434387 499.214081 623.58905 519.128174 C 616.326599 518.435913 608.424988 516.96875 600.203125 515.153137 C 626.540588 509.829651 657.446838 466.220337 669.575012 447.621857 Z"/>
    <path id="path11" fill="#eef3f7" stroke="none" d="M 626.626526 519.375 C 619.540649 520.490662 610.695313 552.225037 621.003113 563.170288 C 621.003113 563.170288 532.496887 577.889038 505.020325 561.349976 C 477.543732 544.809387 484.03125 508.004669 512.426575 501.914063 C 543.22345 495.820343 592.724976 517.131226 626.6297 519.373413 L 626.626526 519.373413 Z"/>
    <path id="path12" fill="#ff5b62" stroke="none" d="M 694.221863 256.023438 C 694.221863 256.023438 670.003113 328.585938 574.493713 317.959381 C 574.493713 317.959381 560.359375 314.540619 556.0672 299.148438 L 458.798462 350.165619 C 458.798462 350.165619 444.142212 313.746887 390.645325 281.681274 C 390.645325 281.681274 558.354675 145.014038 642.845276 179.8797 C 697.58905 217.076538 694.22345 256.029663 694.22345 256.029663 L 694.221863 256.023438 L 694.221863 256.023438 Z"/>
    <path id="path13" fill="#ed4c54" stroke="none" d="M 558.58905 305.293762 L 556.068726 299.142181 C 589.4375 286.804688 598.957825 265.670349 598.957825 265.670349 C 593.75 288.700012 557.564087 303.912506 558.582825 305.289063 L 558.58905 305.293762 Z"/>
    <path id="path14" fill="#fed298" stroke="none" d="M 668.820313 370.370331 L 650.603088 360.434357 C 645.684387 359.901581 644.164063 362.889038 647.328125 367.042175 L 664.0578 381.612488 L 680.603149 396.637512 L 677.303101 518.070313 L 617.667175 518.415649 C 611.664063 537.251587 619.126587 565.757813 618.232849 563.379639 L 702.27655 557.46875 C 709.765625 556.940613 714.268738 553.03125 714.293762 549.239075 C 714.631287 502.709381 707.248474 433.449982 703.793762 388.657806 L 704.203125 336.8172 L 699.054688 320.915619 C 697.075012 315.239075 693.804688 319.596893 694.246887 321.210938 L 698.587524 337.03125 L 697.014038 351.695313 C 696.743713 351.546875 696.465637 351.403107 696.178101 351.273438 L 696.006226 334.087494 L 688.248413 314.365631 C 686.743713 308.873444 681.354675 311.428131 682.460938 314.939056 L 688.4375 333.873444 L 688.618774 350.643768 C 688.2453 350.737488 687.360962 351.009369 687.007813 351.242188 L 686.184387 335.982819 L 678.646912 317.679688 C 675.831299 312.654694 672.524963 315.834381 672.446899 317.84845 C 672.446899 320.467194 676.353149 332.365631 678.304688 339.623413 L 668.832825 370.375 L 668.820313 370.370331 Z"/>
    <path id="path15" fill="#fefefe" stroke="none" d="M 534.148438 508.610901 L 600.576538 515.234375 L 617.667175 518.414063 L 522.237488 517.414063 C 522.328125 511.956268 525.940613 508.792206 534.148438 508.610901 Z"/>
</svg>
