<?xml version="1.0" encoding="iso-8859-1"?>
<!-- Uploaded to: SVG Repo, www.svgrepo.com, Generator: SVG Repo Mixer Tools -->
<svg height="800px" width="800px" version="1.1" id="Layer_1" xmlns="http://www.w3.org/2000/svg" xmlns:xlink="http://www.w3.org/1999/xlink" 
	 viewBox="0 0 512 512" xml:space="preserve">
<path style="fill:#0F7986;" d="M512,256.001C512,114.615,397.387,0,255.999,0C114.615,0,0,114.615,0,256.001
	S114.615,512,255.999,512C397.387,512,512,397.385,512,256.001z"/>
<path style="fill:#E8B57F;" d="M254.173,170.064c0,0-21.983,17.532-34.283,28.1c-12.297,10.563-12.811,10.038-37.663,10.301
	c-24.853,0.262-44.219,33.234-72.404,40.893c-28.184,7.659-23.418,3.714-31.106,3.976c-7.685,0.267-14.068,6.715-11.408,18.592
	c6.405,12.152-5.115,24.801-9.215,28.966c-4.102,4.165-9.49,12.247-6.927,23.344c0,0-11.788,0.792-10.248,7.129
	c3.827,15.801,52.707-34.175,57.389-48.804c2.631-10.125,75.21-16.249,95.703-29.719c0,0,24.593,5.283,39.709-6.607
	c15.116-11.885,47.033-20.74,65.198-33.094c0,0,1.828-45.554-44.752-43.078L254.173,170.064L254.173,170.064z"/>
<g>
	<path style="fill:#ED4C54;" d="M442.293,164.277c0,0-12.853,38.771-72.839,30.899c0,0-8.858-2.324-11.379-12.065l-64.445,40.995
		c0,0-6.161-33.199-39.458-54.042c0,0,109.49-85.956,153.612-57.627C441.8,136.528,442.293,164.277,442.293,164.277z"/>
	<path style="fill:#ED4C54;" d="M250.016,180.272c0,0,23.098,46.761,44.752,43.078C294.767,223.35,292.626,184.815,250.016,180.272z
		"/>
</g>
<g>
	<path style="fill:#FED298;" d="M250.016,180.272c0,0-21.986,17.532-34.283,28.1c-12.297,10.563-12.811,10.038-37.661,10.301
		c-24.853,0.262-44.219,33.234-72.404,40.893c-28.184,7.659-23.418,3.714-31.109,3.976c-7.683,0.267-14.065,6.715-11.405,18.592
		c6.403,12.152-5.115,24.801-9.215,28.966c-4.102,4.165-9.49,12.247-6.927,23.344c0,0-11.788,0.792-10.248,7.129
		c3.828,15.802,52.711-34.174,57.393-48.803c2.631-10.125,75.21-16.249,95.703-29.719c0,0,24.593,5.283,39.709-6.607
		c15.116-11.885,47.033-20.741,65.198-33.094C294.767,223.35,296.595,177.796,250.016,180.272z"/>
	<path style="fill:#FED298;" d="M442.23,163.71c0,0,4.868,42.264,0,66.04c0,0-50.973,4.543-74.554-26.257L442.23,163.71z"/>
</g>
<path style="fill:#E8B57F;" d="M442.644,167.742c1.065,11.116,3.544,42.677-0.414,62.011c0,0-2.125,0.189-5.703,0.229
	C442.954,207.505,442.644,167.742,442.644,167.742z"/>
<path style="fill:#4D4D4D;" d="M268.474,328.572c0,0,5.553,1.29,5.829,7.728c0.278,6.442-5.829,6.361-5.829,6.361
	s18.946,13.086-31.883,13.086c-19.848,0-27.94-11.289-22.526-30.605c0,0-13.467-0.572-10.411-23.038
	c3.053-22.469,24.428-41.931,38.448-27.332c0,0-0.278-3.578,5.97-4.152c0,0-5.553,2.151-4.58,5.582l24.984,52.374L268.474,328.572z"
	/>
<path style="fill:#E8B57F;" d="M293.458,320.415c0,0,8.986,3.625,15.617-3.256l10.67,36.998c0,0-26.844-2.117-51.828-11.704
	c0,0,11.242-5.437,0.556-13.878c0,0,20.402-9.443,24.984-8.158L293.458,320.415L293.458,320.415z"/>
<path style="fill:#FED298;" d="M242.102,274.766c0,0,13.603-1.574,17.765,0.716c4.165,2.293,8.856,5.259,16.905,1.825
	c8.561-3.224,4.659,6.282,4.659,6.998c0,0.714,2.628,1.867,4.848,1.867c2.225,0,1.35,4.764,1.35,4.764s3.332-1.87,4.719-0.435
	c1.387,1.432,1.249,2.869,2.914,3.869c1.666,1.002,14.862,2.125,4.44,19.46c-9.299,16.599-20.821,17.029-31.23,14.741
	c0,0,1.527,3.433-2.219,4.147c-3.749,0.716-17.212,2.009-21.236-2.429c-4.026-4.435,1.246-7.3,5.275-7.73l4.44,1.29l0.831-3.433
	c0,0-12.491-2.429-17.209-10.303c0,0,4.026-6.728,0-14.598c-4.026-7.869,3.749-20.748,3.749-20.748L242.102,274.766z"/>
<path style="fill:#EEF3F7;" d="M303.504,323.103c0,0,1.316-37.064,36.672-48.468c20.114-27.041,29.574-34.765,27.499-71.144
	c0,0,52.964,26.925,75.8,18.065c-0.664,87.839-87.04,177.452-129.926,130.115L303.504,323.103z"/>
<path style="fill:#C8C8C8;" d="M428.528,286.478c-7.764,17.293-18.01,33.019-29.431,45.764c-4.648-0.443-9.705-1.382-14.967-2.544
	C400.986,326.291,420.766,298.381,428.528,286.478z"/>
<path style="fill:#EEF3F7;" d="M401.041,332.4c-4.535,0.714-10.196,21.024-3.599,28.029c0,0-56.644,9.42-74.229-1.165
	c-17.585-10.586-13.433-34.141,4.74-38.039c19.71-3.9,51.391,9.739,73.09,11.174H401.041z"/>
<path style="fill:#FF5B62;" d="M444.302,163.855c0,0-15.5,46.44-76.626,39.639c0,0-9.046-2.188-11.793-12.039l-62.252,32.651
	c0,0-9.38-23.308-43.618-43.83c0,0,107.334-87.467,161.408-65.153c35.036,23.806,32.882,48.736,32.882,48.736L444.302,163.855
	L444.302,163.855z"/>
<path style="fill:#ED4C54;" d="M357.497,195.388l-1.613-3.937c21.356-7.896,27.449-21.422,27.449-21.422
	c-3.333,14.739-26.492,24.475-25.84,25.356L357.497,195.388z"/>
<path style="fill:#FED298;" d="M428.045,237.037l-11.659-6.359c-3.148-0.341-4.121,1.571-2.096,4.229l10.707,9.325l10.589,9.616
	l-2.112,77.717l-38.167,0.221c-3.842,12.055,0.934,30.299,0.362,28.777l53.788-3.783c4.793-0.338,7.675-2.84,7.691-5.267
	c0.216-29.779-4.509-74.105-6.72-102.772l0.262-33.178l-3.295-10.177c-1.267-3.633-3.36-0.844-3.077,0.189l2.778,10.125
	l-1.007,9.385c-0.173-0.095-0.351-0.187-0.535-0.27l-0.11-10.999l-4.965-12.622c-0.963-3.515-4.412-1.88-3.704,0.367l3.825,12.118
	l0.116,10.733c-0.239,0.06-0.805,0.234-1.031,0.383l-0.527-9.766l-4.824-11.714c-1.802-3.216-3.918-1.181-3.968,0.108
	c0,1.676,2.5,9.291,3.749,13.936l-6.062,19.681L428.045,237.037z"/>
<path style="fill:#FEFEFE;" d="M341.855,325.511l42.514,4.239l10.938,2.035l-61.075-0.64
	C334.29,327.652,336.602,325.627,341.855,325.511z"/>
</svg>